G04 #@! TF.GenerationSoftware,KiCad,Pcbnew,5.0.2-bee76a0~70~ubuntu18.04.1*
G04 #@! TF.CreationDate,2018-12-03T19:26:52-05:00*
G04 #@! TF.ProjectId,LEDStuff,4c454453-7475-4666-962e-6b696361645f,rev?*
G04 #@! TF.SameCoordinates,Original*
G04 #@! TF.FileFunction,Soldermask,Top*
G04 #@! TF.FilePolarity,Negative*
%FSLAX46Y46*%
G04 Gerber Fmt 4.6, Leading zero omitted, Abs format (unit mm)*
G04 Created by KiCad (PCBNEW 5.0.2-bee76a0~70~ubuntu18.04.1) date Mon 03 Dec 2018 07:26:52 PM EST*
%MOMM*%
%LPD*%
G01*
G04 APERTURE LIST*
%ADD10C,0.100000*%
G04 APERTURE END LIST*
D10*
G36*
X145200712Y-120904787D02*
X145290439Y-120932006D01*
X145373131Y-120976206D01*
X145445611Y-121035689D01*
X145505094Y-121108169D01*
X145505096Y-121108173D01*
X145510773Y-121115091D01*
X145528100Y-121132418D01*
X145548475Y-121146032D01*
X145571114Y-121155409D01*
X145595147Y-121160190D01*
X145619651Y-121160190D01*
X145643685Y-121155410D01*
X145666324Y-121146033D01*
X145686699Y-121132419D01*
X145704027Y-121115091D01*
X145709704Y-121108173D01*
X145709706Y-121108169D01*
X145769189Y-121035689D01*
X145841669Y-120976206D01*
X145924361Y-120932006D01*
X146014088Y-120904787D01*
X146084016Y-120897900D01*
X146130784Y-120897900D01*
X146200712Y-120904787D01*
X146290439Y-120932006D01*
X146373131Y-120976206D01*
X146445611Y-121035689D01*
X146505094Y-121108169D01*
X146505096Y-121108173D01*
X146510773Y-121115091D01*
X146528100Y-121132418D01*
X146548475Y-121146032D01*
X146571114Y-121155409D01*
X146595147Y-121160190D01*
X146619651Y-121160190D01*
X146643685Y-121155410D01*
X146666324Y-121146033D01*
X146686699Y-121132419D01*
X146704027Y-121115091D01*
X146709704Y-121108173D01*
X146709706Y-121108169D01*
X146769189Y-121035689D01*
X146841669Y-120976206D01*
X146924361Y-120932006D01*
X147014088Y-120904787D01*
X147084016Y-120897900D01*
X147130784Y-120897900D01*
X147200712Y-120904787D01*
X147290439Y-120932006D01*
X147373131Y-120976206D01*
X147427106Y-121020503D01*
X147447476Y-121034112D01*
X147470115Y-121043490D01*
X147494148Y-121048270D01*
X147518653Y-121048270D01*
X147542686Y-121043489D01*
X147565325Y-121034112D01*
X147585700Y-121020498D01*
X147603027Y-121003171D01*
X147616640Y-120982796D01*
X147626018Y-120960157D01*
X147631400Y-120923872D01*
X147631400Y-120897900D01*
X148583400Y-120897900D01*
X148583400Y-121849900D01*
X147631400Y-121849900D01*
X147631400Y-121823928D01*
X147628998Y-121799542D01*
X147621885Y-121776093D01*
X147610334Y-121754482D01*
X147594788Y-121735540D01*
X147575846Y-121719994D01*
X147554235Y-121708443D01*
X147530786Y-121701330D01*
X147506400Y-121698928D01*
X147482014Y-121701330D01*
X147458565Y-121708443D01*
X147427105Y-121727299D01*
X147373131Y-121771594D01*
X147290439Y-121815794D01*
X147200712Y-121843013D01*
X147130784Y-121849900D01*
X147084016Y-121849900D01*
X147014088Y-121843013D01*
X146924361Y-121815794D01*
X146841669Y-121771594D01*
X146769189Y-121712111D01*
X146709706Y-121639631D01*
X146709703Y-121639625D01*
X146704027Y-121632709D01*
X146686700Y-121615382D01*
X146666325Y-121601768D01*
X146643686Y-121592391D01*
X146619653Y-121587610D01*
X146595149Y-121587610D01*
X146571115Y-121592390D01*
X146548476Y-121601767D01*
X146528101Y-121615381D01*
X146510773Y-121632709D01*
X146505097Y-121639625D01*
X146505094Y-121639631D01*
X146445611Y-121712111D01*
X146373131Y-121771594D01*
X146290439Y-121815794D01*
X146200712Y-121843013D01*
X146130784Y-121849900D01*
X146084016Y-121849900D01*
X146014088Y-121843013D01*
X145924361Y-121815794D01*
X145841669Y-121771594D01*
X145769189Y-121712111D01*
X145709706Y-121639631D01*
X145709703Y-121639625D01*
X145704027Y-121632709D01*
X145686700Y-121615382D01*
X145666325Y-121601768D01*
X145643686Y-121592391D01*
X145619653Y-121587610D01*
X145595149Y-121587610D01*
X145571115Y-121592390D01*
X145548476Y-121601767D01*
X145528101Y-121615381D01*
X145510773Y-121632709D01*
X145505097Y-121639625D01*
X145505094Y-121639631D01*
X145445611Y-121712111D01*
X145373131Y-121771594D01*
X145290439Y-121815794D01*
X145200712Y-121843013D01*
X145130784Y-121849900D01*
X145084016Y-121849900D01*
X145014088Y-121843013D01*
X144924361Y-121815794D01*
X144841669Y-121771594D01*
X144769189Y-121712111D01*
X144709706Y-121639631D01*
X144665506Y-121556939D01*
X144638287Y-121467212D01*
X144629097Y-121373900D01*
X144638287Y-121280588D01*
X144665506Y-121190861D01*
X144709706Y-121108169D01*
X144769189Y-121035689D01*
X144841669Y-120976206D01*
X144924361Y-120932006D01*
X145014088Y-120904787D01*
X145084016Y-120897900D01*
X145130784Y-120897900D01*
X145200712Y-120904787D01*
X145200712Y-120904787D01*
G37*
G36*
X146551800Y-118823600D02*
X145649800Y-118823600D01*
X145649800Y-117821600D01*
X146551800Y-117821600D01*
X146551800Y-118823600D01*
X146551800Y-118823600D01*
G37*
G36*
X150653900Y-118798200D02*
X149751900Y-118798200D01*
X149751900Y-117796200D01*
X150653900Y-117796200D01*
X150653900Y-118798200D01*
X150653900Y-118798200D01*
G37*
G36*
X142360800Y-118645800D02*
X141458800Y-118645800D01*
X141458800Y-117643800D01*
X142360800Y-117643800D01*
X142360800Y-118645800D01*
X142360800Y-118645800D01*
G37*
G36*
X167173752Y-113338818D02*
X167173754Y-113338819D01*
X167173755Y-113338819D01*
X167547013Y-113493427D01*
X167838804Y-113688396D01*
X167882939Y-113717886D01*
X168168614Y-114003561D01*
X168168616Y-114003564D01*
X168393073Y-114339487D01*
X168402398Y-114362000D01*
X168547682Y-114712748D01*
X168626500Y-115108993D01*
X168626500Y-115513007D01*
X168600484Y-115643800D01*
X168547681Y-115909255D01*
X168393073Y-116282513D01*
X168393072Y-116282514D01*
X168168614Y-116618439D01*
X167882939Y-116904114D01*
X167882936Y-116904116D01*
X167547013Y-117128573D01*
X167173755Y-117283181D01*
X167173754Y-117283181D01*
X167173752Y-117283182D01*
X166777507Y-117362000D01*
X166373493Y-117362000D01*
X165977248Y-117283182D01*
X165977246Y-117283181D01*
X165977245Y-117283181D01*
X165603987Y-117128573D01*
X165268064Y-116904116D01*
X165268061Y-116904114D01*
X164982386Y-116618439D01*
X164757928Y-116282514D01*
X164757927Y-116282513D01*
X164603319Y-115909255D01*
X164550517Y-115643800D01*
X164524500Y-115513007D01*
X164524500Y-115108993D01*
X164603318Y-114712748D01*
X164748602Y-114362000D01*
X164757927Y-114339487D01*
X164982384Y-114003564D01*
X164982386Y-114003561D01*
X165268061Y-113717886D01*
X165312196Y-113688396D01*
X165603987Y-113493427D01*
X165977245Y-113338819D01*
X165977246Y-113338819D01*
X165977248Y-113338818D01*
X166373493Y-113260000D01*
X166777507Y-113260000D01*
X167173752Y-113338818D01*
X167173752Y-113338818D01*
G37*
G36*
X145601800Y-116823600D02*
X144699800Y-116823600D01*
X144699800Y-115821600D01*
X145601800Y-115821600D01*
X145601800Y-116823600D01*
X145601800Y-116823600D01*
G37*
G36*
X147501800Y-116823600D02*
X146599800Y-116823600D01*
X146599800Y-115821600D01*
X147501800Y-115821600D01*
X147501800Y-116823600D01*
X147501800Y-116823600D01*
G37*
G36*
X151603900Y-116798200D02*
X150701900Y-116798200D01*
X150701900Y-115796200D01*
X151603900Y-115796200D01*
X151603900Y-116798200D01*
X151603900Y-116798200D01*
G37*
G36*
X149703900Y-116798200D02*
X148801900Y-116798200D01*
X148801900Y-115796200D01*
X149703900Y-115796200D01*
X149703900Y-116798200D01*
X149703900Y-116798200D01*
G37*
G36*
X141410800Y-116645800D02*
X140508800Y-116645800D01*
X140508800Y-115643800D01*
X141410800Y-115643800D01*
X141410800Y-116645800D01*
X141410800Y-116645800D01*
G37*
G36*
X143310800Y-116645800D02*
X142408800Y-116645800D01*
X142408800Y-115643800D01*
X143310800Y-115643800D01*
X143310800Y-116645800D01*
X143310800Y-116645800D01*
G37*
G36*
X136026600Y-115920200D02*
X133924600Y-115920200D01*
X133924600Y-107943200D01*
X136026600Y-107943200D01*
X136026600Y-115920200D01*
X136026600Y-115920200D01*
G37*
G36*
X159852896Y-112496546D02*
X160025966Y-112568234D01*
X160181730Y-112672312D01*
X160314188Y-112804770D01*
X160418266Y-112960534D01*
X160489954Y-113133604D01*
X160526500Y-113317333D01*
X160526500Y-113504667D01*
X160489954Y-113688396D01*
X160418266Y-113861466D01*
X160314188Y-114017230D01*
X160181730Y-114149688D01*
X160025966Y-114253766D01*
X159852896Y-114325454D01*
X159669167Y-114362000D01*
X159481833Y-114362000D01*
X159298104Y-114325454D01*
X159125034Y-114253766D01*
X158969270Y-114149688D01*
X158836812Y-114017230D01*
X158732734Y-113861466D01*
X158661046Y-113688396D01*
X158624500Y-113504667D01*
X158624500Y-113317333D01*
X158661046Y-113133604D01*
X158732734Y-112960534D01*
X158836812Y-112804770D01*
X158969270Y-112672312D01*
X159125034Y-112568234D01*
X159298104Y-112496546D01*
X159481833Y-112460000D01*
X159669167Y-112460000D01*
X159852896Y-112496546D01*
X159852896Y-112496546D01*
G37*
G36*
X149372412Y-110243387D02*
X149462139Y-110270606D01*
X149544831Y-110314806D01*
X149617311Y-110374289D01*
X149676794Y-110446769D01*
X149676796Y-110446773D01*
X149682473Y-110453691D01*
X149699800Y-110471018D01*
X149720175Y-110484632D01*
X149742814Y-110494009D01*
X149766847Y-110498790D01*
X149791351Y-110498790D01*
X149815385Y-110494010D01*
X149838024Y-110484633D01*
X149858399Y-110471019D01*
X149875727Y-110453691D01*
X149881404Y-110446773D01*
X149881406Y-110446769D01*
X149940889Y-110374289D01*
X150013369Y-110314806D01*
X150096061Y-110270606D01*
X150185788Y-110243387D01*
X150255716Y-110236500D01*
X150302484Y-110236500D01*
X150372412Y-110243387D01*
X150462139Y-110270606D01*
X150544831Y-110314806D01*
X150617311Y-110374289D01*
X150676794Y-110446769D01*
X150720994Y-110529461D01*
X150748213Y-110619188D01*
X150757403Y-110712500D01*
X150748213Y-110805812D01*
X150720994Y-110895539D01*
X150676794Y-110978231D01*
X150617311Y-111050711D01*
X150544831Y-111110194D01*
X150544825Y-111110197D01*
X150537909Y-111115873D01*
X150520582Y-111133200D01*
X150506968Y-111153575D01*
X150497591Y-111176214D01*
X150492810Y-111200247D01*
X150492810Y-111224751D01*
X150497590Y-111248785D01*
X150506967Y-111271424D01*
X150520581Y-111291799D01*
X150537909Y-111309127D01*
X150544825Y-111314803D01*
X150544831Y-111314806D01*
X150617311Y-111374289D01*
X150676794Y-111446769D01*
X150720994Y-111529461D01*
X150748213Y-111619188D01*
X150757403Y-111712500D01*
X150748213Y-111805812D01*
X150720994Y-111895539D01*
X150676794Y-111978231D01*
X150632497Y-112032206D01*
X150618888Y-112052576D01*
X150609510Y-112075215D01*
X150604730Y-112099248D01*
X150604730Y-112123753D01*
X150609511Y-112147786D01*
X150618888Y-112170425D01*
X150632502Y-112190800D01*
X150649829Y-112208127D01*
X150670204Y-112221740D01*
X150692843Y-112231118D01*
X150729128Y-112236500D01*
X150755100Y-112236500D01*
X150755100Y-113188500D01*
X149803100Y-113188500D01*
X149803100Y-113162528D01*
X149800698Y-113138142D01*
X149793585Y-113114693D01*
X149782034Y-113093082D01*
X149766488Y-113074140D01*
X149747546Y-113058594D01*
X149725935Y-113047043D01*
X149702486Y-113039930D01*
X149678100Y-113037528D01*
X149653714Y-113039930D01*
X149630265Y-113047043D01*
X149598805Y-113065899D01*
X149544831Y-113110194D01*
X149462139Y-113154394D01*
X149372412Y-113181613D01*
X149302484Y-113188500D01*
X149255716Y-113188500D01*
X149185788Y-113181613D01*
X149096061Y-113154394D01*
X149013369Y-113110194D01*
X148940889Y-113050711D01*
X148881406Y-112978231D01*
X148837206Y-112895539D01*
X148809987Y-112805812D01*
X148800797Y-112712500D01*
X148809987Y-112619188D01*
X148837206Y-112529461D01*
X148881406Y-112446769D01*
X148940889Y-112374289D01*
X149013369Y-112314806D01*
X149013375Y-112314803D01*
X149020291Y-112309127D01*
X149037618Y-112291800D01*
X149051232Y-112271425D01*
X149060609Y-112248786D01*
X149065390Y-112224753D01*
X149065390Y-112200249D01*
X149065390Y-112200247D01*
X149492810Y-112200247D01*
X149492810Y-112224751D01*
X149497590Y-112248785D01*
X149506967Y-112271424D01*
X149520581Y-112291798D01*
X149537910Y-112309127D01*
X149544828Y-112314804D01*
X149544831Y-112314806D01*
X149598487Y-112358841D01*
X149598802Y-112359099D01*
X149619176Y-112372713D01*
X149641815Y-112382090D01*
X149665849Y-112386870D01*
X149690353Y-112386870D01*
X149714386Y-112382089D01*
X149737025Y-112372712D01*
X149757400Y-112359098D01*
X149774727Y-112341770D01*
X149788341Y-112321396D01*
X149797718Y-112298757D01*
X149803100Y-112262472D01*
X149803100Y-112236500D01*
X149829072Y-112236500D01*
X149853458Y-112234098D01*
X149876907Y-112226985D01*
X149898518Y-112215434D01*
X149917460Y-112199888D01*
X149933006Y-112180946D01*
X149944557Y-112159335D01*
X149951670Y-112135886D01*
X149954072Y-112111500D01*
X149951670Y-112087114D01*
X149944557Y-112063665D01*
X149925699Y-112032202D01*
X149925441Y-112031887D01*
X149881406Y-111978231D01*
X149881404Y-111978227D01*
X149875727Y-111971310D01*
X149858400Y-111953982D01*
X149838025Y-111940368D01*
X149815386Y-111930991D01*
X149791353Y-111926210D01*
X149766849Y-111926210D01*
X149742815Y-111930990D01*
X149720176Y-111940367D01*
X149699802Y-111953981D01*
X149682473Y-111971310D01*
X149676796Y-111978227D01*
X149676794Y-111978231D01*
X149632759Y-112031887D01*
X149632501Y-112032202D01*
X149618887Y-112052576D01*
X149618178Y-112054288D01*
X149598802Y-112065901D01*
X149544831Y-112110194D01*
X149544828Y-112110196D01*
X149537910Y-112115873D01*
X149520582Y-112133200D01*
X149506968Y-112153575D01*
X149497591Y-112176214D01*
X149492810Y-112200247D01*
X149065390Y-112200247D01*
X149060610Y-112176215D01*
X149051233Y-112153576D01*
X149037619Y-112133201D01*
X149020291Y-112115873D01*
X149013375Y-112110197D01*
X149013369Y-112110194D01*
X148940889Y-112050711D01*
X148881406Y-111978231D01*
X148837206Y-111895539D01*
X148809987Y-111805812D01*
X148800797Y-111712500D01*
X148809987Y-111619188D01*
X148837206Y-111529461D01*
X148881406Y-111446769D01*
X148940889Y-111374289D01*
X149013369Y-111314806D01*
X149013375Y-111314803D01*
X149020291Y-111309127D01*
X149037618Y-111291800D01*
X149051232Y-111271425D01*
X149060609Y-111248786D01*
X149065390Y-111224753D01*
X149065390Y-111200249D01*
X149065390Y-111200247D01*
X149492810Y-111200247D01*
X149492810Y-111224751D01*
X149497590Y-111248785D01*
X149506967Y-111271424D01*
X149520581Y-111291799D01*
X149537909Y-111309127D01*
X149544825Y-111314803D01*
X149544831Y-111314806D01*
X149617311Y-111374289D01*
X149676794Y-111446769D01*
X149676796Y-111446773D01*
X149682473Y-111453691D01*
X149699800Y-111471018D01*
X149720175Y-111484632D01*
X149742814Y-111494009D01*
X149766847Y-111498790D01*
X149791351Y-111498790D01*
X149815385Y-111494010D01*
X149838024Y-111484633D01*
X149858399Y-111471019D01*
X149875727Y-111453691D01*
X149881404Y-111446773D01*
X149881406Y-111446769D01*
X149940889Y-111374289D01*
X150013369Y-111314806D01*
X150013375Y-111314803D01*
X150020291Y-111309127D01*
X150037618Y-111291800D01*
X150051232Y-111271425D01*
X150060609Y-111248786D01*
X150065390Y-111224753D01*
X150065390Y-111200249D01*
X150060610Y-111176215D01*
X150051233Y-111153576D01*
X150037619Y-111133201D01*
X150020291Y-111115873D01*
X150013375Y-111110197D01*
X150013369Y-111110194D01*
X149940889Y-111050711D01*
X149881406Y-110978231D01*
X149881403Y-110978225D01*
X149875727Y-110971309D01*
X149858400Y-110953982D01*
X149838025Y-110940368D01*
X149815386Y-110930991D01*
X149791353Y-110926210D01*
X149766849Y-110926210D01*
X149742815Y-110930990D01*
X149720176Y-110940367D01*
X149699801Y-110953981D01*
X149682473Y-110971309D01*
X149676797Y-110978225D01*
X149676794Y-110978231D01*
X149617311Y-111050711D01*
X149544831Y-111110194D01*
X149544825Y-111110197D01*
X149537909Y-111115873D01*
X149520582Y-111133200D01*
X149506968Y-111153575D01*
X149497591Y-111176214D01*
X149492810Y-111200247D01*
X149065390Y-111200247D01*
X149060610Y-111176215D01*
X149051233Y-111153576D01*
X149037619Y-111133201D01*
X149020291Y-111115873D01*
X149013375Y-111110197D01*
X149013369Y-111110194D01*
X148940889Y-111050711D01*
X148881406Y-110978231D01*
X148837206Y-110895539D01*
X148809987Y-110805812D01*
X148800797Y-110712500D01*
X148809987Y-110619188D01*
X148837206Y-110529461D01*
X148881406Y-110446769D01*
X148940889Y-110374289D01*
X149013369Y-110314806D01*
X149096061Y-110270606D01*
X149185788Y-110243387D01*
X149255716Y-110236500D01*
X149302484Y-110236500D01*
X149372412Y-110243387D01*
X149372412Y-110243387D01*
G37*
G36*
X144087977Y-110556265D02*
X144125664Y-110567698D01*
X144160403Y-110586266D01*
X144190848Y-110611252D01*
X144215834Y-110641697D01*
X144234402Y-110676436D01*
X144245835Y-110714123D01*
X144250300Y-110759461D01*
X144250300Y-111846139D01*
X144245835Y-111891477D01*
X144234402Y-111929164D01*
X144215834Y-111963903D01*
X144190848Y-111994348D01*
X144160403Y-112019334D01*
X144125664Y-112037902D01*
X144087977Y-112049335D01*
X144042639Y-112053800D01*
X143205961Y-112053800D01*
X143160623Y-112049335D01*
X143122936Y-112037902D01*
X143088197Y-112019334D01*
X143057752Y-111994348D01*
X143032766Y-111963903D01*
X143014198Y-111929164D01*
X143002765Y-111891477D01*
X142998300Y-111846139D01*
X142998300Y-110759461D01*
X143002765Y-110714123D01*
X143014198Y-110676436D01*
X143032766Y-110641697D01*
X143057752Y-110611252D01*
X143088197Y-110586266D01*
X143122936Y-110567698D01*
X143160623Y-110556265D01*
X143205961Y-110551800D01*
X144042639Y-110551800D01*
X144087977Y-110556265D01*
X144087977Y-110556265D01*
G37*
G36*
X142037977Y-110556265D02*
X142075664Y-110567698D01*
X142110403Y-110586266D01*
X142140848Y-110611252D01*
X142165834Y-110641697D01*
X142184402Y-110676436D01*
X142195835Y-110714123D01*
X142200300Y-110759461D01*
X142200300Y-111846139D01*
X142195835Y-111891477D01*
X142184402Y-111929164D01*
X142165834Y-111963903D01*
X142140848Y-111994348D01*
X142110403Y-112019334D01*
X142075664Y-112037902D01*
X142037977Y-112049335D01*
X141992639Y-112053800D01*
X141155961Y-112053800D01*
X141110623Y-112049335D01*
X141072936Y-112037902D01*
X141038197Y-112019334D01*
X141007752Y-111994348D01*
X140982766Y-111963903D01*
X140964198Y-111929164D01*
X140952765Y-111891477D01*
X140948300Y-111846139D01*
X140948300Y-110759461D01*
X140952765Y-110714123D01*
X140964198Y-110676436D01*
X140982766Y-110641697D01*
X141007752Y-110611252D01*
X141038197Y-110586266D01*
X141072936Y-110567698D01*
X141110623Y-110556265D01*
X141155961Y-110551800D01*
X141992639Y-110551800D01*
X142037977Y-110556265D01*
X142037977Y-110556265D01*
G37*
G36*
X159852896Y-109996546D02*
X160025966Y-110068234D01*
X160181730Y-110172312D01*
X160314188Y-110304770D01*
X160418266Y-110460534D01*
X160489954Y-110633604D01*
X160526500Y-110817333D01*
X160526500Y-111004667D01*
X160489954Y-111188396D01*
X160418266Y-111361466D01*
X160314188Y-111517230D01*
X160181730Y-111649688D01*
X160025966Y-111753766D01*
X159852896Y-111825454D01*
X159669167Y-111862000D01*
X159481833Y-111862000D01*
X159298104Y-111825454D01*
X159125034Y-111753766D01*
X158969270Y-111649688D01*
X158836812Y-111517230D01*
X158732734Y-111361466D01*
X158661046Y-111188396D01*
X158624500Y-111004667D01*
X158624500Y-110817333D01*
X158661046Y-110633604D01*
X158732734Y-110460534D01*
X158836812Y-110304770D01*
X158969270Y-110172312D01*
X159125034Y-110068234D01*
X159298104Y-109996546D01*
X159481833Y-109960000D01*
X159669167Y-109960000D01*
X159852896Y-109996546D01*
X159852896Y-109996546D01*
G37*
G36*
X156506577Y-110046265D02*
X156544264Y-110057698D01*
X156579003Y-110076266D01*
X156609448Y-110101252D01*
X156634434Y-110131697D01*
X156653002Y-110166436D01*
X156664435Y-110204123D01*
X156668900Y-110249461D01*
X156668900Y-111086139D01*
X156664435Y-111131477D01*
X156653002Y-111169164D01*
X156634434Y-111203903D01*
X156609448Y-111234348D01*
X156579003Y-111259334D01*
X156544264Y-111277902D01*
X156506577Y-111289335D01*
X156461239Y-111293800D01*
X155374561Y-111293800D01*
X155329223Y-111289335D01*
X155291536Y-111277902D01*
X155256797Y-111259334D01*
X155226352Y-111234348D01*
X155201366Y-111203903D01*
X155182798Y-111169164D01*
X155171365Y-111131477D01*
X155166900Y-111086139D01*
X155166900Y-110249461D01*
X155171365Y-110204123D01*
X155182798Y-110166436D01*
X155201366Y-110131697D01*
X155226352Y-110101252D01*
X155256797Y-110076266D01*
X155291536Y-110057698D01*
X155329223Y-110046265D01*
X155374561Y-110041800D01*
X156461239Y-110041800D01*
X156506577Y-110046265D01*
X156506577Y-110046265D01*
G37*
G36*
X159852896Y-107496546D02*
X160025966Y-107568234D01*
X160181730Y-107672312D01*
X160314188Y-107804770D01*
X160418266Y-107960534D01*
X160489954Y-108133604D01*
X160526500Y-108317333D01*
X160526500Y-108504667D01*
X160489954Y-108688396D01*
X160418266Y-108861466D01*
X160314188Y-109017230D01*
X160181730Y-109149688D01*
X160025966Y-109253766D01*
X159852896Y-109325454D01*
X159669167Y-109362000D01*
X159481833Y-109362000D01*
X159298104Y-109325454D01*
X159125034Y-109253766D01*
X158969270Y-109149688D01*
X158836812Y-109017230D01*
X158732734Y-108861466D01*
X158661046Y-108688396D01*
X158624500Y-108504667D01*
X158624500Y-108317333D01*
X158661046Y-108133604D01*
X158732734Y-107960534D01*
X158836812Y-107804770D01*
X158969270Y-107672312D01*
X159125034Y-107568234D01*
X159298104Y-107496546D01*
X159481833Y-107460000D01*
X159669167Y-107460000D01*
X159852896Y-107496546D01*
X159852896Y-107496546D01*
G37*
G36*
X156506577Y-107996265D02*
X156544264Y-108007698D01*
X156579003Y-108026266D01*
X156609448Y-108051252D01*
X156634434Y-108081697D01*
X156653002Y-108116436D01*
X156664435Y-108154123D01*
X156668900Y-108199461D01*
X156668900Y-109036139D01*
X156664435Y-109081477D01*
X156653002Y-109119164D01*
X156634434Y-109153903D01*
X156609448Y-109184348D01*
X156579003Y-109209334D01*
X156544264Y-109227902D01*
X156506577Y-109239335D01*
X156461239Y-109243800D01*
X155374561Y-109243800D01*
X155329223Y-109239335D01*
X155291536Y-109227902D01*
X155256797Y-109209334D01*
X155226352Y-109184348D01*
X155201366Y-109153903D01*
X155182798Y-109119164D01*
X155171365Y-109081477D01*
X155166900Y-109036139D01*
X155166900Y-108199461D01*
X155171365Y-108154123D01*
X155182798Y-108116436D01*
X155201366Y-108081697D01*
X155226352Y-108051252D01*
X155256797Y-108026266D01*
X155291536Y-108007698D01*
X155329223Y-107996265D01*
X155374561Y-107991800D01*
X156461239Y-107991800D01*
X156506577Y-107996265D01*
X156506577Y-107996265D01*
G37*
G36*
X149125200Y-108567900D02*
X142873200Y-108567900D01*
X142873200Y-106865900D01*
X149125200Y-106865900D01*
X149125200Y-108567900D01*
X149125200Y-108567900D01*
G37*
G36*
X167173752Y-104538818D02*
X167173754Y-104538819D01*
X167173755Y-104538819D01*
X167547013Y-104693427D01*
X167547014Y-104693428D01*
X167882939Y-104917886D01*
X168168614Y-105203561D01*
X168168616Y-105203564D01*
X168393073Y-105539487D01*
X168547681Y-105912745D01*
X168547682Y-105912748D01*
X168626500Y-106308993D01*
X168626500Y-106713007D01*
X168596088Y-106865900D01*
X168547681Y-107109255D01*
X168393073Y-107482513D01*
X168268419Y-107669070D01*
X168168614Y-107818439D01*
X167882939Y-108104114D01*
X167882936Y-108104116D01*
X167547013Y-108328573D01*
X167173755Y-108483181D01*
X167173754Y-108483181D01*
X167173752Y-108483182D01*
X166777507Y-108562000D01*
X166373493Y-108562000D01*
X165977248Y-108483182D01*
X165977246Y-108483181D01*
X165977245Y-108483181D01*
X165603987Y-108328573D01*
X165268064Y-108104116D01*
X165268061Y-108104114D01*
X164982386Y-107818439D01*
X164882581Y-107669070D01*
X164757927Y-107482513D01*
X164603319Y-107109255D01*
X164554913Y-106865900D01*
X164524500Y-106713007D01*
X164524500Y-106308993D01*
X164603318Y-105912748D01*
X164603319Y-105912745D01*
X164757927Y-105539487D01*
X164982384Y-105203564D01*
X164982386Y-105203561D01*
X165268061Y-104917886D01*
X165603986Y-104693428D01*
X165603987Y-104693427D01*
X165977245Y-104538819D01*
X165977246Y-104538819D01*
X165977248Y-104538818D01*
X166373493Y-104460000D01*
X166777507Y-104460000D01*
X167173752Y-104538818D01*
X167173752Y-104538818D01*
G37*
G36*
X139590177Y-106426765D02*
X139627864Y-106438198D01*
X139662603Y-106456766D01*
X139693048Y-106481752D01*
X139718034Y-106512197D01*
X139736602Y-106546936D01*
X139748035Y-106584623D01*
X139752500Y-106629961D01*
X139752500Y-107466639D01*
X139748035Y-107511977D01*
X139736602Y-107549664D01*
X139718034Y-107584403D01*
X139693048Y-107614848D01*
X139662603Y-107639834D01*
X139627864Y-107658402D01*
X139590177Y-107669835D01*
X139544839Y-107674300D01*
X138458161Y-107674300D01*
X138412823Y-107669835D01*
X138375136Y-107658402D01*
X138340397Y-107639834D01*
X138309952Y-107614848D01*
X138284966Y-107584403D01*
X138266398Y-107549664D01*
X138254965Y-107511977D01*
X138250500Y-107466639D01*
X138250500Y-106629961D01*
X138254965Y-106584623D01*
X138266398Y-106546936D01*
X138284966Y-106512197D01*
X138309952Y-106481752D01*
X138340397Y-106456766D01*
X138375136Y-106438198D01*
X138412823Y-106426765D01*
X138458161Y-106422300D01*
X139544839Y-106422300D01*
X139590177Y-106426765D01*
X139590177Y-106426765D01*
G37*
G36*
X151100200Y-106592900D02*
X149398200Y-106592900D01*
X149398200Y-100340900D01*
X151100200Y-100340900D01*
X151100200Y-106592900D01*
X151100200Y-106592900D01*
G37*
G36*
X142600200Y-106592900D02*
X140898200Y-106592900D01*
X140898200Y-100340900D01*
X142600200Y-100340900D01*
X142600200Y-106592900D01*
X142600200Y-106592900D01*
G37*
G36*
X139590177Y-104376765D02*
X139627864Y-104388198D01*
X139662603Y-104406766D01*
X139693048Y-104431752D01*
X139718034Y-104462197D01*
X139736602Y-104496936D01*
X139748035Y-104534623D01*
X139752500Y-104579961D01*
X139752500Y-105416639D01*
X139748035Y-105461977D01*
X139736602Y-105499664D01*
X139718034Y-105534403D01*
X139693048Y-105564848D01*
X139662603Y-105589834D01*
X139627864Y-105608402D01*
X139590177Y-105619835D01*
X139544839Y-105624300D01*
X138458161Y-105624300D01*
X138412823Y-105619835D01*
X138375136Y-105608402D01*
X138340397Y-105589834D01*
X138309952Y-105564848D01*
X138284966Y-105534403D01*
X138266398Y-105499664D01*
X138254965Y-105461977D01*
X138250500Y-105416639D01*
X138250500Y-104579961D01*
X138254965Y-104534623D01*
X138266398Y-104496936D01*
X138284966Y-104462197D01*
X138309952Y-104431752D01*
X138340397Y-104406766D01*
X138375136Y-104388198D01*
X138412823Y-104376765D01*
X138458161Y-104372300D01*
X139544839Y-104372300D01*
X139590177Y-104376765D01*
X139590177Y-104376765D01*
G37*
G36*
X153395077Y-103975665D02*
X153432764Y-103987098D01*
X153467503Y-104005666D01*
X153497948Y-104030652D01*
X153522934Y-104061097D01*
X153541502Y-104095836D01*
X153552935Y-104133523D01*
X153557400Y-104178861D01*
X153557400Y-105015539D01*
X153552935Y-105060877D01*
X153541502Y-105098564D01*
X153522934Y-105133303D01*
X153497948Y-105163748D01*
X153467503Y-105188734D01*
X153432764Y-105207302D01*
X153395077Y-105218735D01*
X153349739Y-105223200D01*
X152263061Y-105223200D01*
X152217723Y-105218735D01*
X152180036Y-105207302D01*
X152145297Y-105188734D01*
X152114852Y-105163748D01*
X152089866Y-105133303D01*
X152071298Y-105098564D01*
X152059865Y-105060877D01*
X152055400Y-105015539D01*
X152055400Y-104178861D01*
X152059865Y-104133523D01*
X152071298Y-104095836D01*
X152089866Y-104061097D01*
X152114852Y-104030652D01*
X152145297Y-104005666D01*
X152180036Y-103987098D01*
X152217723Y-103975665D01*
X152263061Y-103971200D01*
X153349739Y-103971200D01*
X153395077Y-103975665D01*
X153395077Y-103975665D01*
G37*
G36*
X136026600Y-104045200D02*
X133924600Y-104045200D01*
X133924600Y-96068200D01*
X136026600Y-96068200D01*
X136026600Y-104045200D01*
X136026600Y-104045200D01*
G37*
G36*
X153395077Y-101925665D02*
X153432764Y-101937098D01*
X153467503Y-101955666D01*
X153497948Y-101980652D01*
X153522934Y-102011097D01*
X153541502Y-102045836D01*
X153552935Y-102083523D01*
X153557400Y-102128861D01*
X153557400Y-102965539D01*
X153552935Y-103010877D01*
X153541502Y-103048564D01*
X153522934Y-103083303D01*
X153497948Y-103113748D01*
X153467503Y-103138734D01*
X153432764Y-103157302D01*
X153395077Y-103168735D01*
X153349739Y-103173200D01*
X152263061Y-103173200D01*
X152217723Y-103168735D01*
X152180036Y-103157302D01*
X152145297Y-103138734D01*
X152114852Y-103113748D01*
X152089866Y-103083303D01*
X152071298Y-103048564D01*
X152059865Y-103010877D01*
X152055400Y-102965539D01*
X152055400Y-102128861D01*
X152059865Y-102083523D01*
X152071298Y-102045836D01*
X152089866Y-102011097D01*
X152114852Y-101980652D01*
X152145297Y-101955666D01*
X152180036Y-101937098D01*
X152217723Y-101925665D01*
X152263061Y-101921200D01*
X153349739Y-101921200D01*
X153395077Y-101925665D01*
X153395077Y-101925665D01*
G37*
G36*
X149125200Y-100067900D02*
X142873200Y-100067900D01*
X142873200Y-98365900D01*
X149125200Y-98365900D01*
X149125200Y-100067900D01*
X149125200Y-100067900D01*
G37*
G36*
X167173752Y-95495318D02*
X167173754Y-95495319D01*
X167173755Y-95495319D01*
X167547013Y-95649927D01*
X167740069Y-95778923D01*
X167882939Y-95874386D01*
X168168614Y-96160061D01*
X168168616Y-96160064D01*
X168393073Y-96495987D01*
X168547681Y-96869245D01*
X168547682Y-96869248D01*
X168593867Y-97101435D01*
X168626500Y-97265494D01*
X168626500Y-97669506D01*
X168547681Y-98065755D01*
X168393073Y-98439013D01*
X168393072Y-98439014D01*
X168168614Y-98774939D01*
X167882939Y-99060614D01*
X167882936Y-99060616D01*
X167547013Y-99285073D01*
X167173755Y-99439681D01*
X167173754Y-99439681D01*
X167173752Y-99439682D01*
X166777507Y-99518500D01*
X166373493Y-99518500D01*
X165977248Y-99439682D01*
X165977246Y-99439681D01*
X165977245Y-99439681D01*
X165603987Y-99285073D01*
X165268064Y-99060616D01*
X165268061Y-99060614D01*
X164982386Y-98774939D01*
X164757928Y-98439014D01*
X164757927Y-98439013D01*
X164603319Y-98065755D01*
X164524500Y-97669506D01*
X164524500Y-97265494D01*
X164557133Y-97101435D01*
X164603318Y-96869248D01*
X164603319Y-96869245D01*
X164757927Y-96495987D01*
X164982384Y-96160064D01*
X164982386Y-96160061D01*
X165268061Y-95874386D01*
X165410931Y-95778923D01*
X165603987Y-95649927D01*
X165977245Y-95495319D01*
X165977246Y-95495319D01*
X165977248Y-95495318D01*
X166373493Y-95416500D01*
X166777507Y-95416500D01*
X167173752Y-95495318D01*
X167173752Y-95495318D01*
G37*
G36*
X142008877Y-95621065D02*
X142046564Y-95632498D01*
X142081303Y-95651066D01*
X142111748Y-95676052D01*
X142136734Y-95706497D01*
X142155302Y-95741236D01*
X142166735Y-95778923D01*
X142171200Y-95824261D01*
X142171200Y-96910939D01*
X142166735Y-96956277D01*
X142155302Y-96993964D01*
X142136734Y-97028703D01*
X142111748Y-97059148D01*
X142081303Y-97084134D01*
X142046564Y-97102702D01*
X142008877Y-97114135D01*
X141963539Y-97118600D01*
X141126861Y-97118600D01*
X141081523Y-97114135D01*
X141043836Y-97102702D01*
X141009097Y-97084134D01*
X140978652Y-97059148D01*
X140953666Y-97028703D01*
X140935098Y-96993964D01*
X140923665Y-96956277D01*
X140919200Y-96910939D01*
X140919200Y-95824261D01*
X140923665Y-95778923D01*
X140935098Y-95741236D01*
X140953666Y-95706497D01*
X140978652Y-95676052D01*
X141009097Y-95651066D01*
X141043836Y-95632498D01*
X141081523Y-95621065D01*
X141126861Y-95616600D01*
X141963539Y-95616600D01*
X142008877Y-95621065D01*
X142008877Y-95621065D01*
G37*
G36*
X144058877Y-95621065D02*
X144096564Y-95632498D01*
X144131303Y-95651066D01*
X144161748Y-95676052D01*
X144186734Y-95706497D01*
X144205302Y-95741236D01*
X144216735Y-95778923D01*
X144221200Y-95824261D01*
X144221200Y-96910939D01*
X144216735Y-96956277D01*
X144205302Y-96993964D01*
X144186734Y-97028703D01*
X144161748Y-97059148D01*
X144131303Y-97084134D01*
X144096564Y-97102702D01*
X144058877Y-97114135D01*
X144013539Y-97118600D01*
X143176861Y-97118600D01*
X143131523Y-97114135D01*
X143093836Y-97102702D01*
X143059097Y-97084134D01*
X143028652Y-97059148D01*
X143003666Y-97028703D01*
X142985098Y-96993964D01*
X142973665Y-96956277D01*
X142969200Y-96910939D01*
X142969200Y-95824261D01*
X142973665Y-95778923D01*
X142985098Y-95741236D01*
X143003666Y-95706497D01*
X143028652Y-95676052D01*
X143059097Y-95651066D01*
X143093836Y-95632498D01*
X143131523Y-95621065D01*
X143176861Y-95616600D01*
X144013539Y-95616600D01*
X144058877Y-95621065D01*
X144058877Y-95621065D01*
G37*
G36*
X145949577Y-95608365D02*
X145987264Y-95619798D01*
X146022003Y-95638366D01*
X146052448Y-95663352D01*
X146077434Y-95693797D01*
X146096002Y-95728536D01*
X146107435Y-95766223D01*
X146111900Y-95811561D01*
X146111900Y-96898239D01*
X146107435Y-96943577D01*
X146096002Y-96981264D01*
X146077434Y-97016003D01*
X146052448Y-97046448D01*
X146022003Y-97071434D01*
X145987264Y-97090002D01*
X145949577Y-97101435D01*
X145904239Y-97105900D01*
X145067561Y-97105900D01*
X145022223Y-97101435D01*
X144984536Y-97090002D01*
X144949797Y-97071434D01*
X144919352Y-97046448D01*
X144894366Y-97016003D01*
X144875798Y-96981264D01*
X144864365Y-96943577D01*
X144859900Y-96898239D01*
X144859900Y-95811561D01*
X144864365Y-95766223D01*
X144875798Y-95728536D01*
X144894366Y-95693797D01*
X144919352Y-95663352D01*
X144949797Y-95638366D01*
X144984536Y-95619798D01*
X145022223Y-95608365D01*
X145067561Y-95603900D01*
X145904239Y-95603900D01*
X145949577Y-95608365D01*
X145949577Y-95608365D01*
G37*
G36*
X147999577Y-95608365D02*
X148037264Y-95619798D01*
X148072003Y-95638366D01*
X148102448Y-95663352D01*
X148127434Y-95693797D01*
X148146002Y-95728536D01*
X148157435Y-95766223D01*
X148161900Y-95811561D01*
X148161900Y-96898239D01*
X148157435Y-96943577D01*
X148146002Y-96981264D01*
X148127434Y-97016003D01*
X148102448Y-97046448D01*
X148072003Y-97071434D01*
X148037264Y-97090002D01*
X147999577Y-97101435D01*
X147954239Y-97105900D01*
X147117561Y-97105900D01*
X147072223Y-97101435D01*
X147034536Y-97090002D01*
X146999797Y-97071434D01*
X146969352Y-97046448D01*
X146944366Y-97016003D01*
X146925798Y-96981264D01*
X146914365Y-96943577D01*
X146909900Y-96898239D01*
X146909900Y-95811561D01*
X146914365Y-95766223D01*
X146925798Y-95728536D01*
X146944366Y-95693797D01*
X146969352Y-95663352D01*
X146999797Y-95638366D01*
X147034536Y-95619798D01*
X147072223Y-95608365D01*
X147117561Y-95603900D01*
X147954239Y-95603900D01*
X147999577Y-95608365D01*
X147999577Y-95608365D01*
G37*
G36*
X159852896Y-94653046D02*
X160025966Y-94724734D01*
X160181730Y-94828812D01*
X160314188Y-94961270D01*
X160418266Y-95117034D01*
X160489954Y-95290104D01*
X160526500Y-95473833D01*
X160526500Y-95661167D01*
X160489954Y-95844896D01*
X160418266Y-96017966D01*
X160314188Y-96173730D01*
X160181730Y-96306188D01*
X160025966Y-96410266D01*
X159852896Y-96481954D01*
X159669167Y-96518500D01*
X159481833Y-96518500D01*
X159298104Y-96481954D01*
X159125034Y-96410266D01*
X158969270Y-96306188D01*
X158836812Y-96173730D01*
X158732734Y-96017966D01*
X158661046Y-95844896D01*
X158624500Y-95661167D01*
X158624500Y-95473833D01*
X158661046Y-95290104D01*
X158732734Y-95117034D01*
X158836812Y-94961270D01*
X158969270Y-94828812D01*
X159125034Y-94724734D01*
X159298104Y-94653046D01*
X159481833Y-94616500D01*
X159669167Y-94616500D01*
X159852896Y-94653046D01*
X159852896Y-94653046D01*
G37*
G36*
X145949577Y-93462065D02*
X145987264Y-93473498D01*
X146022003Y-93492066D01*
X146052448Y-93517052D01*
X146077434Y-93547497D01*
X146096002Y-93582236D01*
X146107435Y-93619923D01*
X146111900Y-93665261D01*
X146111900Y-94751939D01*
X146107435Y-94797277D01*
X146096002Y-94834964D01*
X146077434Y-94869703D01*
X146052448Y-94900148D01*
X146022003Y-94925134D01*
X145987264Y-94943702D01*
X145949577Y-94955135D01*
X145904239Y-94959600D01*
X145067561Y-94959600D01*
X145022223Y-94955135D01*
X144984536Y-94943702D01*
X144949797Y-94925134D01*
X144919352Y-94900148D01*
X144894366Y-94869703D01*
X144875798Y-94834964D01*
X144864365Y-94797277D01*
X144859900Y-94751939D01*
X144859900Y-93665261D01*
X144864365Y-93619923D01*
X144875798Y-93582236D01*
X144894366Y-93547497D01*
X144919352Y-93517052D01*
X144949797Y-93492066D01*
X144984536Y-93473498D01*
X145022223Y-93462065D01*
X145067561Y-93457600D01*
X145904239Y-93457600D01*
X145949577Y-93462065D01*
X145949577Y-93462065D01*
G37*
G36*
X147999577Y-93462065D02*
X148037264Y-93473498D01*
X148072003Y-93492066D01*
X148102448Y-93517052D01*
X148127434Y-93547497D01*
X148146002Y-93582236D01*
X148157435Y-93619923D01*
X148161900Y-93665261D01*
X148161900Y-94751939D01*
X148157435Y-94797277D01*
X148146002Y-94834964D01*
X148127434Y-94869703D01*
X148102448Y-94900148D01*
X148072003Y-94925134D01*
X148037264Y-94943702D01*
X147999577Y-94955135D01*
X147954239Y-94959600D01*
X147117561Y-94959600D01*
X147072223Y-94955135D01*
X147034536Y-94943702D01*
X146999797Y-94925134D01*
X146969352Y-94900148D01*
X146944366Y-94869703D01*
X146925798Y-94834964D01*
X146914365Y-94797277D01*
X146909900Y-94751939D01*
X146909900Y-93665261D01*
X146914365Y-93619923D01*
X146925798Y-93582236D01*
X146944366Y-93547497D01*
X146969352Y-93517052D01*
X146999797Y-93492066D01*
X147034536Y-93473498D01*
X147072223Y-93462065D01*
X147117561Y-93457600D01*
X147954239Y-93457600D01*
X147999577Y-93462065D01*
X147999577Y-93462065D01*
G37*
G36*
X159852896Y-92153046D02*
X160025966Y-92224734D01*
X160181730Y-92328812D01*
X160314188Y-92461270D01*
X160418266Y-92617034D01*
X160489954Y-92790104D01*
X160526500Y-92973833D01*
X160526500Y-93161167D01*
X160489954Y-93344896D01*
X160418266Y-93517966D01*
X160314188Y-93673730D01*
X160181730Y-93806188D01*
X160025966Y-93910266D01*
X159852896Y-93981954D01*
X159669167Y-94018500D01*
X159481833Y-94018500D01*
X159298104Y-93981954D01*
X159125034Y-93910266D01*
X158969270Y-93806188D01*
X158836812Y-93673730D01*
X158732734Y-93517966D01*
X158661046Y-93344896D01*
X158624500Y-93161167D01*
X158624500Y-92973833D01*
X158661046Y-92790104D01*
X158732734Y-92617034D01*
X158836812Y-92461270D01*
X158969270Y-92328812D01*
X159125034Y-92224734D01*
X159298104Y-92153046D01*
X159481833Y-92116500D01*
X159669167Y-92116500D01*
X159852896Y-92153046D01*
X159852896Y-92153046D01*
G37*
G36*
X156709777Y-91979465D02*
X156747464Y-91990898D01*
X156782203Y-92009466D01*
X156812648Y-92034452D01*
X156837634Y-92064897D01*
X156856202Y-92099636D01*
X156867635Y-92137323D01*
X156872100Y-92182661D01*
X156872100Y-93019339D01*
X156867635Y-93064677D01*
X156856202Y-93102364D01*
X156837634Y-93137103D01*
X156812648Y-93167548D01*
X156782203Y-93192534D01*
X156747464Y-93211102D01*
X156709777Y-93222535D01*
X156664439Y-93227000D01*
X155577761Y-93227000D01*
X155532423Y-93222535D01*
X155494736Y-93211102D01*
X155459997Y-93192534D01*
X155429552Y-93167548D01*
X155404566Y-93137103D01*
X155385998Y-93102364D01*
X155374565Y-93064677D01*
X155370100Y-93019339D01*
X155370100Y-92182661D01*
X155374565Y-92137323D01*
X155385998Y-92099636D01*
X155404566Y-92064897D01*
X155429552Y-92034452D01*
X155459997Y-92009466D01*
X155494736Y-91990898D01*
X155532423Y-91979465D01*
X155577761Y-91975000D01*
X156664439Y-91975000D01*
X156709777Y-91979465D01*
X156709777Y-91979465D01*
G37*
G36*
X159852896Y-89653046D02*
X160025966Y-89724734D01*
X160181730Y-89828812D01*
X160314188Y-89961270D01*
X160418266Y-90117034D01*
X160489954Y-90290104D01*
X160526500Y-90473833D01*
X160526500Y-90661167D01*
X160489954Y-90844896D01*
X160418266Y-91017966D01*
X160314188Y-91173730D01*
X160181730Y-91306188D01*
X160025966Y-91410266D01*
X159852896Y-91481954D01*
X159669167Y-91518500D01*
X159481833Y-91518500D01*
X159298104Y-91481954D01*
X159125034Y-91410266D01*
X158969270Y-91306188D01*
X158836812Y-91173730D01*
X158732734Y-91017966D01*
X158661046Y-90844896D01*
X158624500Y-90661167D01*
X158624500Y-90473833D01*
X158661046Y-90290104D01*
X158732734Y-90117034D01*
X158836812Y-89961270D01*
X158969270Y-89828812D01*
X159125034Y-89724734D01*
X159298104Y-89653046D01*
X159481833Y-89616500D01*
X159669167Y-89616500D01*
X159852896Y-89653046D01*
X159852896Y-89653046D01*
G37*
G36*
X156709777Y-89929465D02*
X156747464Y-89940898D01*
X156782203Y-89959466D01*
X156812648Y-89984452D01*
X156837634Y-90014897D01*
X156856202Y-90049636D01*
X156867635Y-90087323D01*
X156872100Y-90132661D01*
X156872100Y-90969339D01*
X156867635Y-91014677D01*
X156856202Y-91052364D01*
X156837634Y-91087103D01*
X156812648Y-91117548D01*
X156782203Y-91142534D01*
X156747464Y-91161102D01*
X156709777Y-91172535D01*
X156664439Y-91177000D01*
X155577761Y-91177000D01*
X155532423Y-91172535D01*
X155494736Y-91161102D01*
X155459997Y-91142534D01*
X155429552Y-91117548D01*
X155404566Y-91087103D01*
X155385998Y-91052364D01*
X155374565Y-91014677D01*
X155370100Y-90969339D01*
X155370100Y-90132661D01*
X155374565Y-90087323D01*
X155385998Y-90049636D01*
X155404566Y-90014897D01*
X155429552Y-89984452D01*
X155459997Y-89959466D01*
X155494736Y-89940898D01*
X155532423Y-89929465D01*
X155577761Y-89925000D01*
X156664439Y-89925000D01*
X156709777Y-89929465D01*
X156709777Y-89929465D01*
G37*
G36*
X167173752Y-86695318D02*
X167173754Y-86695319D01*
X167173755Y-86695319D01*
X167547013Y-86849927D01*
X167622479Y-86900352D01*
X167882939Y-87074386D01*
X168168614Y-87360061D01*
X168168616Y-87360064D01*
X168393073Y-87695987D01*
X168547681Y-88069245D01*
X168547682Y-88069248D01*
X168611901Y-88392100D01*
X168626500Y-88465494D01*
X168626500Y-88869506D01*
X168547681Y-89265755D01*
X168393073Y-89639013D01*
X168188139Y-89945718D01*
X168168614Y-89974939D01*
X167882939Y-90260614D01*
X167882936Y-90260616D01*
X167547013Y-90485073D01*
X167173755Y-90639681D01*
X167173754Y-90639681D01*
X167173752Y-90639682D01*
X166777507Y-90718500D01*
X166373493Y-90718500D01*
X165977248Y-90639682D01*
X165977246Y-90639681D01*
X165977245Y-90639681D01*
X165603987Y-90485073D01*
X165268064Y-90260616D01*
X165268061Y-90260614D01*
X164982386Y-89974939D01*
X164962861Y-89945718D01*
X164757927Y-89639013D01*
X164603319Y-89265755D01*
X164524500Y-88869506D01*
X164524500Y-88465494D01*
X164539099Y-88392100D01*
X164603318Y-88069248D01*
X164603319Y-88069245D01*
X164757927Y-87695987D01*
X164982384Y-87360064D01*
X164982386Y-87360061D01*
X165268061Y-87074386D01*
X165528521Y-86900352D01*
X165603987Y-86849927D01*
X165977245Y-86695319D01*
X165977246Y-86695319D01*
X165977248Y-86695318D01*
X166373493Y-86616500D01*
X166777507Y-86616500D01*
X167173752Y-86695318D01*
X167173752Y-86695318D01*
G37*
G36*
X138000900Y-88392100D02*
X134398900Y-88392100D01*
X134398900Y-86690100D01*
X138000900Y-86690100D01*
X138000900Y-88392100D01*
X138000900Y-88392100D01*
G37*
G36*
X143400900Y-88392100D02*
X139798900Y-88392100D01*
X139798900Y-86690100D01*
X143400900Y-86690100D01*
X143400900Y-88392100D01*
X143400900Y-88392100D01*
G37*
G36*
X146500977Y-86845365D02*
X146538664Y-86856798D01*
X146573403Y-86875366D01*
X146603848Y-86900352D01*
X146628834Y-86930797D01*
X146647402Y-86965536D01*
X146658835Y-87003223D01*
X146663300Y-87048561D01*
X146663300Y-88135239D01*
X146658835Y-88180577D01*
X146647402Y-88218264D01*
X146628834Y-88253003D01*
X146603848Y-88283448D01*
X146573403Y-88308434D01*
X146538664Y-88327002D01*
X146500977Y-88338435D01*
X146455639Y-88342900D01*
X145618961Y-88342900D01*
X145573623Y-88338435D01*
X145535936Y-88327002D01*
X145501197Y-88308434D01*
X145470752Y-88283448D01*
X145445766Y-88253003D01*
X145427198Y-88218264D01*
X145415765Y-88180577D01*
X145411300Y-88135239D01*
X145411300Y-87048561D01*
X145415765Y-87003223D01*
X145427198Y-86965536D01*
X145445766Y-86930797D01*
X145470752Y-86900352D01*
X145501197Y-86875366D01*
X145535936Y-86856798D01*
X145573623Y-86845365D01*
X145618961Y-86840900D01*
X146455639Y-86840900D01*
X146500977Y-86845365D01*
X146500977Y-86845365D01*
G37*
G36*
X148550977Y-86845365D02*
X148588664Y-86856798D01*
X148623403Y-86875366D01*
X148653848Y-86900352D01*
X148678834Y-86930797D01*
X148697402Y-86965536D01*
X148708835Y-87003223D01*
X148713300Y-87048561D01*
X148713300Y-88135239D01*
X148708835Y-88180577D01*
X148697402Y-88218264D01*
X148678834Y-88253003D01*
X148653848Y-88283448D01*
X148623403Y-88308434D01*
X148588664Y-88327002D01*
X148550977Y-88338435D01*
X148505639Y-88342900D01*
X147668961Y-88342900D01*
X147623623Y-88338435D01*
X147585936Y-88327002D01*
X147551197Y-88308434D01*
X147520752Y-88283448D01*
X147495766Y-88253003D01*
X147477198Y-88218264D01*
X147465765Y-88180577D01*
X147461300Y-88135239D01*
X147461300Y-87048561D01*
X147465765Y-87003223D01*
X147477198Y-86965536D01*
X147495766Y-86930797D01*
X147520752Y-86900352D01*
X147551197Y-86875366D01*
X147585936Y-86856798D01*
X147623623Y-86845365D01*
X147668961Y-86840900D01*
X148505639Y-86840900D01*
X148550977Y-86845365D01*
X148550977Y-86845365D01*
G37*
G36*
X155528500Y-85412100D02*
X149026500Y-85412100D01*
X149026500Y-79510100D01*
X155528500Y-79510100D01*
X155528500Y-85412100D01*
X155528500Y-85412100D01*
G37*
G36*
X147128500Y-85392100D02*
X144826500Y-85392100D01*
X144826500Y-84090100D01*
X147128500Y-84090100D01*
X147128500Y-85392100D01*
X147128500Y-85392100D01*
G37*
G36*
X167046752Y-78299518D02*
X167046754Y-78299519D01*
X167046755Y-78299519D01*
X167420013Y-78454127D01*
X167662871Y-78616400D01*
X167755939Y-78678586D01*
X168041614Y-78964261D01*
X168041616Y-78964264D01*
X168266073Y-79300187D01*
X168420681Y-79673445D01*
X168499500Y-80069694D01*
X168499500Y-80473706D01*
X168420681Y-80869955D01*
X168266073Y-81243213D01*
X168044643Y-81574605D01*
X168041614Y-81579139D01*
X167755939Y-81864814D01*
X167755936Y-81864816D01*
X167420013Y-82089273D01*
X167046755Y-82243881D01*
X167046754Y-82243881D01*
X167046752Y-82243882D01*
X166650507Y-82322700D01*
X166246493Y-82322700D01*
X165850248Y-82243882D01*
X165850246Y-82243881D01*
X165850245Y-82243881D01*
X165476987Y-82089273D01*
X165141064Y-81864816D01*
X165141061Y-81864814D01*
X164855386Y-81579139D01*
X164852357Y-81574605D01*
X164630927Y-81243213D01*
X164476319Y-80869955D01*
X164397500Y-80473706D01*
X164397500Y-80069694D01*
X164476319Y-79673445D01*
X164630927Y-79300187D01*
X164855384Y-78964264D01*
X164855386Y-78964261D01*
X165141061Y-78678586D01*
X165234129Y-78616400D01*
X165476987Y-78454127D01*
X165850245Y-78299519D01*
X165850246Y-78299519D01*
X165850248Y-78299518D01*
X166246493Y-78220700D01*
X166650507Y-78220700D01*
X167046752Y-78299518D01*
X167046752Y-78299518D01*
G37*
G36*
X139769466Y-78633095D02*
X139926558Y-78680748D01*
X140071330Y-78758131D01*
X140198228Y-78862272D01*
X140302369Y-78989170D01*
X140379752Y-79133942D01*
X140427405Y-79291034D01*
X140444100Y-79460540D01*
X140444100Y-81374260D01*
X140427405Y-81543766D01*
X140379752Y-81700858D01*
X140302369Y-81845630D01*
X140198228Y-81972528D01*
X140071330Y-82076669D01*
X139926558Y-82154052D01*
X139769466Y-82201705D01*
X139599960Y-82218400D01*
X137686240Y-82218400D01*
X137516734Y-82201705D01*
X137359642Y-82154052D01*
X137214870Y-82076669D01*
X137087972Y-81972528D01*
X136983831Y-81845630D01*
X136906448Y-81700858D01*
X136858795Y-81543766D01*
X136842100Y-81374260D01*
X136842100Y-79460540D01*
X136858795Y-79291034D01*
X136906448Y-79133942D01*
X136983831Y-78989170D01*
X137087972Y-78862272D01*
X137214870Y-78758131D01*
X137359642Y-78680748D01*
X137516734Y-78633095D01*
X137686240Y-78616400D01*
X139599960Y-78616400D01*
X139769466Y-78633095D01*
X139769466Y-78633095D01*
G37*
G36*
X147128500Y-80832100D02*
X144826500Y-80832100D01*
X144826500Y-79530100D01*
X147128500Y-79530100D01*
X147128500Y-80832100D01*
X147128500Y-80832100D01*
G37*
G36*
X159725896Y-77457246D02*
X159898966Y-77528934D01*
X160054730Y-77633012D01*
X160187188Y-77765470D01*
X160291266Y-77921234D01*
X160362954Y-78094304D01*
X160399500Y-78278033D01*
X160399500Y-78465367D01*
X160362954Y-78649096D01*
X160291266Y-78822166D01*
X160187188Y-78977930D01*
X160054730Y-79110388D01*
X159898966Y-79214466D01*
X159725896Y-79286154D01*
X159542167Y-79322700D01*
X159354833Y-79322700D01*
X159171104Y-79286154D01*
X158998034Y-79214466D01*
X158842270Y-79110388D01*
X158709812Y-78977930D01*
X158605734Y-78822166D01*
X158534046Y-78649096D01*
X158497500Y-78465367D01*
X158497500Y-78278033D01*
X158534046Y-78094304D01*
X158605734Y-77921234D01*
X158709812Y-77765470D01*
X158842270Y-77633012D01*
X158998034Y-77528934D01*
X159171104Y-77457246D01*
X159354833Y-77420700D01*
X159542167Y-77420700D01*
X159725896Y-77457246D01*
X159725896Y-77457246D01*
G37*
G36*
X136620078Y-73930693D02*
X136753727Y-73971235D01*
X136876882Y-74037062D01*
X136984839Y-74125661D01*
X137073438Y-74233618D01*
X137139265Y-74356773D01*
X137179807Y-74490422D01*
X137194100Y-74635540D01*
X137194100Y-76799260D01*
X137179807Y-76944378D01*
X137139265Y-77078027D01*
X137073438Y-77201182D01*
X136984839Y-77309139D01*
X136876882Y-77397738D01*
X136753727Y-77463565D01*
X136620078Y-77504107D01*
X136474960Y-77518400D01*
X134811240Y-77518400D01*
X134666122Y-77504107D01*
X134532473Y-77463565D01*
X134409318Y-77397738D01*
X134301361Y-77309139D01*
X134212762Y-77201182D01*
X134146935Y-77078027D01*
X134106393Y-76944378D01*
X134092100Y-76799260D01*
X134092100Y-74635540D01*
X134106393Y-74490422D01*
X134146935Y-74356773D01*
X134212762Y-74233618D01*
X134301361Y-74125661D01*
X134409318Y-74037062D01*
X134532473Y-73971235D01*
X134666122Y-73930693D01*
X134811240Y-73916400D01*
X136474960Y-73916400D01*
X136620078Y-73930693D01*
X136620078Y-73930693D01*
G37*
G36*
X143444100Y-77518400D02*
X139842100Y-77518400D01*
X139842100Y-73916400D01*
X143444100Y-73916400D01*
X143444100Y-77518400D01*
X143444100Y-77518400D01*
G37*
G36*
X149741996Y-77513071D02*
X148039996Y-77513071D01*
X148039996Y-73911071D01*
X149741996Y-73911071D01*
X149741996Y-77513071D01*
X149741996Y-77513071D01*
G37*
G36*
X159725896Y-74957246D02*
X159898966Y-75028934D01*
X160054730Y-75133012D01*
X160187188Y-75265470D01*
X160291266Y-75421234D01*
X160362954Y-75594304D01*
X160399500Y-75778033D01*
X160399500Y-75965367D01*
X160362954Y-76149096D01*
X160291266Y-76322166D01*
X160187188Y-76477930D01*
X160054730Y-76610388D01*
X159898966Y-76714466D01*
X159725896Y-76786154D01*
X159542167Y-76822700D01*
X159354833Y-76822700D01*
X159171104Y-76786154D01*
X158998034Y-76714466D01*
X158842270Y-76610388D01*
X158709812Y-76477930D01*
X158605734Y-76322166D01*
X158534046Y-76149096D01*
X158497500Y-75965367D01*
X158497500Y-75778033D01*
X158534046Y-75594304D01*
X158605734Y-75421234D01*
X158709812Y-75265470D01*
X158842270Y-75133012D01*
X158998034Y-75028934D01*
X159171104Y-74957246D01*
X159354833Y-74920700D01*
X159542167Y-74920700D01*
X159725896Y-74957246D01*
X159725896Y-74957246D01*
G37*
G36*
X156506577Y-74847165D02*
X156544264Y-74858598D01*
X156579003Y-74877166D01*
X156609448Y-74902152D01*
X156634434Y-74932597D01*
X156653002Y-74967336D01*
X156664435Y-75005023D01*
X156668900Y-75050361D01*
X156668900Y-75887039D01*
X156664435Y-75932377D01*
X156653002Y-75970064D01*
X156634434Y-76004803D01*
X156609448Y-76035248D01*
X156579003Y-76060234D01*
X156544264Y-76078802D01*
X156506577Y-76090235D01*
X156461239Y-76094700D01*
X155374561Y-76094700D01*
X155329223Y-76090235D01*
X155291536Y-76078802D01*
X155256797Y-76060234D01*
X155226352Y-76035248D01*
X155201366Y-76004803D01*
X155182798Y-75970064D01*
X155171365Y-75932377D01*
X155166900Y-75887039D01*
X155166900Y-75050361D01*
X155171365Y-75005023D01*
X155182798Y-74967336D01*
X155201366Y-74932597D01*
X155226352Y-74902152D01*
X155256797Y-74877166D01*
X155291536Y-74858598D01*
X155329223Y-74847165D01*
X155374561Y-74842700D01*
X156461239Y-74842700D01*
X156506577Y-74847165D01*
X156506577Y-74847165D01*
G37*
G36*
X159725896Y-72457246D02*
X159898966Y-72528934D01*
X160054730Y-72633012D01*
X160187188Y-72765470D01*
X160291266Y-72921234D01*
X160362954Y-73094304D01*
X160399500Y-73278033D01*
X160399500Y-73465367D01*
X160362954Y-73649096D01*
X160291266Y-73822166D01*
X160187188Y-73977930D01*
X160054730Y-74110388D01*
X159898966Y-74214466D01*
X159725896Y-74286154D01*
X159542167Y-74322700D01*
X159354833Y-74322700D01*
X159171104Y-74286154D01*
X158998034Y-74214466D01*
X158842270Y-74110388D01*
X158709812Y-73977930D01*
X158605734Y-73822166D01*
X158534046Y-73649096D01*
X158497500Y-73465367D01*
X158497500Y-73278033D01*
X158534046Y-73094304D01*
X158605734Y-72921234D01*
X158709812Y-72765470D01*
X158842270Y-72633012D01*
X158998034Y-72528934D01*
X159171104Y-72457246D01*
X159354833Y-72420700D01*
X159542167Y-72420700D01*
X159725896Y-72457246D01*
X159725896Y-72457246D01*
G37*
G36*
X156506577Y-72797165D02*
X156544264Y-72808598D01*
X156579003Y-72827166D01*
X156609448Y-72852152D01*
X156634434Y-72882597D01*
X156653002Y-72917336D01*
X156664435Y-72955023D01*
X156668900Y-73000361D01*
X156668900Y-73837039D01*
X156664435Y-73882377D01*
X156653002Y-73920064D01*
X156634434Y-73954803D01*
X156609448Y-73985248D01*
X156579003Y-74010234D01*
X156544264Y-74028802D01*
X156506577Y-74040235D01*
X156461239Y-74044700D01*
X155374561Y-74044700D01*
X155329223Y-74040235D01*
X155291536Y-74028802D01*
X155256797Y-74010234D01*
X155226352Y-73985248D01*
X155201366Y-73954803D01*
X155182798Y-73920064D01*
X155171365Y-73882377D01*
X155166900Y-73837039D01*
X155166900Y-73000361D01*
X155171365Y-72955023D01*
X155182798Y-72917336D01*
X155201366Y-72882597D01*
X155226352Y-72852152D01*
X155256797Y-72827166D01*
X155291536Y-72808598D01*
X155329223Y-72797165D01*
X155374561Y-72792700D01*
X156461239Y-72792700D01*
X156506577Y-72797165D01*
X156506577Y-72797165D01*
G37*
G36*
X167046752Y-69499518D02*
X167046754Y-69499519D01*
X167046755Y-69499519D01*
X167420013Y-69654127D01*
X167420014Y-69654128D01*
X167755939Y-69878586D01*
X168041614Y-70164261D01*
X168041616Y-70164264D01*
X168266073Y-70500187D01*
X168420681Y-70873445D01*
X168499500Y-71269694D01*
X168499500Y-71673706D01*
X168420681Y-72069955D01*
X168266073Y-72443213D01*
X168208796Y-72528934D01*
X168041614Y-72779139D01*
X167755939Y-73064814D01*
X167755936Y-73064816D01*
X167420013Y-73289273D01*
X167046755Y-73443881D01*
X167046754Y-73443881D01*
X167046752Y-73443882D01*
X166650507Y-73522700D01*
X166246493Y-73522700D01*
X165850248Y-73443882D01*
X165850246Y-73443881D01*
X165850245Y-73443881D01*
X165476987Y-73289273D01*
X165141064Y-73064816D01*
X165141061Y-73064814D01*
X164855386Y-72779139D01*
X164688204Y-72528934D01*
X164630927Y-72443213D01*
X164476319Y-72069955D01*
X164397500Y-71673706D01*
X164397500Y-71269694D01*
X164476319Y-70873445D01*
X164630927Y-70500187D01*
X164855384Y-70164264D01*
X164855386Y-70164261D01*
X165141061Y-69878586D01*
X165476986Y-69654128D01*
X165476987Y-69654127D01*
X165850245Y-69499519D01*
X165850246Y-69499519D01*
X165850248Y-69499518D01*
X166246493Y-69420700D01*
X166650507Y-69420700D01*
X167046752Y-69499518D01*
X167046752Y-69499518D01*
G37*
G36*
X149741996Y-72113071D02*
X148039996Y-72113071D01*
X148039996Y-68511071D01*
X149741996Y-68511071D01*
X149741996Y-72113071D01*
X149741996Y-72113071D01*
G37*
M02*
