G04 #@! TF.GenerationSoftware,KiCad,Pcbnew,5.0.2-bee76a0~70~ubuntu18.04.1*
G04 #@! TF.CreationDate,2018-12-03T19:26:52-05:00*
G04 #@! TF.ProjectId,LEDStuff,4c454453-7475-4666-962e-6b696361645f,rev?*
G04 #@! TF.SameCoordinates,Original*
G04 #@! TF.FileFunction,Copper,L2,Bot*
G04 #@! TF.FilePolarity,Positive*
%FSLAX46Y46*%
G04 Gerber Fmt 4.6, Leading zero omitted, Abs format (unit mm)*
G04 Created by KiCad (PCBNEW 5.0.2-bee76a0~70~ubuntu18.04.1) date Mon 03 Dec 2018 07:26:52 PM EST*
%MOMM*%
%LPD*%
G01*
G04 APERTURE LIST*
G04 #@! TA.AperFunction,ComponentPad*
%ADD10R,3.500000X3.500000*%
G04 #@! TD*
G04 #@! TA.AperFunction,Conductor*
%ADD11C,0.100000*%
G04 #@! TD*
G04 #@! TA.AperFunction,ComponentPad*
%ADD12C,3.000000*%
G04 #@! TD*
G04 #@! TA.AperFunction,ComponentPad*
%ADD13C,3.500000*%
G04 #@! TD*
G04 #@! TA.AperFunction,ComponentPad*
%ADD14R,0.850000X0.850000*%
G04 #@! TD*
G04 #@! TA.AperFunction,ComponentPad*
%ADD15O,0.850000X0.850000*%
G04 #@! TD*
G04 #@! TA.AperFunction,ComponentPad*
%ADD16C,1.800000*%
G04 #@! TD*
G04 #@! TA.AperFunction,WasherPad*
%ADD17C,4.000000*%
G04 #@! TD*
G04 #@! TA.AperFunction,ViaPad*
%ADD18C,0.800000*%
G04 #@! TD*
G04 #@! TA.AperFunction,Conductor*
%ADD19C,0.400000*%
G04 #@! TD*
G04 #@! TA.AperFunction,Conductor*
%ADD20C,0.250000*%
G04 #@! TD*
G04 #@! TA.AperFunction,Conductor*
%ADD21C,0.254000*%
G04 #@! TD*
G04 APERTURE END LIST*
D10*
G04 #@! TO.P,J1,1*
G04 #@! TO.N,+12V*
X141643100Y-75717400D03*
D11*
G04 #@! TD*
G04 #@! TO.N,GND*
G04 #@! TO.C,J1*
G36*
X136466613Y-73971011D02*
X136539418Y-73981811D01*
X136610814Y-73999695D01*
X136680113Y-74024490D01*
X136746648Y-74055959D01*
X136809778Y-74093798D01*
X136868895Y-74137642D01*
X136923430Y-74187070D01*
X136972858Y-74241605D01*
X137016702Y-74300722D01*
X137054541Y-74363852D01*
X137086010Y-74430387D01*
X137110805Y-74499686D01*
X137128689Y-74571082D01*
X137139489Y-74643887D01*
X137143100Y-74717400D01*
X137143100Y-76717400D01*
X137139489Y-76790913D01*
X137128689Y-76863718D01*
X137110805Y-76935114D01*
X137086010Y-77004413D01*
X137054541Y-77070948D01*
X137016702Y-77134078D01*
X136972858Y-77193195D01*
X136923430Y-77247730D01*
X136868895Y-77297158D01*
X136809778Y-77341002D01*
X136746648Y-77378841D01*
X136680113Y-77410310D01*
X136610814Y-77435105D01*
X136539418Y-77452989D01*
X136466613Y-77463789D01*
X136393100Y-77467400D01*
X134893100Y-77467400D01*
X134819587Y-77463789D01*
X134746782Y-77452989D01*
X134675386Y-77435105D01*
X134606087Y-77410310D01*
X134539552Y-77378841D01*
X134476422Y-77341002D01*
X134417305Y-77297158D01*
X134362770Y-77247730D01*
X134313342Y-77193195D01*
X134269498Y-77134078D01*
X134231659Y-77070948D01*
X134200190Y-77004413D01*
X134175395Y-76935114D01*
X134157511Y-76863718D01*
X134146711Y-76790913D01*
X134143100Y-76717400D01*
X134143100Y-74717400D01*
X134146711Y-74643887D01*
X134157511Y-74571082D01*
X134175395Y-74499686D01*
X134200190Y-74430387D01*
X134231659Y-74363852D01*
X134269498Y-74300722D01*
X134313342Y-74241605D01*
X134362770Y-74187070D01*
X134417305Y-74137642D01*
X134476422Y-74093798D01*
X134539552Y-74055959D01*
X134606087Y-74024490D01*
X134675386Y-73999695D01*
X134746782Y-73981811D01*
X134819587Y-73971011D01*
X134893100Y-73967400D01*
X136393100Y-73967400D01*
X136466613Y-73971011D01*
X136466613Y-73971011D01*
G37*
D12*
G04 #@! TO.P,J1,2*
G04 #@! TO.N,GND*
X135643100Y-75717400D03*
D11*
G04 #@! TD*
G04 #@! TO.N,Net-(J1-Pad3)*
G04 #@! TO.C,J1*
G36*
X139603865Y-78671613D02*
X139688804Y-78684213D01*
X139772099Y-78705077D01*
X139852948Y-78734005D01*
X139930572Y-78770719D01*
X140004224Y-78814864D01*
X140073194Y-78866016D01*
X140136818Y-78923682D01*
X140194484Y-78987306D01*
X140245636Y-79056276D01*
X140289781Y-79129928D01*
X140326495Y-79207552D01*
X140355423Y-79288401D01*
X140376287Y-79371696D01*
X140388887Y-79456635D01*
X140393100Y-79542400D01*
X140393100Y-81292400D01*
X140388887Y-81378165D01*
X140376287Y-81463104D01*
X140355423Y-81546399D01*
X140326495Y-81627248D01*
X140289781Y-81704872D01*
X140245636Y-81778524D01*
X140194484Y-81847494D01*
X140136818Y-81911118D01*
X140073194Y-81968784D01*
X140004224Y-82019936D01*
X139930572Y-82064081D01*
X139852948Y-82100795D01*
X139772099Y-82129723D01*
X139688804Y-82150587D01*
X139603865Y-82163187D01*
X139518100Y-82167400D01*
X137768100Y-82167400D01*
X137682335Y-82163187D01*
X137597396Y-82150587D01*
X137514101Y-82129723D01*
X137433252Y-82100795D01*
X137355628Y-82064081D01*
X137281976Y-82019936D01*
X137213006Y-81968784D01*
X137149382Y-81911118D01*
X137091716Y-81847494D01*
X137040564Y-81778524D01*
X136996419Y-81704872D01*
X136959705Y-81627248D01*
X136930777Y-81546399D01*
X136909913Y-81463104D01*
X136897313Y-81378165D01*
X136893100Y-81292400D01*
X136893100Y-79542400D01*
X136897313Y-79456635D01*
X136909913Y-79371696D01*
X136930777Y-79288401D01*
X136959705Y-79207552D01*
X136996419Y-79129928D01*
X137040564Y-79056276D01*
X137091716Y-78987306D01*
X137149382Y-78923682D01*
X137213006Y-78866016D01*
X137281976Y-78814864D01*
X137355628Y-78770719D01*
X137433252Y-78734005D01*
X137514101Y-78705077D01*
X137597396Y-78684213D01*
X137682335Y-78671613D01*
X137768100Y-78667400D01*
X139518100Y-78667400D01*
X139603865Y-78671613D01*
X139603865Y-78671613D01*
G37*
D13*
G04 #@! TO.P,J1,3*
G04 #@! TO.N,Net-(J1-Pad3)*
X138643100Y-80417400D03*
G04 #@! TD*
D14*
G04 #@! TO.P,J2,1*
G04 #@! TO.N,/MISO*
X150279100Y-112712500D03*
D15*
G04 #@! TO.P,J2,2*
G04 #@! TO.N,+5V*
X149279100Y-112712500D03*
G04 #@! TO.P,J2,3*
G04 #@! TO.N,/SCK*
X150279100Y-111712500D03*
G04 #@! TO.P,J2,4*
G04 #@! TO.N,/GREEN_PWM_OUT*
X149279100Y-111712500D03*
G04 #@! TO.P,J2,5*
G04 #@! TO.N,/RESET*
X150279100Y-110712500D03*
G04 #@! TO.P,J2,6*
G04 #@! TO.N,GND*
X149279100Y-110712500D03*
G04 #@! TD*
D14*
G04 #@! TO.P,J3,1*
G04 #@! TO.N,+12V*
X148107400Y-121373900D03*
D15*
G04 #@! TO.P,J3,2*
G04 #@! TO.N,/GREEN_LED_OUT*
X147107400Y-121373900D03*
G04 #@! TO.P,J3,3*
G04 #@! TO.N,/RED_LED_OUT*
X146107400Y-121373900D03*
G04 #@! TO.P,J3,4*
G04 #@! TO.N,/BLUE_LED_OUT*
X145107400Y-121373900D03*
G04 #@! TD*
D16*
G04 #@! TO.P,RV1,3*
G04 #@! TO.N,GND*
X159448500Y-73371700D03*
G04 #@! TO.P,RV1,2*
G04 #@! TO.N,/RED_POT*
X159448500Y-75871700D03*
G04 #@! TO.P,RV1,1*
G04 #@! TO.N,+5V*
X159448500Y-78371700D03*
D17*
G04 #@! TO.P,RV1,*
G04 #@! TO.N,*
X166448500Y-71471700D03*
X166448500Y-80271700D03*
G04 #@! TD*
G04 #@! TO.P,RV2,*
G04 #@! TO.N,*
X166575500Y-97467500D03*
X166575500Y-88667500D03*
D16*
G04 #@! TO.P,RV2,1*
G04 #@! TO.N,+5V*
X159575500Y-95567500D03*
G04 #@! TO.P,RV2,2*
G04 #@! TO.N,/GREEN_POT*
X159575500Y-93067500D03*
G04 #@! TO.P,RV2,3*
G04 #@! TO.N,GND*
X159575500Y-90567500D03*
G04 #@! TD*
G04 #@! TO.P,RV3,3*
G04 #@! TO.N,GND*
X159575500Y-108411000D03*
G04 #@! TO.P,RV3,2*
G04 #@! TO.N,/BLUE_POT*
X159575500Y-110911000D03*
G04 #@! TO.P,RV3,1*
G04 #@! TO.N,+5V*
X159575500Y-113411000D03*
D17*
G04 #@! TO.P,RV3,*
G04 #@! TO.N,*
X166575500Y-106511000D03*
X166575500Y-115311000D03*
G04 #@! TD*
D18*
G04 #@! TO.N,GND*
X139166600Y-102209600D03*
X145415000Y-114160300D03*
X147662900Y-114439700D03*
X147726400Y-102882700D03*
G04 #@! TO.N,+5V*
X145580100Y-103085900D03*
X142405100Y-92316300D03*
X151454302Y-90284300D03*
G04 #@! TO.N,/RESET*
X149313900Y-96418400D03*
G04 #@! TO.N,/RED_POT*
X152971500Y-100863400D03*
G04 #@! TO.N,/GREEN_POT*
X151930100Y-100101400D03*
G04 #@! TO.N,/MISO*
X150241000Y-108978700D03*
G04 #@! TD*
D19*
G04 #@! TO.N,+5V*
X145980099Y-102685901D02*
X145980099Y-95891299D01*
X145580100Y-103085900D02*
X145980099Y-102685901D01*
X145980099Y-95891299D02*
X142405100Y-92316300D01*
X145580100Y-103651585D02*
X145580100Y-103085900D01*
X145580100Y-109614540D02*
X145580100Y-103651585D01*
X148678060Y-112712500D02*
X145580100Y-109614540D01*
X149279100Y-112712500D02*
X148678060Y-112712500D01*
D20*
G04 #@! TO.N,/RESET*
X149313900Y-109124602D02*
X149313900Y-96418400D01*
X150279100Y-110712500D02*
X150279100Y-110089802D01*
X150279100Y-110089802D02*
X149313900Y-109124602D01*
G04 #@! TO.N,/RED_POT*
X156640601Y-100463401D02*
X162420300Y-94683702D01*
X152971500Y-100863400D02*
X153371499Y-100463401D01*
X153371499Y-100463401D02*
X156640601Y-100463401D01*
X162420300Y-78843500D02*
X159448500Y-75871700D01*
X162420300Y-94683702D02*
X162420300Y-78843500D01*
G04 #@! TO.N,/GREEN_POT*
X158964000Y-93067500D02*
X159575500Y-93067500D01*
X151930100Y-100101400D02*
X158964000Y-93067500D01*
G04 #@! TO.N,/MISO*
X150806685Y-108978700D02*
X152146000Y-110318015D01*
X150241000Y-108978700D02*
X150806685Y-108978700D01*
X150954100Y-112712500D02*
X150279100Y-112712500D01*
X152146000Y-111520600D02*
X150954100Y-112712500D01*
X152146000Y-110318015D02*
X152146000Y-111520600D01*
G04 #@! TD*
D21*
G04 #@! TO.N,GND*
G36*
X172086201Y-122657800D02*
X131583500Y-122657800D01*
X131583500Y-121373900D01*
X144026634Y-121373900D01*
X144108902Y-121787491D01*
X144343183Y-122138117D01*
X144693809Y-122372398D01*
X145003002Y-122433900D01*
X145211798Y-122433900D01*
X145520991Y-122372398D01*
X145607400Y-122314661D01*
X145693809Y-122372398D01*
X146003002Y-122433900D01*
X146211798Y-122433900D01*
X146520991Y-122372398D01*
X146607400Y-122314661D01*
X146693809Y-122372398D01*
X147003002Y-122433900D01*
X147211798Y-122433900D01*
X147426006Y-122391292D01*
X147434635Y-122397057D01*
X147682400Y-122446340D01*
X148532400Y-122446340D01*
X148780165Y-122397057D01*
X148990209Y-122256709D01*
X149130557Y-122046665D01*
X149179840Y-121798900D01*
X149179840Y-120948900D01*
X149130557Y-120701135D01*
X148990209Y-120491091D01*
X148780165Y-120350743D01*
X148532400Y-120301460D01*
X147682400Y-120301460D01*
X147434635Y-120350743D01*
X147426006Y-120356508D01*
X147211798Y-120313900D01*
X147003002Y-120313900D01*
X146693809Y-120375402D01*
X146607400Y-120433139D01*
X146520991Y-120375402D01*
X146211798Y-120313900D01*
X146003002Y-120313900D01*
X145693809Y-120375402D01*
X145607400Y-120433139D01*
X145520991Y-120375402D01*
X145211798Y-120313900D01*
X145003002Y-120313900D01*
X144693809Y-120375402D01*
X144343183Y-120609683D01*
X144108902Y-120960309D01*
X144026634Y-121373900D01*
X131583500Y-121373900D01*
X131583500Y-92110426D01*
X141370100Y-92110426D01*
X141370100Y-92522174D01*
X141527669Y-92902580D01*
X141818820Y-93193731D01*
X142199226Y-93351300D01*
X142259233Y-93351300D01*
X145145100Y-96237168D01*
X145145099Y-102145807D01*
X144993820Y-102208469D01*
X144702669Y-102499620D01*
X144545100Y-102880026D01*
X144545100Y-103291774D01*
X144702669Y-103672180D01*
X144745100Y-103714611D01*
X144745100Y-103733821D01*
X144745101Y-103733826D01*
X144745100Y-109532307D01*
X144728743Y-109614540D01*
X144745100Y-109696773D01*
X144745100Y-109696776D01*
X144793548Y-109940340D01*
X144978099Y-110216541D01*
X145047820Y-110263127D01*
X148029475Y-113244783D01*
X148076059Y-113314501D01*
X148352259Y-113499052D01*
X148595823Y-113547500D01*
X148595826Y-113547500D01*
X148631410Y-113554578D01*
X148865509Y-113710998D01*
X149174702Y-113772500D01*
X149383498Y-113772500D01*
X149597706Y-113729892D01*
X149606335Y-113735657D01*
X149854100Y-113784940D01*
X150704100Y-113784940D01*
X150951865Y-113735657D01*
X151161909Y-113595309D01*
X151291818Y-113400887D01*
X151502029Y-113260429D01*
X151544431Y-113196970D01*
X152630473Y-112110929D01*
X152693929Y-112068529D01*
X152861904Y-111817137D01*
X152906000Y-111595452D01*
X152906000Y-111595448D01*
X152920888Y-111520601D01*
X152906000Y-111445754D01*
X152906000Y-110605670D01*
X158040500Y-110605670D01*
X158040500Y-111216330D01*
X158274190Y-111780507D01*
X158654683Y-112161000D01*
X158274190Y-112541493D01*
X158040500Y-113105670D01*
X158040500Y-113716330D01*
X158274190Y-114280507D01*
X158705993Y-114712310D01*
X159270170Y-114946000D01*
X159880830Y-114946000D01*
X160265013Y-114786866D01*
X163940500Y-114786866D01*
X163940500Y-115835134D01*
X164341655Y-116803608D01*
X165082892Y-117544845D01*
X166051366Y-117946000D01*
X167099634Y-117946000D01*
X168068108Y-117544845D01*
X168809345Y-116803608D01*
X169210500Y-115835134D01*
X169210500Y-114786866D01*
X168809345Y-113818392D01*
X168068108Y-113077155D01*
X167099634Y-112676000D01*
X166051366Y-112676000D01*
X165082892Y-113077155D01*
X164341655Y-113818392D01*
X163940500Y-114786866D01*
X160265013Y-114786866D01*
X160445007Y-114712310D01*
X160876810Y-114280507D01*
X161110500Y-113716330D01*
X161110500Y-113105670D01*
X160876810Y-112541493D01*
X160496317Y-112161000D01*
X160876810Y-111780507D01*
X161110500Y-111216330D01*
X161110500Y-110605670D01*
X160876810Y-110041493D01*
X160445007Y-109609690D01*
X160437210Y-109606461D01*
X160476054Y-109491159D01*
X159575500Y-108590605D01*
X158674946Y-109491159D01*
X158713790Y-109606461D01*
X158705993Y-109609690D01*
X158274190Y-110041493D01*
X158040500Y-110605670D01*
X152906000Y-110605670D01*
X152906000Y-110392861D01*
X152920888Y-110318014D01*
X152906000Y-110243167D01*
X152906000Y-110243163D01*
X152861904Y-110021478D01*
X152780395Y-109899491D01*
X152736329Y-109833541D01*
X152736327Y-109833539D01*
X152693929Y-109770086D01*
X152630476Y-109727688D01*
X151397016Y-108494230D01*
X151354614Y-108430771D01*
X151103222Y-108262796D01*
X150960397Y-108234386D01*
X150896347Y-108170336D01*
X158029042Y-108170336D01*
X158054661Y-108780460D01*
X158238857Y-109225148D01*
X158495341Y-109311554D01*
X159395895Y-108411000D01*
X159755105Y-108411000D01*
X160655659Y-109311554D01*
X160912143Y-109225148D01*
X161121958Y-108651664D01*
X161096339Y-108041540D01*
X160912143Y-107596852D01*
X160655659Y-107510446D01*
X159755105Y-108411000D01*
X159395895Y-108411000D01*
X158495341Y-107510446D01*
X158238857Y-107596852D01*
X158029042Y-108170336D01*
X150896347Y-108170336D01*
X150827280Y-108101269D01*
X150446874Y-107943700D01*
X150073900Y-107943700D01*
X150073900Y-107330841D01*
X158674946Y-107330841D01*
X159575500Y-108231395D01*
X160476054Y-107330841D01*
X160389648Y-107074357D01*
X159816164Y-106864542D01*
X159206040Y-106890161D01*
X158761352Y-107074357D01*
X158674946Y-107330841D01*
X150073900Y-107330841D01*
X150073900Y-105986866D01*
X163940500Y-105986866D01*
X163940500Y-107035134D01*
X164341655Y-108003608D01*
X165082892Y-108744845D01*
X166051366Y-109146000D01*
X167099634Y-109146000D01*
X168068108Y-108744845D01*
X168809345Y-108003608D01*
X169210500Y-107035134D01*
X169210500Y-105986866D01*
X168809345Y-105018392D01*
X168068108Y-104277155D01*
X167099634Y-103876000D01*
X166051366Y-103876000D01*
X165082892Y-104277155D01*
X164341655Y-105018392D01*
X163940500Y-105986866D01*
X150073900Y-105986866D01*
X150073900Y-99895526D01*
X150895100Y-99895526D01*
X150895100Y-100307274D01*
X151052669Y-100687680D01*
X151343820Y-100978831D01*
X151724226Y-101136400D01*
X151964304Y-101136400D01*
X152094069Y-101449680D01*
X152385220Y-101740831D01*
X152765626Y-101898400D01*
X153177374Y-101898400D01*
X153557780Y-101740831D01*
X153848931Y-101449680D01*
X153942659Y-101223401D01*
X156565754Y-101223401D01*
X156640601Y-101238289D01*
X156715448Y-101223401D01*
X156715453Y-101223401D01*
X156937138Y-101179305D01*
X157188530Y-101011330D01*
X157230932Y-100947871D01*
X161235437Y-96943366D01*
X163940500Y-96943366D01*
X163940500Y-97991634D01*
X164341655Y-98960108D01*
X165082892Y-99701345D01*
X166051366Y-100102500D01*
X167099634Y-100102500D01*
X168068108Y-99701345D01*
X168809345Y-98960108D01*
X169210500Y-97991634D01*
X169210500Y-96943366D01*
X168809345Y-95974892D01*
X168068108Y-95233655D01*
X167099634Y-94832500D01*
X166051366Y-94832500D01*
X165082892Y-95233655D01*
X164341655Y-95974892D01*
X163940500Y-96943366D01*
X161235437Y-96943366D01*
X162904773Y-95274031D01*
X162968229Y-95231631D01*
X163011224Y-95167284D01*
X163136204Y-94980240D01*
X163165591Y-94832500D01*
X163180300Y-94758554D01*
X163180300Y-94758550D01*
X163195188Y-94683702D01*
X163180300Y-94608854D01*
X163180300Y-88143366D01*
X163940500Y-88143366D01*
X163940500Y-89191634D01*
X164341655Y-90160108D01*
X165082892Y-90901345D01*
X166051366Y-91302500D01*
X167099634Y-91302500D01*
X168068108Y-90901345D01*
X168809345Y-90160108D01*
X169210500Y-89191634D01*
X169210500Y-88143366D01*
X168809345Y-87174892D01*
X168068108Y-86433655D01*
X167099634Y-86032500D01*
X166051366Y-86032500D01*
X165082892Y-86433655D01*
X164341655Y-87174892D01*
X163940500Y-88143366D01*
X163180300Y-88143366D01*
X163180300Y-79747566D01*
X163813500Y-79747566D01*
X163813500Y-80795834D01*
X164214655Y-81764308D01*
X164955892Y-82505545D01*
X165924366Y-82906700D01*
X166972634Y-82906700D01*
X167941108Y-82505545D01*
X168682345Y-81764308D01*
X169083500Y-80795834D01*
X169083500Y-79747566D01*
X168682345Y-78779092D01*
X167941108Y-78037855D01*
X166972634Y-77636700D01*
X165924366Y-77636700D01*
X164955892Y-78037855D01*
X164214655Y-78779092D01*
X163813500Y-79747566D01*
X163180300Y-79747566D01*
X163180300Y-78918347D01*
X163195188Y-78843500D01*
X163180300Y-78768653D01*
X163180300Y-78768648D01*
X163136204Y-78546963D01*
X162968229Y-78295571D01*
X162904773Y-78253171D01*
X160938140Y-76286539D01*
X160983500Y-76177030D01*
X160983500Y-75566370D01*
X160749810Y-75002193D01*
X160318007Y-74570390D01*
X160310210Y-74567161D01*
X160349054Y-74451859D01*
X159448500Y-73551305D01*
X158547946Y-74451859D01*
X158586790Y-74567161D01*
X158578993Y-74570390D01*
X158147190Y-75002193D01*
X157913500Y-75566370D01*
X157913500Y-76177030D01*
X158147190Y-76741207D01*
X158527683Y-77121700D01*
X158147190Y-77502193D01*
X157913500Y-78066370D01*
X157913500Y-78677030D01*
X158147190Y-79241207D01*
X158578993Y-79673010D01*
X159143170Y-79906700D01*
X159753830Y-79906700D01*
X160318007Y-79673010D01*
X160749810Y-79241207D01*
X160983500Y-78677030D01*
X160983500Y-78481502D01*
X161660301Y-79158303D01*
X161660300Y-94368900D01*
X161009900Y-95019300D01*
X160876810Y-94697993D01*
X160496317Y-94317500D01*
X160876810Y-93937007D01*
X161110500Y-93372830D01*
X161110500Y-92762170D01*
X160876810Y-92197993D01*
X160445007Y-91766190D01*
X160437210Y-91762961D01*
X160476054Y-91647659D01*
X159575500Y-90747105D01*
X158674946Y-91647659D01*
X158713790Y-91762961D01*
X158705993Y-91766190D01*
X158274190Y-92197993D01*
X158040500Y-92762170D01*
X158040500Y-92916198D01*
X151890299Y-99066400D01*
X151724226Y-99066400D01*
X151343820Y-99223969D01*
X151052669Y-99515120D01*
X150895100Y-99895526D01*
X150073900Y-99895526D01*
X150073900Y-97122111D01*
X150191331Y-97004680D01*
X150348900Y-96624274D01*
X150348900Y-96212526D01*
X150191331Y-95832120D01*
X149900180Y-95540969D01*
X149519774Y-95383400D01*
X149108026Y-95383400D01*
X148727620Y-95540969D01*
X148436469Y-95832120D01*
X148278900Y-96212526D01*
X148278900Y-96624274D01*
X148436469Y-97004680D01*
X148553901Y-97122112D01*
X148553900Y-109049755D01*
X148539012Y-109124602D01*
X148553900Y-109199449D01*
X148553900Y-109199453D01*
X148597996Y-109421138D01*
X148765971Y-109672531D01*
X148829430Y-109714933D01*
X148868967Y-109754470D01*
X148620948Y-109881558D01*
X148353059Y-110196674D01*
X148259560Y-110422438D01*
X148386843Y-110585500D01*
X149152100Y-110585500D01*
X149152100Y-110565500D01*
X149227574Y-110565500D01*
X149210269Y-110652500D01*
X149174702Y-110652500D01*
X148865509Y-110714002D01*
X148677688Y-110839500D01*
X148386843Y-110839500D01*
X148259560Y-111002562D01*
X148337723Y-111191295D01*
X146415100Y-109268673D01*
X146415100Y-103714611D01*
X146457531Y-103672180D01*
X146615100Y-103291774D01*
X146615100Y-103238514D01*
X146766651Y-103011702D01*
X146815099Y-102768138D01*
X146815099Y-102768135D01*
X146831456Y-102685902D01*
X146815099Y-102603669D01*
X146815099Y-95973531D01*
X146831456Y-95891298D01*
X146815099Y-95809065D01*
X146815099Y-95809062D01*
X146766651Y-95565498D01*
X146582100Y-95289298D01*
X146512382Y-95242714D01*
X143440100Y-92170433D01*
X143440100Y-92110426D01*
X143282531Y-91730020D01*
X142991380Y-91438869D01*
X142610974Y-91281300D01*
X142199226Y-91281300D01*
X141818820Y-91438869D01*
X141527669Y-91730020D01*
X141370100Y-92110426D01*
X131583500Y-92110426D01*
X131583500Y-90078426D01*
X150419302Y-90078426D01*
X150419302Y-90490174D01*
X150576871Y-90870580D01*
X150868022Y-91161731D01*
X151248428Y-91319300D01*
X151660176Y-91319300D01*
X152040582Y-91161731D01*
X152331733Y-90870580D01*
X152489302Y-90490174D01*
X152489302Y-90326836D01*
X158029042Y-90326836D01*
X158054661Y-90936960D01*
X158238857Y-91381648D01*
X158495341Y-91468054D01*
X159395895Y-90567500D01*
X159755105Y-90567500D01*
X160655659Y-91468054D01*
X160912143Y-91381648D01*
X161121958Y-90808164D01*
X161096339Y-90198040D01*
X160912143Y-89753352D01*
X160655659Y-89666946D01*
X159755105Y-90567500D01*
X159395895Y-90567500D01*
X158495341Y-89666946D01*
X158238857Y-89753352D01*
X158029042Y-90326836D01*
X152489302Y-90326836D01*
X152489302Y-90078426D01*
X152331733Y-89698020D01*
X152121054Y-89487341D01*
X158674946Y-89487341D01*
X159575500Y-90387895D01*
X160476054Y-89487341D01*
X160389648Y-89230857D01*
X159816164Y-89021042D01*
X159206040Y-89046661D01*
X158761352Y-89230857D01*
X158674946Y-89487341D01*
X152121054Y-89487341D01*
X152040582Y-89406869D01*
X151660176Y-89249300D01*
X151248428Y-89249300D01*
X150868022Y-89406869D01*
X150576871Y-89698020D01*
X150419302Y-90078426D01*
X131583500Y-90078426D01*
X131583500Y-79542400D01*
X136245660Y-79542400D01*
X136245660Y-81292400D01*
X136361549Y-81875013D01*
X136691572Y-82368928D01*
X137185487Y-82698951D01*
X137768100Y-82814840D01*
X139518100Y-82814840D01*
X140100713Y-82698951D01*
X140594628Y-82368928D01*
X140924651Y-81875013D01*
X141040540Y-81292400D01*
X141040540Y-79542400D01*
X140924651Y-78959787D01*
X140594628Y-78465872D01*
X140100713Y-78135849D01*
X139995094Y-78114840D01*
X143393100Y-78114840D01*
X143640865Y-78065557D01*
X143850909Y-77925209D01*
X143991257Y-77715165D01*
X144040540Y-77467400D01*
X144040540Y-73967400D01*
X143991257Y-73719635D01*
X143850909Y-73509591D01*
X143640865Y-73369243D01*
X143393100Y-73319960D01*
X139893100Y-73319960D01*
X139645335Y-73369243D01*
X139435291Y-73509591D01*
X139294943Y-73719635D01*
X139245660Y-73967400D01*
X139245660Y-77467400D01*
X139294943Y-77715165D01*
X139435291Y-77925209D01*
X139602101Y-78036669D01*
X139518100Y-78019960D01*
X137768100Y-78019960D01*
X137185487Y-78135849D01*
X136691572Y-78465872D01*
X136361549Y-78959787D01*
X136245660Y-79542400D01*
X131583500Y-79542400D01*
X131583500Y-76003150D01*
X133508100Y-76003150D01*
X133508100Y-77593710D01*
X133604773Y-77827099D01*
X133783402Y-78005727D01*
X134016791Y-78102400D01*
X135357350Y-78102400D01*
X135516100Y-77943650D01*
X135516100Y-75844400D01*
X135770100Y-75844400D01*
X135770100Y-77943650D01*
X135928850Y-78102400D01*
X137269409Y-78102400D01*
X137502798Y-78005727D01*
X137681427Y-77827099D01*
X137778100Y-77593710D01*
X137778100Y-76003150D01*
X137619350Y-75844400D01*
X135770100Y-75844400D01*
X135516100Y-75844400D01*
X133666850Y-75844400D01*
X133508100Y-76003150D01*
X131583500Y-76003150D01*
X131583500Y-73841090D01*
X133508100Y-73841090D01*
X133508100Y-75431650D01*
X133666850Y-75590400D01*
X135516100Y-75590400D01*
X135516100Y-73491150D01*
X135770100Y-73491150D01*
X135770100Y-75590400D01*
X137619350Y-75590400D01*
X137778100Y-75431650D01*
X137778100Y-73841090D01*
X137681427Y-73607701D01*
X137502798Y-73429073D01*
X137269409Y-73332400D01*
X135928850Y-73332400D01*
X135770100Y-73491150D01*
X135516100Y-73491150D01*
X135357350Y-73332400D01*
X134016791Y-73332400D01*
X133783402Y-73429073D01*
X133604773Y-73607701D01*
X133508100Y-73841090D01*
X131583500Y-73841090D01*
X131583500Y-73131036D01*
X157902042Y-73131036D01*
X157927661Y-73741160D01*
X158111857Y-74185848D01*
X158368341Y-74272254D01*
X159268895Y-73371700D01*
X159628105Y-73371700D01*
X160528659Y-74272254D01*
X160785143Y-74185848D01*
X160994958Y-73612364D01*
X160969339Y-73002240D01*
X160785143Y-72557552D01*
X160528659Y-72471146D01*
X159628105Y-73371700D01*
X159268895Y-73371700D01*
X158368341Y-72471146D01*
X158111857Y-72557552D01*
X157902042Y-73131036D01*
X131583500Y-73131036D01*
X131583500Y-72291541D01*
X158547946Y-72291541D01*
X159448500Y-73192095D01*
X160349054Y-72291541D01*
X160262648Y-72035057D01*
X159689164Y-71825242D01*
X159079040Y-71850861D01*
X158634352Y-72035057D01*
X158547946Y-72291541D01*
X131583500Y-72291541D01*
X131583500Y-70947566D01*
X163813500Y-70947566D01*
X163813500Y-71995834D01*
X164214655Y-72964308D01*
X164955892Y-73705545D01*
X165924366Y-74106700D01*
X166972634Y-74106700D01*
X167941108Y-73705545D01*
X168682345Y-72964308D01*
X169083500Y-71995834D01*
X169083500Y-70947566D01*
X168682345Y-69979092D01*
X167941108Y-69237855D01*
X166972634Y-68836700D01*
X165924366Y-68836700D01*
X164955892Y-69237855D01*
X164214655Y-69979092D01*
X163813500Y-70947566D01*
X131583500Y-70947566D01*
X131583500Y-67842200D01*
X172086200Y-67842200D01*
X172086201Y-122657800D01*
X172086201Y-122657800D01*
G37*
X172086201Y-122657800D02*
X131583500Y-122657800D01*
X131583500Y-121373900D01*
X144026634Y-121373900D01*
X144108902Y-121787491D01*
X144343183Y-122138117D01*
X144693809Y-122372398D01*
X145003002Y-122433900D01*
X145211798Y-122433900D01*
X145520991Y-122372398D01*
X145607400Y-122314661D01*
X145693809Y-122372398D01*
X146003002Y-122433900D01*
X146211798Y-122433900D01*
X146520991Y-122372398D01*
X146607400Y-122314661D01*
X146693809Y-122372398D01*
X147003002Y-122433900D01*
X147211798Y-122433900D01*
X147426006Y-122391292D01*
X147434635Y-122397057D01*
X147682400Y-122446340D01*
X148532400Y-122446340D01*
X148780165Y-122397057D01*
X148990209Y-122256709D01*
X149130557Y-122046665D01*
X149179840Y-121798900D01*
X149179840Y-120948900D01*
X149130557Y-120701135D01*
X148990209Y-120491091D01*
X148780165Y-120350743D01*
X148532400Y-120301460D01*
X147682400Y-120301460D01*
X147434635Y-120350743D01*
X147426006Y-120356508D01*
X147211798Y-120313900D01*
X147003002Y-120313900D01*
X146693809Y-120375402D01*
X146607400Y-120433139D01*
X146520991Y-120375402D01*
X146211798Y-120313900D01*
X146003002Y-120313900D01*
X145693809Y-120375402D01*
X145607400Y-120433139D01*
X145520991Y-120375402D01*
X145211798Y-120313900D01*
X145003002Y-120313900D01*
X144693809Y-120375402D01*
X144343183Y-120609683D01*
X144108902Y-120960309D01*
X144026634Y-121373900D01*
X131583500Y-121373900D01*
X131583500Y-92110426D01*
X141370100Y-92110426D01*
X141370100Y-92522174D01*
X141527669Y-92902580D01*
X141818820Y-93193731D01*
X142199226Y-93351300D01*
X142259233Y-93351300D01*
X145145100Y-96237168D01*
X145145099Y-102145807D01*
X144993820Y-102208469D01*
X144702669Y-102499620D01*
X144545100Y-102880026D01*
X144545100Y-103291774D01*
X144702669Y-103672180D01*
X144745100Y-103714611D01*
X144745100Y-103733821D01*
X144745101Y-103733826D01*
X144745100Y-109532307D01*
X144728743Y-109614540D01*
X144745100Y-109696773D01*
X144745100Y-109696776D01*
X144793548Y-109940340D01*
X144978099Y-110216541D01*
X145047820Y-110263127D01*
X148029475Y-113244783D01*
X148076059Y-113314501D01*
X148352259Y-113499052D01*
X148595823Y-113547500D01*
X148595826Y-113547500D01*
X148631410Y-113554578D01*
X148865509Y-113710998D01*
X149174702Y-113772500D01*
X149383498Y-113772500D01*
X149597706Y-113729892D01*
X149606335Y-113735657D01*
X149854100Y-113784940D01*
X150704100Y-113784940D01*
X150951865Y-113735657D01*
X151161909Y-113595309D01*
X151291818Y-113400887D01*
X151502029Y-113260429D01*
X151544431Y-113196970D01*
X152630473Y-112110929D01*
X152693929Y-112068529D01*
X152861904Y-111817137D01*
X152906000Y-111595452D01*
X152906000Y-111595448D01*
X152920888Y-111520601D01*
X152906000Y-111445754D01*
X152906000Y-110605670D01*
X158040500Y-110605670D01*
X158040500Y-111216330D01*
X158274190Y-111780507D01*
X158654683Y-112161000D01*
X158274190Y-112541493D01*
X158040500Y-113105670D01*
X158040500Y-113716330D01*
X158274190Y-114280507D01*
X158705993Y-114712310D01*
X159270170Y-114946000D01*
X159880830Y-114946000D01*
X160265013Y-114786866D01*
X163940500Y-114786866D01*
X163940500Y-115835134D01*
X164341655Y-116803608D01*
X165082892Y-117544845D01*
X166051366Y-117946000D01*
X167099634Y-117946000D01*
X168068108Y-117544845D01*
X168809345Y-116803608D01*
X169210500Y-115835134D01*
X169210500Y-114786866D01*
X168809345Y-113818392D01*
X168068108Y-113077155D01*
X167099634Y-112676000D01*
X166051366Y-112676000D01*
X165082892Y-113077155D01*
X164341655Y-113818392D01*
X163940500Y-114786866D01*
X160265013Y-114786866D01*
X160445007Y-114712310D01*
X160876810Y-114280507D01*
X161110500Y-113716330D01*
X161110500Y-113105670D01*
X160876810Y-112541493D01*
X160496317Y-112161000D01*
X160876810Y-111780507D01*
X161110500Y-111216330D01*
X161110500Y-110605670D01*
X160876810Y-110041493D01*
X160445007Y-109609690D01*
X160437210Y-109606461D01*
X160476054Y-109491159D01*
X159575500Y-108590605D01*
X158674946Y-109491159D01*
X158713790Y-109606461D01*
X158705993Y-109609690D01*
X158274190Y-110041493D01*
X158040500Y-110605670D01*
X152906000Y-110605670D01*
X152906000Y-110392861D01*
X152920888Y-110318014D01*
X152906000Y-110243167D01*
X152906000Y-110243163D01*
X152861904Y-110021478D01*
X152780395Y-109899491D01*
X152736329Y-109833541D01*
X152736327Y-109833539D01*
X152693929Y-109770086D01*
X152630476Y-109727688D01*
X151397016Y-108494230D01*
X151354614Y-108430771D01*
X151103222Y-108262796D01*
X150960397Y-108234386D01*
X150896347Y-108170336D01*
X158029042Y-108170336D01*
X158054661Y-108780460D01*
X158238857Y-109225148D01*
X158495341Y-109311554D01*
X159395895Y-108411000D01*
X159755105Y-108411000D01*
X160655659Y-109311554D01*
X160912143Y-109225148D01*
X161121958Y-108651664D01*
X161096339Y-108041540D01*
X160912143Y-107596852D01*
X160655659Y-107510446D01*
X159755105Y-108411000D01*
X159395895Y-108411000D01*
X158495341Y-107510446D01*
X158238857Y-107596852D01*
X158029042Y-108170336D01*
X150896347Y-108170336D01*
X150827280Y-108101269D01*
X150446874Y-107943700D01*
X150073900Y-107943700D01*
X150073900Y-107330841D01*
X158674946Y-107330841D01*
X159575500Y-108231395D01*
X160476054Y-107330841D01*
X160389648Y-107074357D01*
X159816164Y-106864542D01*
X159206040Y-106890161D01*
X158761352Y-107074357D01*
X158674946Y-107330841D01*
X150073900Y-107330841D01*
X150073900Y-105986866D01*
X163940500Y-105986866D01*
X163940500Y-107035134D01*
X164341655Y-108003608D01*
X165082892Y-108744845D01*
X166051366Y-109146000D01*
X167099634Y-109146000D01*
X168068108Y-108744845D01*
X168809345Y-108003608D01*
X169210500Y-107035134D01*
X169210500Y-105986866D01*
X168809345Y-105018392D01*
X168068108Y-104277155D01*
X167099634Y-103876000D01*
X166051366Y-103876000D01*
X165082892Y-104277155D01*
X164341655Y-105018392D01*
X163940500Y-105986866D01*
X150073900Y-105986866D01*
X150073900Y-99895526D01*
X150895100Y-99895526D01*
X150895100Y-100307274D01*
X151052669Y-100687680D01*
X151343820Y-100978831D01*
X151724226Y-101136400D01*
X151964304Y-101136400D01*
X152094069Y-101449680D01*
X152385220Y-101740831D01*
X152765626Y-101898400D01*
X153177374Y-101898400D01*
X153557780Y-101740831D01*
X153848931Y-101449680D01*
X153942659Y-101223401D01*
X156565754Y-101223401D01*
X156640601Y-101238289D01*
X156715448Y-101223401D01*
X156715453Y-101223401D01*
X156937138Y-101179305D01*
X157188530Y-101011330D01*
X157230932Y-100947871D01*
X161235437Y-96943366D01*
X163940500Y-96943366D01*
X163940500Y-97991634D01*
X164341655Y-98960108D01*
X165082892Y-99701345D01*
X166051366Y-100102500D01*
X167099634Y-100102500D01*
X168068108Y-99701345D01*
X168809345Y-98960108D01*
X169210500Y-97991634D01*
X169210500Y-96943366D01*
X168809345Y-95974892D01*
X168068108Y-95233655D01*
X167099634Y-94832500D01*
X166051366Y-94832500D01*
X165082892Y-95233655D01*
X164341655Y-95974892D01*
X163940500Y-96943366D01*
X161235437Y-96943366D01*
X162904773Y-95274031D01*
X162968229Y-95231631D01*
X163011224Y-95167284D01*
X163136204Y-94980240D01*
X163165591Y-94832500D01*
X163180300Y-94758554D01*
X163180300Y-94758550D01*
X163195188Y-94683702D01*
X163180300Y-94608854D01*
X163180300Y-88143366D01*
X163940500Y-88143366D01*
X163940500Y-89191634D01*
X164341655Y-90160108D01*
X165082892Y-90901345D01*
X166051366Y-91302500D01*
X167099634Y-91302500D01*
X168068108Y-90901345D01*
X168809345Y-90160108D01*
X169210500Y-89191634D01*
X169210500Y-88143366D01*
X168809345Y-87174892D01*
X168068108Y-86433655D01*
X167099634Y-86032500D01*
X166051366Y-86032500D01*
X165082892Y-86433655D01*
X164341655Y-87174892D01*
X163940500Y-88143366D01*
X163180300Y-88143366D01*
X163180300Y-79747566D01*
X163813500Y-79747566D01*
X163813500Y-80795834D01*
X164214655Y-81764308D01*
X164955892Y-82505545D01*
X165924366Y-82906700D01*
X166972634Y-82906700D01*
X167941108Y-82505545D01*
X168682345Y-81764308D01*
X169083500Y-80795834D01*
X169083500Y-79747566D01*
X168682345Y-78779092D01*
X167941108Y-78037855D01*
X166972634Y-77636700D01*
X165924366Y-77636700D01*
X164955892Y-78037855D01*
X164214655Y-78779092D01*
X163813500Y-79747566D01*
X163180300Y-79747566D01*
X163180300Y-78918347D01*
X163195188Y-78843500D01*
X163180300Y-78768653D01*
X163180300Y-78768648D01*
X163136204Y-78546963D01*
X162968229Y-78295571D01*
X162904773Y-78253171D01*
X160938140Y-76286539D01*
X160983500Y-76177030D01*
X160983500Y-75566370D01*
X160749810Y-75002193D01*
X160318007Y-74570390D01*
X160310210Y-74567161D01*
X160349054Y-74451859D01*
X159448500Y-73551305D01*
X158547946Y-74451859D01*
X158586790Y-74567161D01*
X158578993Y-74570390D01*
X158147190Y-75002193D01*
X157913500Y-75566370D01*
X157913500Y-76177030D01*
X158147190Y-76741207D01*
X158527683Y-77121700D01*
X158147190Y-77502193D01*
X157913500Y-78066370D01*
X157913500Y-78677030D01*
X158147190Y-79241207D01*
X158578993Y-79673010D01*
X159143170Y-79906700D01*
X159753830Y-79906700D01*
X160318007Y-79673010D01*
X160749810Y-79241207D01*
X160983500Y-78677030D01*
X160983500Y-78481502D01*
X161660301Y-79158303D01*
X161660300Y-94368900D01*
X161009900Y-95019300D01*
X160876810Y-94697993D01*
X160496317Y-94317500D01*
X160876810Y-93937007D01*
X161110500Y-93372830D01*
X161110500Y-92762170D01*
X160876810Y-92197993D01*
X160445007Y-91766190D01*
X160437210Y-91762961D01*
X160476054Y-91647659D01*
X159575500Y-90747105D01*
X158674946Y-91647659D01*
X158713790Y-91762961D01*
X158705993Y-91766190D01*
X158274190Y-92197993D01*
X158040500Y-92762170D01*
X158040500Y-92916198D01*
X151890299Y-99066400D01*
X151724226Y-99066400D01*
X151343820Y-99223969D01*
X151052669Y-99515120D01*
X150895100Y-99895526D01*
X150073900Y-99895526D01*
X150073900Y-97122111D01*
X150191331Y-97004680D01*
X150348900Y-96624274D01*
X150348900Y-96212526D01*
X150191331Y-95832120D01*
X149900180Y-95540969D01*
X149519774Y-95383400D01*
X149108026Y-95383400D01*
X148727620Y-95540969D01*
X148436469Y-95832120D01*
X148278900Y-96212526D01*
X148278900Y-96624274D01*
X148436469Y-97004680D01*
X148553901Y-97122112D01*
X148553900Y-109049755D01*
X148539012Y-109124602D01*
X148553900Y-109199449D01*
X148553900Y-109199453D01*
X148597996Y-109421138D01*
X148765971Y-109672531D01*
X148829430Y-109714933D01*
X148868967Y-109754470D01*
X148620948Y-109881558D01*
X148353059Y-110196674D01*
X148259560Y-110422438D01*
X148386843Y-110585500D01*
X149152100Y-110585500D01*
X149152100Y-110565500D01*
X149227574Y-110565500D01*
X149210269Y-110652500D01*
X149174702Y-110652500D01*
X148865509Y-110714002D01*
X148677688Y-110839500D01*
X148386843Y-110839500D01*
X148259560Y-111002562D01*
X148337723Y-111191295D01*
X146415100Y-109268673D01*
X146415100Y-103714611D01*
X146457531Y-103672180D01*
X146615100Y-103291774D01*
X146615100Y-103238514D01*
X146766651Y-103011702D01*
X146815099Y-102768138D01*
X146815099Y-102768135D01*
X146831456Y-102685902D01*
X146815099Y-102603669D01*
X146815099Y-95973531D01*
X146831456Y-95891298D01*
X146815099Y-95809065D01*
X146815099Y-95809062D01*
X146766651Y-95565498D01*
X146582100Y-95289298D01*
X146512382Y-95242714D01*
X143440100Y-92170433D01*
X143440100Y-92110426D01*
X143282531Y-91730020D01*
X142991380Y-91438869D01*
X142610974Y-91281300D01*
X142199226Y-91281300D01*
X141818820Y-91438869D01*
X141527669Y-91730020D01*
X141370100Y-92110426D01*
X131583500Y-92110426D01*
X131583500Y-90078426D01*
X150419302Y-90078426D01*
X150419302Y-90490174D01*
X150576871Y-90870580D01*
X150868022Y-91161731D01*
X151248428Y-91319300D01*
X151660176Y-91319300D01*
X152040582Y-91161731D01*
X152331733Y-90870580D01*
X152489302Y-90490174D01*
X152489302Y-90326836D01*
X158029042Y-90326836D01*
X158054661Y-90936960D01*
X158238857Y-91381648D01*
X158495341Y-91468054D01*
X159395895Y-90567500D01*
X159755105Y-90567500D01*
X160655659Y-91468054D01*
X160912143Y-91381648D01*
X161121958Y-90808164D01*
X161096339Y-90198040D01*
X160912143Y-89753352D01*
X160655659Y-89666946D01*
X159755105Y-90567500D01*
X159395895Y-90567500D01*
X158495341Y-89666946D01*
X158238857Y-89753352D01*
X158029042Y-90326836D01*
X152489302Y-90326836D01*
X152489302Y-90078426D01*
X152331733Y-89698020D01*
X152121054Y-89487341D01*
X158674946Y-89487341D01*
X159575500Y-90387895D01*
X160476054Y-89487341D01*
X160389648Y-89230857D01*
X159816164Y-89021042D01*
X159206040Y-89046661D01*
X158761352Y-89230857D01*
X158674946Y-89487341D01*
X152121054Y-89487341D01*
X152040582Y-89406869D01*
X151660176Y-89249300D01*
X151248428Y-89249300D01*
X150868022Y-89406869D01*
X150576871Y-89698020D01*
X150419302Y-90078426D01*
X131583500Y-90078426D01*
X131583500Y-79542400D01*
X136245660Y-79542400D01*
X136245660Y-81292400D01*
X136361549Y-81875013D01*
X136691572Y-82368928D01*
X137185487Y-82698951D01*
X137768100Y-82814840D01*
X139518100Y-82814840D01*
X140100713Y-82698951D01*
X140594628Y-82368928D01*
X140924651Y-81875013D01*
X141040540Y-81292400D01*
X141040540Y-79542400D01*
X140924651Y-78959787D01*
X140594628Y-78465872D01*
X140100713Y-78135849D01*
X139995094Y-78114840D01*
X143393100Y-78114840D01*
X143640865Y-78065557D01*
X143850909Y-77925209D01*
X143991257Y-77715165D01*
X144040540Y-77467400D01*
X144040540Y-73967400D01*
X143991257Y-73719635D01*
X143850909Y-73509591D01*
X143640865Y-73369243D01*
X143393100Y-73319960D01*
X139893100Y-73319960D01*
X139645335Y-73369243D01*
X139435291Y-73509591D01*
X139294943Y-73719635D01*
X139245660Y-73967400D01*
X139245660Y-77467400D01*
X139294943Y-77715165D01*
X139435291Y-77925209D01*
X139602101Y-78036669D01*
X139518100Y-78019960D01*
X137768100Y-78019960D01*
X137185487Y-78135849D01*
X136691572Y-78465872D01*
X136361549Y-78959787D01*
X136245660Y-79542400D01*
X131583500Y-79542400D01*
X131583500Y-76003150D01*
X133508100Y-76003150D01*
X133508100Y-77593710D01*
X133604773Y-77827099D01*
X133783402Y-78005727D01*
X134016791Y-78102400D01*
X135357350Y-78102400D01*
X135516100Y-77943650D01*
X135516100Y-75844400D01*
X135770100Y-75844400D01*
X135770100Y-77943650D01*
X135928850Y-78102400D01*
X137269409Y-78102400D01*
X137502798Y-78005727D01*
X137681427Y-77827099D01*
X137778100Y-77593710D01*
X137778100Y-76003150D01*
X137619350Y-75844400D01*
X135770100Y-75844400D01*
X135516100Y-75844400D01*
X133666850Y-75844400D01*
X133508100Y-76003150D01*
X131583500Y-76003150D01*
X131583500Y-73841090D01*
X133508100Y-73841090D01*
X133508100Y-75431650D01*
X133666850Y-75590400D01*
X135516100Y-75590400D01*
X135516100Y-73491150D01*
X135770100Y-73491150D01*
X135770100Y-75590400D01*
X137619350Y-75590400D01*
X137778100Y-75431650D01*
X137778100Y-73841090D01*
X137681427Y-73607701D01*
X137502798Y-73429073D01*
X137269409Y-73332400D01*
X135928850Y-73332400D01*
X135770100Y-73491150D01*
X135516100Y-73491150D01*
X135357350Y-73332400D01*
X134016791Y-73332400D01*
X133783402Y-73429073D01*
X133604773Y-73607701D01*
X133508100Y-73841090D01*
X131583500Y-73841090D01*
X131583500Y-73131036D01*
X157902042Y-73131036D01*
X157927661Y-73741160D01*
X158111857Y-74185848D01*
X158368341Y-74272254D01*
X159268895Y-73371700D01*
X159628105Y-73371700D01*
X160528659Y-74272254D01*
X160785143Y-74185848D01*
X160994958Y-73612364D01*
X160969339Y-73002240D01*
X160785143Y-72557552D01*
X160528659Y-72471146D01*
X159628105Y-73371700D01*
X159268895Y-73371700D01*
X158368341Y-72471146D01*
X158111857Y-72557552D01*
X157902042Y-73131036D01*
X131583500Y-73131036D01*
X131583500Y-72291541D01*
X158547946Y-72291541D01*
X159448500Y-73192095D01*
X160349054Y-72291541D01*
X160262648Y-72035057D01*
X159689164Y-71825242D01*
X159079040Y-71850861D01*
X158634352Y-72035057D01*
X158547946Y-72291541D01*
X131583500Y-72291541D01*
X131583500Y-70947566D01*
X163813500Y-70947566D01*
X163813500Y-71995834D01*
X164214655Y-72964308D01*
X164955892Y-73705545D01*
X165924366Y-74106700D01*
X166972634Y-74106700D01*
X167941108Y-73705545D01*
X168682345Y-72964308D01*
X169083500Y-71995834D01*
X169083500Y-70947566D01*
X168682345Y-69979092D01*
X167941108Y-69237855D01*
X166972634Y-68836700D01*
X165924366Y-68836700D01*
X164955892Y-69237855D01*
X164214655Y-69979092D01*
X163813500Y-70947566D01*
X131583500Y-70947566D01*
X131583500Y-67842200D01*
X172086200Y-67842200D01*
X172086201Y-122657800D01*
G04 #@! TD*
M02*
