M48
;DRILL file {KiCad 5.0.2-bee76a0~70~ubuntu18.04.1} date Mon 03 Dec 2018 07:26:45 PM EST
;FORMAT={-:-/ absolute / metric / decimal}
FMAT,2
METRIC,TZ
T1C0.400
T2C0.500
T3C1.000
%
G90
G05
T1
X139.167Y-102.21
X142.405Y-92.316
X145.415Y-114.16
X145.58Y-103.086
X147.663Y-114.44
X147.726Y-102.883
X149.314Y-96.418
X150.241Y-108.979
X151.454Y-90.284
X151.93Y-100.101
X152.971Y-100.863
T2
X145.107Y-121.374
X146.107Y-121.374
X147.107Y-121.374
X148.107Y-121.374
X149.279Y-110.712
X149.279Y-111.712
X149.279Y-112.712
X150.279Y-110.712
X150.279Y-111.712
X150.279Y-112.712
T3
X159.448Y-73.372
X159.448Y-75.872
X159.448Y-78.372
X159.576Y-90.567
X159.576Y-93.067
X159.576Y-95.567
X159.576Y-108.411
X159.576Y-110.911
X159.576Y-113.411
T3
X135.643Y-74.717G85X135.643Y-76.717
G05
X137.643Y-80.417G85X139.643Y-80.417
G05
X141.643Y-74.717G85X141.643Y-76.717
G05
T0
M30
