M48
;DRILL file {KiCad 5.0.2-bee76a0~70~ubuntu18.04.1} date Mon 16 Dec 2019 07:01:37 PM EST
;FORMAT={-:-/ absolute / inch / decimal}
FMAT,2
INCH,TZ
T1C0.0157
T2C0.0394
T3C0.0400
%
G90
G05
T1
X5.479Y-4.024
X5.4941Y-3.8504
X5.5236Y-3.7303
X5.5374Y-3.624
X5.5886Y-3.8681
X5.6065Y-3.6345
X5.6299Y-3.8228
X5.6929Y-3.8484
X5.725Y-4.4945
X5.7315Y-4.0585
X5.8135Y-4.5055
X5.816Y-4.0505
X5.915Y-4.2905
X5.937Y-4.4744
X5.946Y-4.3799
X5.9628Y-3.5545
X5.9815Y-3.941
X6.0079Y-4.5137
X6.0225Y-3.971
X6.0591Y-4.6417
X6.7455Y-4.7132
T2
X6.2775Y-2.8886
X6.2775Y-2.9871
X6.2775Y-3.0855
X6.2825Y-4.2681
X6.2825Y-4.3666
X6.2825Y-4.465
X6.2825Y-3.5656
X6.2825Y-3.6641
X6.2825Y-3.7625
T3
X6.0583Y-4.7244
X6.1583Y-4.7244
X6.2583Y-4.7244
X6.3583Y-4.7244
X6.4583Y-4.7244
X6.5583Y-4.7244
X5.2756Y-4.7756
X5.3756Y-4.7756
X5.5937Y-4.7756
X5.6937Y-4.7756
X5.7937Y-4.7756
X5.8937Y-4.7756
T2
X5.3403Y-2.9416G85X5.3403Y-3.0204
G05
X5.419Y-3.166G85X5.4978Y-3.166
G05
X5.5765Y-2.9416G85X5.5765Y-3.0204
G05
T0
M30
