G04 #@! TF.GenerationSoftware,KiCad,Pcbnew,5.0.2-bee76a0~70~ubuntu18.04.1*
G04 #@! TF.CreationDate,2019-12-16T19:01:30-05:00*
G04 #@! TF.ProjectId,LEDStuff,4c454453-7475-4666-962e-6b696361645f,rev?*
G04 #@! TF.SameCoordinates,Original*
G04 #@! TF.FileFunction,Soldermask,Top*
G04 #@! TF.FilePolarity,Negative*
%FSLAX46Y46*%
G04 Gerber Fmt 4.6, Leading zero omitted, Abs format (unit mm)*
G04 Created by KiCad (PCBNEW 5.0.2-bee76a0~70~ubuntu18.04.1) date Mon 16 Dec 2019 07:01:30 PM EST*
%MOMM*%
%LPD*%
G01*
G04 APERTURE LIST*
%ADD10C,0.100000*%
G04 APERTURE END LIST*
D10*
G36*
X136829003Y-120347275D02*
X136829005Y-120347276D01*
X136829006Y-120347276D01*
X137009320Y-120421964D01*
X137169410Y-120528933D01*
X137171601Y-120530397D01*
X137309603Y-120668399D01*
X137309605Y-120668402D01*
X137418036Y-120830680D01*
X137492724Y-121010994D01*
X137530800Y-121202415D01*
X137530800Y-121397585D01*
X137492724Y-121589006D01*
X137418036Y-121769320D01*
X137418035Y-121769321D01*
X137309603Y-121931601D01*
X137171601Y-122069603D01*
X137171598Y-122069605D01*
X137009320Y-122178036D01*
X136829006Y-122252724D01*
X136829005Y-122252724D01*
X136829003Y-122252725D01*
X136637587Y-122290800D01*
X136442413Y-122290800D01*
X136250997Y-122252725D01*
X136250995Y-122252724D01*
X136250994Y-122252724D01*
X136070680Y-122178036D01*
X135908402Y-122069605D01*
X135908399Y-122069603D01*
X135770397Y-121931601D01*
X135661965Y-121769321D01*
X135661964Y-121769320D01*
X135587276Y-121589006D01*
X135549200Y-121397585D01*
X135549200Y-121202415D01*
X135587276Y-121010994D01*
X135661964Y-120830680D01*
X135770395Y-120668402D01*
X135770397Y-120668399D01*
X135908399Y-120530397D01*
X135910590Y-120528933D01*
X136070680Y-120421964D01*
X136250994Y-120347276D01*
X136250995Y-120347276D01*
X136250997Y-120347275D01*
X136442413Y-120309200D01*
X136637587Y-120309200D01*
X136829003Y-120347275D01*
X136829003Y-120347275D01*
G37*
G36*
X147449003Y-120347275D02*
X147449005Y-120347276D01*
X147449006Y-120347276D01*
X147629320Y-120421964D01*
X147789410Y-120528933D01*
X147791601Y-120530397D01*
X147929603Y-120668399D01*
X147929605Y-120668402D01*
X148038036Y-120830680D01*
X148112724Y-121010994D01*
X148150800Y-121202415D01*
X148150800Y-121397585D01*
X148112724Y-121589006D01*
X148038036Y-121769320D01*
X148038035Y-121769321D01*
X147929603Y-121931601D01*
X147791601Y-122069603D01*
X147791598Y-122069605D01*
X147629320Y-122178036D01*
X147449006Y-122252724D01*
X147449005Y-122252724D01*
X147449003Y-122252725D01*
X147257587Y-122290800D01*
X147062413Y-122290800D01*
X146870997Y-122252725D01*
X146870995Y-122252724D01*
X146870994Y-122252724D01*
X146690680Y-122178036D01*
X146528402Y-122069605D01*
X146528399Y-122069603D01*
X146390397Y-121931601D01*
X146281965Y-121769321D01*
X146281964Y-121769320D01*
X146207276Y-121589006D01*
X146169200Y-121397585D01*
X146169200Y-121202415D01*
X146207276Y-121010994D01*
X146281964Y-120830680D01*
X146390395Y-120668402D01*
X146390397Y-120668399D01*
X146528399Y-120530397D01*
X146530590Y-120528933D01*
X146690680Y-120421964D01*
X146870994Y-120347276D01*
X146870995Y-120347276D01*
X146870997Y-120347275D01*
X147062413Y-120309200D01*
X147257587Y-120309200D01*
X147449003Y-120347275D01*
X147449003Y-120347275D01*
G37*
G36*
X150690800Y-122290800D02*
X148709200Y-122290800D01*
X148709200Y-120309200D01*
X150690800Y-120309200D01*
X150690800Y-122290800D01*
X150690800Y-122290800D01*
G37*
G36*
X144909003Y-120347275D02*
X144909005Y-120347276D01*
X144909006Y-120347276D01*
X145089320Y-120421964D01*
X145249410Y-120528933D01*
X145251601Y-120530397D01*
X145389603Y-120668399D01*
X145389605Y-120668402D01*
X145498036Y-120830680D01*
X145572724Y-121010994D01*
X145610800Y-121202415D01*
X145610800Y-121397585D01*
X145572724Y-121589006D01*
X145498036Y-121769320D01*
X145498035Y-121769321D01*
X145389603Y-121931601D01*
X145251601Y-122069603D01*
X145251598Y-122069605D01*
X145089320Y-122178036D01*
X144909006Y-122252724D01*
X144909005Y-122252724D01*
X144909003Y-122252725D01*
X144717587Y-122290800D01*
X144522413Y-122290800D01*
X144330997Y-122252725D01*
X144330995Y-122252724D01*
X144330994Y-122252724D01*
X144150680Y-122178036D01*
X143988402Y-122069605D01*
X143988399Y-122069603D01*
X143850397Y-121931601D01*
X143741965Y-121769321D01*
X143741964Y-121769320D01*
X143667276Y-121589006D01*
X143629200Y-121397585D01*
X143629200Y-121202415D01*
X143667276Y-121010994D01*
X143741964Y-120830680D01*
X143850395Y-120668402D01*
X143850397Y-120668399D01*
X143988399Y-120530397D01*
X143990590Y-120528933D01*
X144150680Y-120421964D01*
X144330994Y-120347276D01*
X144330995Y-120347276D01*
X144330997Y-120347275D01*
X144522413Y-120309200D01*
X144717587Y-120309200D01*
X144909003Y-120347275D01*
X144909003Y-120347275D01*
G37*
G36*
X134289003Y-120347275D02*
X134289005Y-120347276D01*
X134289006Y-120347276D01*
X134469320Y-120421964D01*
X134629410Y-120528933D01*
X134631601Y-120530397D01*
X134769603Y-120668399D01*
X134769605Y-120668402D01*
X134878036Y-120830680D01*
X134952724Y-121010994D01*
X134990800Y-121202415D01*
X134990800Y-121397585D01*
X134952724Y-121589006D01*
X134878036Y-121769320D01*
X134878035Y-121769321D01*
X134769603Y-121931601D01*
X134631601Y-122069603D01*
X134631598Y-122069605D01*
X134469320Y-122178036D01*
X134289006Y-122252724D01*
X134289005Y-122252724D01*
X134289003Y-122252725D01*
X134097587Y-122290800D01*
X133902413Y-122290800D01*
X133710997Y-122252725D01*
X133710995Y-122252724D01*
X133710994Y-122252724D01*
X133530680Y-122178036D01*
X133368402Y-122069605D01*
X133368399Y-122069603D01*
X133230397Y-121931601D01*
X133121965Y-121769321D01*
X133121964Y-121769320D01*
X133047276Y-121589006D01*
X133009200Y-121397585D01*
X133009200Y-121202415D01*
X133047276Y-121010994D01*
X133121964Y-120830680D01*
X133230395Y-120668402D01*
X133230397Y-120668399D01*
X133368399Y-120530397D01*
X133370590Y-120528933D01*
X133530680Y-120421964D01*
X133710994Y-120347276D01*
X133710995Y-120347276D01*
X133710997Y-120347275D01*
X133902413Y-120309200D01*
X134097587Y-120309200D01*
X134289003Y-120347275D01*
X134289003Y-120347275D01*
G37*
G36*
X142369003Y-120347275D02*
X142369005Y-120347276D01*
X142369006Y-120347276D01*
X142549320Y-120421964D01*
X142709410Y-120528933D01*
X142711601Y-120530397D01*
X142849603Y-120668399D01*
X142849605Y-120668402D01*
X142958036Y-120830680D01*
X143032724Y-121010994D01*
X143070800Y-121202415D01*
X143070800Y-121397585D01*
X143032724Y-121589006D01*
X142958036Y-121769320D01*
X142958035Y-121769321D01*
X142849603Y-121931601D01*
X142711601Y-122069603D01*
X142711598Y-122069605D01*
X142549320Y-122178036D01*
X142369006Y-122252724D01*
X142369005Y-122252724D01*
X142369003Y-122252725D01*
X142177587Y-122290800D01*
X141982413Y-122290800D01*
X141790997Y-122252725D01*
X141790995Y-122252724D01*
X141790994Y-122252724D01*
X141610680Y-122178036D01*
X141448402Y-122069605D01*
X141448399Y-122069603D01*
X141310397Y-121931601D01*
X141201965Y-121769321D01*
X141201964Y-121769320D01*
X141127276Y-121589006D01*
X141089200Y-121397585D01*
X141089200Y-121202415D01*
X141127276Y-121010994D01*
X141201964Y-120830680D01*
X141310395Y-120668402D01*
X141310397Y-120668399D01*
X141448399Y-120530397D01*
X141450590Y-120528933D01*
X141610680Y-120421964D01*
X141790994Y-120347276D01*
X141790995Y-120347276D01*
X141790997Y-120347275D01*
X141982413Y-120309200D01*
X142177587Y-120309200D01*
X142369003Y-120347275D01*
X142369003Y-120347275D01*
G37*
G36*
X166869003Y-119047275D02*
X166869005Y-119047276D01*
X166869006Y-119047276D01*
X167049320Y-119121964D01*
X167049321Y-119121965D01*
X167211601Y-119230397D01*
X167349603Y-119368399D01*
X167349605Y-119368402D01*
X167458036Y-119530680D01*
X167532724Y-119710994D01*
X167570800Y-119902415D01*
X167570800Y-120097585D01*
X167532724Y-120289006D01*
X167458036Y-120469320D01*
X167351067Y-120629410D01*
X167349603Y-120631601D01*
X167211601Y-120769603D01*
X167211598Y-120769605D01*
X167049320Y-120878036D01*
X166869006Y-120952724D01*
X166869005Y-120952724D01*
X166869003Y-120952725D01*
X166677587Y-120990800D01*
X166482413Y-120990800D01*
X166290997Y-120952725D01*
X166290995Y-120952724D01*
X166290994Y-120952724D01*
X166110680Y-120878036D01*
X165948402Y-120769605D01*
X165948399Y-120769603D01*
X165810397Y-120631601D01*
X165808933Y-120629410D01*
X165701964Y-120469320D01*
X165627276Y-120289006D01*
X165589200Y-120097585D01*
X165589200Y-119902415D01*
X165627276Y-119710994D01*
X165701964Y-119530680D01*
X165810395Y-119368402D01*
X165810397Y-119368399D01*
X165948399Y-119230397D01*
X166110679Y-119121965D01*
X166110680Y-119121964D01*
X166290994Y-119047276D01*
X166290995Y-119047276D01*
X166290997Y-119047275D01*
X166482413Y-119009200D01*
X166677587Y-119009200D01*
X166869003Y-119047275D01*
X166869003Y-119047275D01*
G37*
G36*
X154169003Y-119047275D02*
X154169005Y-119047276D01*
X154169006Y-119047276D01*
X154349320Y-119121964D01*
X154349321Y-119121965D01*
X154511601Y-119230397D01*
X154649603Y-119368399D01*
X154649605Y-119368402D01*
X154758036Y-119530680D01*
X154832724Y-119710994D01*
X154870800Y-119902415D01*
X154870800Y-120097585D01*
X154832724Y-120289006D01*
X154758036Y-120469320D01*
X154651067Y-120629410D01*
X154649603Y-120631601D01*
X154511601Y-120769603D01*
X154511598Y-120769605D01*
X154349320Y-120878036D01*
X154169006Y-120952724D01*
X154169005Y-120952724D01*
X154169003Y-120952725D01*
X153977587Y-120990800D01*
X153782413Y-120990800D01*
X153590997Y-120952725D01*
X153590995Y-120952724D01*
X153590994Y-120952724D01*
X153410680Y-120878036D01*
X153248402Y-120769605D01*
X153248399Y-120769603D01*
X153110397Y-120631601D01*
X153108933Y-120629410D01*
X153001964Y-120469320D01*
X152927276Y-120289006D01*
X152889200Y-120097585D01*
X152889200Y-119902415D01*
X152927276Y-119710994D01*
X153001964Y-119530680D01*
X153110395Y-119368402D01*
X153110397Y-119368399D01*
X153248399Y-119230397D01*
X153410679Y-119121965D01*
X153410680Y-119121964D01*
X153590994Y-119047276D01*
X153590995Y-119047276D01*
X153590997Y-119047275D01*
X153782413Y-119009200D01*
X153977587Y-119009200D01*
X154169003Y-119047275D01*
X154169003Y-119047275D01*
G37*
G36*
X156709003Y-119047275D02*
X156709005Y-119047276D01*
X156709006Y-119047276D01*
X156889320Y-119121964D01*
X156889321Y-119121965D01*
X157051601Y-119230397D01*
X157189603Y-119368399D01*
X157189605Y-119368402D01*
X157298036Y-119530680D01*
X157372724Y-119710994D01*
X157410800Y-119902415D01*
X157410800Y-120097585D01*
X157372724Y-120289006D01*
X157298036Y-120469320D01*
X157191067Y-120629410D01*
X157189603Y-120631601D01*
X157051601Y-120769603D01*
X157051598Y-120769605D01*
X156889320Y-120878036D01*
X156709006Y-120952724D01*
X156709005Y-120952724D01*
X156709003Y-120952725D01*
X156517587Y-120990800D01*
X156322413Y-120990800D01*
X156130997Y-120952725D01*
X156130995Y-120952724D01*
X156130994Y-120952724D01*
X155950680Y-120878036D01*
X155788402Y-120769605D01*
X155788399Y-120769603D01*
X155650397Y-120631601D01*
X155648933Y-120629410D01*
X155541964Y-120469320D01*
X155467276Y-120289006D01*
X155429200Y-120097585D01*
X155429200Y-119902415D01*
X155467276Y-119710994D01*
X155541964Y-119530680D01*
X155650395Y-119368402D01*
X155650397Y-119368399D01*
X155788399Y-119230397D01*
X155950679Y-119121965D01*
X155950680Y-119121964D01*
X156130994Y-119047276D01*
X156130995Y-119047276D01*
X156130997Y-119047275D01*
X156322413Y-119009200D01*
X156517587Y-119009200D01*
X156709003Y-119047275D01*
X156709003Y-119047275D01*
G37*
G36*
X161789003Y-119047275D02*
X161789005Y-119047276D01*
X161789006Y-119047276D01*
X161969320Y-119121964D01*
X161969321Y-119121965D01*
X162131601Y-119230397D01*
X162269603Y-119368399D01*
X162269605Y-119368402D01*
X162378036Y-119530680D01*
X162452724Y-119710994D01*
X162490800Y-119902415D01*
X162490800Y-120097585D01*
X162452724Y-120289006D01*
X162378036Y-120469320D01*
X162271067Y-120629410D01*
X162269603Y-120631601D01*
X162131601Y-120769603D01*
X162131598Y-120769605D01*
X161969320Y-120878036D01*
X161789006Y-120952724D01*
X161789005Y-120952724D01*
X161789003Y-120952725D01*
X161597587Y-120990800D01*
X161402413Y-120990800D01*
X161210997Y-120952725D01*
X161210995Y-120952724D01*
X161210994Y-120952724D01*
X161030680Y-120878036D01*
X160868402Y-120769605D01*
X160868399Y-120769603D01*
X160730397Y-120631601D01*
X160728933Y-120629410D01*
X160621964Y-120469320D01*
X160547276Y-120289006D01*
X160509200Y-120097585D01*
X160509200Y-119902415D01*
X160547276Y-119710994D01*
X160621964Y-119530680D01*
X160730395Y-119368402D01*
X160730397Y-119368399D01*
X160868399Y-119230397D01*
X161030679Y-119121965D01*
X161030680Y-119121964D01*
X161210994Y-119047276D01*
X161210995Y-119047276D01*
X161210997Y-119047275D01*
X161402413Y-119009200D01*
X161597587Y-119009200D01*
X161789003Y-119047275D01*
X161789003Y-119047275D01*
G37*
G36*
X164329003Y-119047275D02*
X164329005Y-119047276D01*
X164329006Y-119047276D01*
X164509320Y-119121964D01*
X164509321Y-119121965D01*
X164671601Y-119230397D01*
X164809603Y-119368399D01*
X164809605Y-119368402D01*
X164918036Y-119530680D01*
X164992724Y-119710994D01*
X165030800Y-119902415D01*
X165030800Y-120097585D01*
X164992724Y-120289006D01*
X164918036Y-120469320D01*
X164811067Y-120629410D01*
X164809603Y-120631601D01*
X164671601Y-120769603D01*
X164671598Y-120769605D01*
X164509320Y-120878036D01*
X164329006Y-120952724D01*
X164329005Y-120952724D01*
X164329003Y-120952725D01*
X164137587Y-120990800D01*
X163942413Y-120990800D01*
X163750997Y-120952725D01*
X163750995Y-120952724D01*
X163750994Y-120952724D01*
X163570680Y-120878036D01*
X163408402Y-120769605D01*
X163408399Y-120769603D01*
X163270397Y-120631601D01*
X163268933Y-120629410D01*
X163161964Y-120469320D01*
X163087276Y-120289006D01*
X163049200Y-120097585D01*
X163049200Y-119902415D01*
X163087276Y-119710994D01*
X163161964Y-119530680D01*
X163270395Y-119368402D01*
X163270397Y-119368399D01*
X163408399Y-119230397D01*
X163570679Y-119121965D01*
X163570680Y-119121964D01*
X163750994Y-119047276D01*
X163750995Y-119047276D01*
X163750997Y-119047275D01*
X163942413Y-119009200D01*
X164137587Y-119009200D01*
X164329003Y-119047275D01*
X164329003Y-119047275D01*
G37*
G36*
X159249003Y-119047275D02*
X159249005Y-119047276D01*
X159249006Y-119047276D01*
X159429320Y-119121964D01*
X159429321Y-119121965D01*
X159591601Y-119230397D01*
X159729603Y-119368399D01*
X159729605Y-119368402D01*
X159838036Y-119530680D01*
X159912724Y-119710994D01*
X159950800Y-119902415D01*
X159950800Y-120097585D01*
X159912724Y-120289006D01*
X159838036Y-120469320D01*
X159731067Y-120629410D01*
X159729603Y-120631601D01*
X159591601Y-120769603D01*
X159591598Y-120769605D01*
X159429320Y-120878036D01*
X159249006Y-120952724D01*
X159249005Y-120952724D01*
X159249003Y-120952725D01*
X159057587Y-120990800D01*
X158862413Y-120990800D01*
X158670997Y-120952725D01*
X158670995Y-120952724D01*
X158670994Y-120952724D01*
X158490680Y-120878036D01*
X158328402Y-120769605D01*
X158328399Y-120769603D01*
X158190397Y-120631601D01*
X158188933Y-120629410D01*
X158081964Y-120469320D01*
X158007276Y-120289006D01*
X157969200Y-120097585D01*
X157969200Y-119902415D01*
X158007276Y-119710994D01*
X158081964Y-119530680D01*
X158190395Y-119368402D01*
X158190397Y-119368399D01*
X158328399Y-119230397D01*
X158490679Y-119121965D01*
X158490680Y-119121964D01*
X158670994Y-119047276D01*
X158670995Y-119047276D01*
X158670997Y-119047275D01*
X158862413Y-119009200D01*
X159057587Y-119009200D01*
X159249003Y-119047275D01*
X159249003Y-119047275D01*
G37*
G36*
X146551800Y-118823600D02*
X145649800Y-118823600D01*
X145649800Y-117821600D01*
X146551800Y-117821600D01*
X146551800Y-118823600D01*
X146551800Y-118823600D01*
G37*
G36*
X150653900Y-118798200D02*
X149751900Y-118798200D01*
X149751900Y-117796200D01*
X150653900Y-117796200D01*
X150653900Y-118798200D01*
X150653900Y-118798200D01*
G37*
G36*
X142360800Y-118645800D02*
X141458800Y-118645800D01*
X141458800Y-117643800D01*
X142360800Y-117643800D01*
X142360800Y-118645800D01*
X142360800Y-118645800D01*
G37*
G36*
X167173752Y-113338818D02*
X167173754Y-113338819D01*
X167173755Y-113338819D01*
X167547013Y-113493427D01*
X167838804Y-113688396D01*
X167882939Y-113717886D01*
X168168614Y-114003561D01*
X168168616Y-114003564D01*
X168393073Y-114339487D01*
X168402398Y-114362000D01*
X168547682Y-114712748D01*
X168626500Y-115108993D01*
X168626500Y-115513007D01*
X168600484Y-115643800D01*
X168547681Y-115909255D01*
X168393073Y-116282513D01*
X168393072Y-116282514D01*
X168168614Y-116618439D01*
X167882939Y-116904114D01*
X167882936Y-116904116D01*
X167547013Y-117128573D01*
X167173755Y-117283181D01*
X167173754Y-117283181D01*
X167173752Y-117283182D01*
X166777507Y-117362000D01*
X166373493Y-117362000D01*
X165977248Y-117283182D01*
X165977246Y-117283181D01*
X165977245Y-117283181D01*
X165603987Y-117128573D01*
X165268064Y-116904116D01*
X165268061Y-116904114D01*
X164982386Y-116618439D01*
X164757928Y-116282514D01*
X164757927Y-116282513D01*
X164603319Y-115909255D01*
X164550517Y-115643800D01*
X164524500Y-115513007D01*
X164524500Y-115108993D01*
X164603318Y-114712748D01*
X164748602Y-114362000D01*
X164757927Y-114339487D01*
X164982384Y-114003564D01*
X164982386Y-114003561D01*
X165268061Y-113717886D01*
X165312196Y-113688396D01*
X165603987Y-113493427D01*
X165977245Y-113338819D01*
X165977246Y-113338819D01*
X165977248Y-113338818D01*
X166373493Y-113260000D01*
X166777507Y-113260000D01*
X167173752Y-113338818D01*
X167173752Y-113338818D01*
G37*
G36*
X147501800Y-116823600D02*
X146599800Y-116823600D01*
X146599800Y-115821600D01*
X147501800Y-115821600D01*
X147501800Y-116823600D01*
X147501800Y-116823600D01*
G37*
G36*
X145601800Y-116823600D02*
X144699800Y-116823600D01*
X144699800Y-115821600D01*
X145601800Y-115821600D01*
X145601800Y-116823600D01*
X145601800Y-116823600D01*
G37*
G36*
X151603900Y-116798200D02*
X150701900Y-116798200D01*
X150701900Y-115796200D01*
X151603900Y-115796200D01*
X151603900Y-116798200D01*
X151603900Y-116798200D01*
G37*
G36*
X149703900Y-116798200D02*
X148801900Y-116798200D01*
X148801900Y-115796200D01*
X149703900Y-115796200D01*
X149703900Y-116798200D01*
X149703900Y-116798200D01*
G37*
G36*
X143310800Y-116645800D02*
X142408800Y-116645800D01*
X142408800Y-115643800D01*
X143310800Y-115643800D01*
X143310800Y-116645800D01*
X143310800Y-116645800D01*
G37*
G36*
X141410800Y-116645800D02*
X140508800Y-116645800D01*
X140508800Y-115643800D01*
X141410800Y-115643800D01*
X141410800Y-116645800D01*
X141410800Y-116645800D01*
G37*
G36*
X136026600Y-115920200D02*
X133924600Y-115920200D01*
X133924600Y-107943200D01*
X136026600Y-107943200D01*
X136026600Y-115920200D01*
X136026600Y-115920200D01*
G37*
G36*
X159852896Y-112496546D02*
X160025966Y-112568234D01*
X160181730Y-112672312D01*
X160314188Y-112804770D01*
X160418266Y-112960534D01*
X160489954Y-113133604D01*
X160526500Y-113317333D01*
X160526500Y-113504667D01*
X160489954Y-113688396D01*
X160418266Y-113861466D01*
X160314188Y-114017230D01*
X160181730Y-114149688D01*
X160025966Y-114253766D01*
X159852896Y-114325454D01*
X159669167Y-114362000D01*
X159481833Y-114362000D01*
X159298104Y-114325454D01*
X159125034Y-114253766D01*
X158969270Y-114149688D01*
X158836812Y-114017230D01*
X158732734Y-113861466D01*
X158661046Y-113688396D01*
X158624500Y-113504667D01*
X158624500Y-113317333D01*
X158661046Y-113133604D01*
X158732734Y-112960534D01*
X158836812Y-112804770D01*
X158969270Y-112672312D01*
X159125034Y-112568234D01*
X159298104Y-112496546D01*
X159481833Y-112460000D01*
X159669167Y-112460000D01*
X159852896Y-112496546D01*
X159852896Y-112496546D01*
G37*
G36*
X144087977Y-110556265D02*
X144125664Y-110567698D01*
X144160403Y-110586266D01*
X144190848Y-110611252D01*
X144215834Y-110641697D01*
X144234402Y-110676436D01*
X144245835Y-110714123D01*
X144250300Y-110759461D01*
X144250300Y-111846139D01*
X144245835Y-111891477D01*
X144234402Y-111929164D01*
X144215834Y-111963903D01*
X144190848Y-111994348D01*
X144160403Y-112019334D01*
X144125664Y-112037902D01*
X144087977Y-112049335D01*
X144042639Y-112053800D01*
X143205961Y-112053800D01*
X143160623Y-112049335D01*
X143122936Y-112037902D01*
X143088197Y-112019334D01*
X143057752Y-111994348D01*
X143032766Y-111963903D01*
X143014198Y-111929164D01*
X143002765Y-111891477D01*
X142998300Y-111846139D01*
X142998300Y-110759461D01*
X143002765Y-110714123D01*
X143014198Y-110676436D01*
X143032766Y-110641697D01*
X143057752Y-110611252D01*
X143088197Y-110586266D01*
X143122936Y-110567698D01*
X143160623Y-110556265D01*
X143205961Y-110551800D01*
X144042639Y-110551800D01*
X144087977Y-110556265D01*
X144087977Y-110556265D01*
G37*
G36*
X142037977Y-110556265D02*
X142075664Y-110567698D01*
X142110403Y-110586266D01*
X142140848Y-110611252D01*
X142165834Y-110641697D01*
X142184402Y-110676436D01*
X142195835Y-110714123D01*
X142200300Y-110759461D01*
X142200300Y-111846139D01*
X142195835Y-111891477D01*
X142184402Y-111929164D01*
X142165834Y-111963903D01*
X142140848Y-111994348D01*
X142110403Y-112019334D01*
X142075664Y-112037902D01*
X142037977Y-112049335D01*
X141992639Y-112053800D01*
X141155961Y-112053800D01*
X141110623Y-112049335D01*
X141072936Y-112037902D01*
X141038197Y-112019334D01*
X141007752Y-111994348D01*
X140982766Y-111963903D01*
X140964198Y-111929164D01*
X140952765Y-111891477D01*
X140948300Y-111846139D01*
X140948300Y-110759461D01*
X140952765Y-110714123D01*
X140964198Y-110676436D01*
X140982766Y-110641697D01*
X141007752Y-110611252D01*
X141038197Y-110586266D01*
X141072936Y-110567698D01*
X141110623Y-110556265D01*
X141155961Y-110551800D01*
X141992639Y-110551800D01*
X142037977Y-110556265D01*
X142037977Y-110556265D01*
G37*
G36*
X159852896Y-109996546D02*
X160025966Y-110068234D01*
X160181730Y-110172312D01*
X160314188Y-110304770D01*
X160418266Y-110460534D01*
X160489954Y-110633604D01*
X160526500Y-110817333D01*
X160526500Y-111004667D01*
X160489954Y-111188396D01*
X160418266Y-111361466D01*
X160314188Y-111517230D01*
X160181730Y-111649688D01*
X160025966Y-111753766D01*
X159852896Y-111825454D01*
X159669167Y-111862000D01*
X159481833Y-111862000D01*
X159298104Y-111825454D01*
X159125034Y-111753766D01*
X158969270Y-111649688D01*
X158836812Y-111517230D01*
X158732734Y-111361466D01*
X158661046Y-111188396D01*
X158624500Y-111004667D01*
X158624500Y-110817333D01*
X158661046Y-110633604D01*
X158732734Y-110460534D01*
X158836812Y-110304770D01*
X158969270Y-110172312D01*
X159125034Y-110068234D01*
X159298104Y-109996546D01*
X159481833Y-109960000D01*
X159669167Y-109960000D01*
X159852896Y-109996546D01*
X159852896Y-109996546D01*
G37*
G36*
X156506577Y-110046265D02*
X156544264Y-110057698D01*
X156579003Y-110076266D01*
X156609448Y-110101252D01*
X156634434Y-110131697D01*
X156653002Y-110166436D01*
X156664435Y-110204123D01*
X156668900Y-110249461D01*
X156668900Y-111086139D01*
X156664435Y-111131477D01*
X156653002Y-111169164D01*
X156634434Y-111203903D01*
X156609448Y-111234348D01*
X156579003Y-111259334D01*
X156544264Y-111277902D01*
X156506577Y-111289335D01*
X156461239Y-111293800D01*
X155374561Y-111293800D01*
X155329223Y-111289335D01*
X155291536Y-111277902D01*
X155256797Y-111259334D01*
X155226352Y-111234348D01*
X155201366Y-111203903D01*
X155182798Y-111169164D01*
X155171365Y-111131477D01*
X155166900Y-111086139D01*
X155166900Y-110249461D01*
X155171365Y-110204123D01*
X155182798Y-110166436D01*
X155201366Y-110131697D01*
X155226352Y-110101252D01*
X155256797Y-110076266D01*
X155291536Y-110057698D01*
X155329223Y-110046265D01*
X155374561Y-110041800D01*
X156461239Y-110041800D01*
X156506577Y-110046265D01*
X156506577Y-110046265D01*
G37*
G36*
X159852896Y-107496546D02*
X160025966Y-107568234D01*
X160181730Y-107672312D01*
X160314188Y-107804770D01*
X160418266Y-107960534D01*
X160489954Y-108133604D01*
X160526500Y-108317333D01*
X160526500Y-108504667D01*
X160489954Y-108688396D01*
X160418266Y-108861466D01*
X160314188Y-109017230D01*
X160181730Y-109149688D01*
X160025966Y-109253766D01*
X159852896Y-109325454D01*
X159669167Y-109362000D01*
X159481833Y-109362000D01*
X159298104Y-109325454D01*
X159125034Y-109253766D01*
X158969270Y-109149688D01*
X158836812Y-109017230D01*
X158732734Y-108861466D01*
X158661046Y-108688396D01*
X158624500Y-108504667D01*
X158624500Y-108317333D01*
X158661046Y-108133604D01*
X158732734Y-107960534D01*
X158836812Y-107804770D01*
X158969270Y-107672312D01*
X159125034Y-107568234D01*
X159298104Y-107496546D01*
X159481833Y-107460000D01*
X159669167Y-107460000D01*
X159852896Y-107496546D01*
X159852896Y-107496546D01*
G37*
G36*
X156506577Y-107996265D02*
X156544264Y-108007698D01*
X156579003Y-108026266D01*
X156609448Y-108051252D01*
X156634434Y-108081697D01*
X156653002Y-108116436D01*
X156664435Y-108154123D01*
X156668900Y-108199461D01*
X156668900Y-109036139D01*
X156664435Y-109081477D01*
X156653002Y-109119164D01*
X156634434Y-109153903D01*
X156609448Y-109184348D01*
X156579003Y-109209334D01*
X156544264Y-109227902D01*
X156506577Y-109239335D01*
X156461239Y-109243800D01*
X155374561Y-109243800D01*
X155329223Y-109239335D01*
X155291536Y-109227902D01*
X155256797Y-109209334D01*
X155226352Y-109184348D01*
X155201366Y-109153903D01*
X155182798Y-109119164D01*
X155171365Y-109081477D01*
X155166900Y-109036139D01*
X155166900Y-108199461D01*
X155171365Y-108154123D01*
X155182798Y-108116436D01*
X155201366Y-108081697D01*
X155226352Y-108051252D01*
X155256797Y-108026266D01*
X155291536Y-108007698D01*
X155329223Y-107996265D01*
X155374561Y-107991800D01*
X156461239Y-107991800D01*
X156506577Y-107996265D01*
X156506577Y-107996265D01*
G37*
G36*
X149125200Y-108567900D02*
X142873200Y-108567900D01*
X142873200Y-106865900D01*
X149125200Y-106865900D01*
X149125200Y-108567900D01*
X149125200Y-108567900D01*
G37*
G36*
X167173752Y-104538818D02*
X167173754Y-104538819D01*
X167173755Y-104538819D01*
X167547013Y-104693427D01*
X167547014Y-104693428D01*
X167882939Y-104917886D01*
X168168614Y-105203561D01*
X168168616Y-105203564D01*
X168393073Y-105539487D01*
X168547681Y-105912745D01*
X168547682Y-105912748D01*
X168626500Y-106308993D01*
X168626500Y-106713007D01*
X168596088Y-106865900D01*
X168547681Y-107109255D01*
X168393073Y-107482513D01*
X168268419Y-107669070D01*
X168168614Y-107818439D01*
X167882939Y-108104114D01*
X167882936Y-108104116D01*
X167547013Y-108328573D01*
X167173755Y-108483181D01*
X167173754Y-108483181D01*
X167173752Y-108483182D01*
X166777507Y-108562000D01*
X166373493Y-108562000D01*
X165977248Y-108483182D01*
X165977246Y-108483181D01*
X165977245Y-108483181D01*
X165603987Y-108328573D01*
X165268064Y-108104116D01*
X165268061Y-108104114D01*
X164982386Y-107818439D01*
X164882581Y-107669070D01*
X164757927Y-107482513D01*
X164603319Y-107109255D01*
X164554913Y-106865900D01*
X164524500Y-106713007D01*
X164524500Y-106308993D01*
X164603318Y-105912748D01*
X164603319Y-105912745D01*
X164757927Y-105539487D01*
X164982384Y-105203564D01*
X164982386Y-105203561D01*
X165268061Y-104917886D01*
X165603986Y-104693428D01*
X165603987Y-104693427D01*
X165977245Y-104538819D01*
X165977246Y-104538819D01*
X165977248Y-104538818D01*
X166373493Y-104460000D01*
X166777507Y-104460000D01*
X167173752Y-104538818D01*
X167173752Y-104538818D01*
G37*
G36*
X139590177Y-106426765D02*
X139627864Y-106438198D01*
X139662603Y-106456766D01*
X139693048Y-106481752D01*
X139718034Y-106512197D01*
X139736602Y-106546936D01*
X139748035Y-106584623D01*
X139752500Y-106629961D01*
X139752500Y-107466639D01*
X139748035Y-107511977D01*
X139736602Y-107549664D01*
X139718034Y-107584403D01*
X139693048Y-107614848D01*
X139662603Y-107639834D01*
X139627864Y-107658402D01*
X139590177Y-107669835D01*
X139544839Y-107674300D01*
X138458161Y-107674300D01*
X138412823Y-107669835D01*
X138375136Y-107658402D01*
X138340397Y-107639834D01*
X138309952Y-107614848D01*
X138284966Y-107584403D01*
X138266398Y-107549664D01*
X138254965Y-107511977D01*
X138250500Y-107466639D01*
X138250500Y-106629961D01*
X138254965Y-106584623D01*
X138266398Y-106546936D01*
X138284966Y-106512197D01*
X138309952Y-106481752D01*
X138340397Y-106456766D01*
X138375136Y-106438198D01*
X138412823Y-106426765D01*
X138458161Y-106422300D01*
X139544839Y-106422300D01*
X139590177Y-106426765D01*
X139590177Y-106426765D01*
G37*
G36*
X142600200Y-106592900D02*
X140898200Y-106592900D01*
X140898200Y-100340900D01*
X142600200Y-100340900D01*
X142600200Y-106592900D01*
X142600200Y-106592900D01*
G37*
G36*
X151100200Y-106592900D02*
X149398200Y-106592900D01*
X149398200Y-100340900D01*
X151100200Y-100340900D01*
X151100200Y-106592900D01*
X151100200Y-106592900D01*
G37*
G36*
X139590177Y-104376765D02*
X139627864Y-104388198D01*
X139662603Y-104406766D01*
X139693048Y-104431752D01*
X139718034Y-104462197D01*
X139736602Y-104496936D01*
X139748035Y-104534623D01*
X139752500Y-104579961D01*
X139752500Y-105416639D01*
X139748035Y-105461977D01*
X139736602Y-105499664D01*
X139718034Y-105534403D01*
X139693048Y-105564848D01*
X139662603Y-105589834D01*
X139627864Y-105608402D01*
X139590177Y-105619835D01*
X139544839Y-105624300D01*
X138458161Y-105624300D01*
X138412823Y-105619835D01*
X138375136Y-105608402D01*
X138340397Y-105589834D01*
X138309952Y-105564848D01*
X138284966Y-105534403D01*
X138266398Y-105499664D01*
X138254965Y-105461977D01*
X138250500Y-105416639D01*
X138250500Y-104579961D01*
X138254965Y-104534623D01*
X138266398Y-104496936D01*
X138284966Y-104462197D01*
X138309952Y-104431752D01*
X138340397Y-104406766D01*
X138375136Y-104388198D01*
X138412823Y-104376765D01*
X138458161Y-104372300D01*
X139544839Y-104372300D01*
X139590177Y-104376765D01*
X139590177Y-104376765D01*
G37*
G36*
X153395077Y-103975665D02*
X153432764Y-103987098D01*
X153467503Y-104005666D01*
X153497948Y-104030652D01*
X153522934Y-104061097D01*
X153541502Y-104095836D01*
X153552935Y-104133523D01*
X153557400Y-104178861D01*
X153557400Y-105015539D01*
X153552935Y-105060877D01*
X153541502Y-105098564D01*
X153522934Y-105133303D01*
X153497948Y-105163748D01*
X153467503Y-105188734D01*
X153432764Y-105207302D01*
X153395077Y-105218735D01*
X153349739Y-105223200D01*
X152263061Y-105223200D01*
X152217723Y-105218735D01*
X152180036Y-105207302D01*
X152145297Y-105188734D01*
X152114852Y-105163748D01*
X152089866Y-105133303D01*
X152071298Y-105098564D01*
X152059865Y-105060877D01*
X152055400Y-105015539D01*
X152055400Y-104178861D01*
X152059865Y-104133523D01*
X152071298Y-104095836D01*
X152089866Y-104061097D01*
X152114852Y-104030652D01*
X152145297Y-104005666D01*
X152180036Y-103987098D01*
X152217723Y-103975665D01*
X152263061Y-103971200D01*
X153349739Y-103971200D01*
X153395077Y-103975665D01*
X153395077Y-103975665D01*
G37*
G36*
X136026600Y-104045200D02*
X133924600Y-104045200D01*
X133924600Y-96068200D01*
X136026600Y-96068200D01*
X136026600Y-104045200D01*
X136026600Y-104045200D01*
G37*
G36*
X153395077Y-101925665D02*
X153432764Y-101937098D01*
X153467503Y-101955666D01*
X153497948Y-101980652D01*
X153522934Y-102011097D01*
X153541502Y-102045836D01*
X153552935Y-102083523D01*
X153557400Y-102128861D01*
X153557400Y-102965539D01*
X153552935Y-103010877D01*
X153541502Y-103048564D01*
X153522934Y-103083303D01*
X153497948Y-103113748D01*
X153467503Y-103138734D01*
X153432764Y-103157302D01*
X153395077Y-103168735D01*
X153349739Y-103173200D01*
X152263061Y-103173200D01*
X152217723Y-103168735D01*
X152180036Y-103157302D01*
X152145297Y-103138734D01*
X152114852Y-103113748D01*
X152089866Y-103083303D01*
X152071298Y-103048564D01*
X152059865Y-103010877D01*
X152055400Y-102965539D01*
X152055400Y-102128861D01*
X152059865Y-102083523D01*
X152071298Y-102045836D01*
X152089866Y-102011097D01*
X152114852Y-101980652D01*
X152145297Y-101955666D01*
X152180036Y-101937098D01*
X152217723Y-101925665D01*
X152263061Y-101921200D01*
X153349739Y-101921200D01*
X153395077Y-101925665D01*
X153395077Y-101925665D01*
G37*
G36*
X149125200Y-100067900D02*
X142873200Y-100067900D01*
X142873200Y-98365900D01*
X149125200Y-98365900D01*
X149125200Y-100067900D01*
X149125200Y-100067900D01*
G37*
G36*
X167173752Y-95495318D02*
X167173754Y-95495319D01*
X167173755Y-95495319D01*
X167547013Y-95649927D01*
X167740069Y-95778923D01*
X167882939Y-95874386D01*
X168168614Y-96160061D01*
X168168616Y-96160064D01*
X168393073Y-96495987D01*
X168547681Y-96869245D01*
X168547682Y-96869248D01*
X168593867Y-97101435D01*
X168626500Y-97265494D01*
X168626500Y-97669506D01*
X168547681Y-98065755D01*
X168393073Y-98439013D01*
X168393072Y-98439014D01*
X168168614Y-98774939D01*
X167882939Y-99060614D01*
X167882936Y-99060616D01*
X167547013Y-99285073D01*
X167173755Y-99439681D01*
X167173754Y-99439681D01*
X167173752Y-99439682D01*
X166777507Y-99518500D01*
X166373493Y-99518500D01*
X165977248Y-99439682D01*
X165977246Y-99439681D01*
X165977245Y-99439681D01*
X165603987Y-99285073D01*
X165268064Y-99060616D01*
X165268061Y-99060614D01*
X164982386Y-98774939D01*
X164757928Y-98439014D01*
X164757927Y-98439013D01*
X164603319Y-98065755D01*
X164524500Y-97669506D01*
X164524500Y-97265494D01*
X164557133Y-97101435D01*
X164603318Y-96869248D01*
X164603319Y-96869245D01*
X164757927Y-96495987D01*
X164982384Y-96160064D01*
X164982386Y-96160061D01*
X165268061Y-95874386D01*
X165410931Y-95778923D01*
X165603987Y-95649927D01*
X165977245Y-95495319D01*
X165977246Y-95495319D01*
X165977248Y-95495318D01*
X166373493Y-95416500D01*
X166777507Y-95416500D01*
X167173752Y-95495318D01*
X167173752Y-95495318D01*
G37*
G36*
X139200440Y-98248940D02*
X137899560Y-98248940D01*
X137899560Y-97349380D01*
X139200440Y-97349380D01*
X139200440Y-98248940D01*
X139200440Y-98248940D01*
G37*
G36*
X142008877Y-95621065D02*
X142046564Y-95632498D01*
X142081303Y-95651066D01*
X142111748Y-95676052D01*
X142136734Y-95706497D01*
X142155302Y-95741236D01*
X142166735Y-95778923D01*
X142171200Y-95824261D01*
X142171200Y-96910939D01*
X142166735Y-96956277D01*
X142155302Y-96993964D01*
X142136734Y-97028703D01*
X142111748Y-97059148D01*
X142081303Y-97084134D01*
X142046564Y-97102702D01*
X142008877Y-97114135D01*
X141963539Y-97118600D01*
X141126861Y-97118600D01*
X141081523Y-97114135D01*
X141043836Y-97102702D01*
X141009097Y-97084134D01*
X140978652Y-97059148D01*
X140953666Y-97028703D01*
X140935098Y-96993964D01*
X140923665Y-96956277D01*
X140919200Y-96910939D01*
X140919200Y-95824261D01*
X140923665Y-95778923D01*
X140935098Y-95741236D01*
X140953666Y-95706497D01*
X140978652Y-95676052D01*
X141009097Y-95651066D01*
X141043836Y-95632498D01*
X141081523Y-95621065D01*
X141126861Y-95616600D01*
X141963539Y-95616600D01*
X142008877Y-95621065D01*
X142008877Y-95621065D01*
G37*
G36*
X144058877Y-95621065D02*
X144096564Y-95632498D01*
X144131303Y-95651066D01*
X144161748Y-95676052D01*
X144186734Y-95706497D01*
X144205302Y-95741236D01*
X144216735Y-95778923D01*
X144221200Y-95824261D01*
X144221200Y-96910939D01*
X144216735Y-96956277D01*
X144205302Y-96993964D01*
X144186734Y-97028703D01*
X144161748Y-97059148D01*
X144131303Y-97084134D01*
X144096564Y-97102702D01*
X144058877Y-97114135D01*
X144013539Y-97118600D01*
X143176861Y-97118600D01*
X143131523Y-97114135D01*
X143093836Y-97102702D01*
X143059097Y-97084134D01*
X143028652Y-97059148D01*
X143003666Y-97028703D01*
X142985098Y-96993964D01*
X142973665Y-96956277D01*
X142969200Y-96910939D01*
X142969200Y-95824261D01*
X142973665Y-95778923D01*
X142985098Y-95741236D01*
X143003666Y-95706497D01*
X143028652Y-95676052D01*
X143059097Y-95651066D01*
X143093836Y-95632498D01*
X143131523Y-95621065D01*
X143176861Y-95616600D01*
X144013539Y-95616600D01*
X144058877Y-95621065D01*
X144058877Y-95621065D01*
G37*
G36*
X145949577Y-95608365D02*
X145987264Y-95619798D01*
X146022003Y-95638366D01*
X146052448Y-95663352D01*
X146077434Y-95693797D01*
X146096002Y-95728536D01*
X146107435Y-95766223D01*
X146111900Y-95811561D01*
X146111900Y-96898239D01*
X146107435Y-96943577D01*
X146096002Y-96981264D01*
X146077434Y-97016003D01*
X146052448Y-97046448D01*
X146022003Y-97071434D01*
X145987264Y-97090002D01*
X145949577Y-97101435D01*
X145904239Y-97105900D01*
X145067561Y-97105900D01*
X145022223Y-97101435D01*
X144984536Y-97090002D01*
X144949797Y-97071434D01*
X144919352Y-97046448D01*
X144894366Y-97016003D01*
X144875798Y-96981264D01*
X144864365Y-96943577D01*
X144859900Y-96898239D01*
X144859900Y-95811561D01*
X144864365Y-95766223D01*
X144875798Y-95728536D01*
X144894366Y-95693797D01*
X144919352Y-95663352D01*
X144949797Y-95638366D01*
X144984536Y-95619798D01*
X145022223Y-95608365D01*
X145067561Y-95603900D01*
X145904239Y-95603900D01*
X145949577Y-95608365D01*
X145949577Y-95608365D01*
G37*
G36*
X147999577Y-95608365D02*
X148037264Y-95619798D01*
X148072003Y-95638366D01*
X148102448Y-95663352D01*
X148127434Y-95693797D01*
X148146002Y-95728536D01*
X148157435Y-95766223D01*
X148161900Y-95811561D01*
X148161900Y-96898239D01*
X148157435Y-96943577D01*
X148146002Y-96981264D01*
X148127434Y-97016003D01*
X148102448Y-97046448D01*
X148072003Y-97071434D01*
X148037264Y-97090002D01*
X147999577Y-97101435D01*
X147954239Y-97105900D01*
X147117561Y-97105900D01*
X147072223Y-97101435D01*
X147034536Y-97090002D01*
X146999797Y-97071434D01*
X146969352Y-97046448D01*
X146944366Y-97016003D01*
X146925798Y-96981264D01*
X146914365Y-96943577D01*
X146909900Y-96898239D01*
X146909900Y-95811561D01*
X146914365Y-95766223D01*
X146925798Y-95728536D01*
X146944366Y-95693797D01*
X146969352Y-95663352D01*
X146999797Y-95638366D01*
X147034536Y-95619798D01*
X147072223Y-95608365D01*
X147117561Y-95603900D01*
X147954239Y-95603900D01*
X147999577Y-95608365D01*
X147999577Y-95608365D01*
G37*
G36*
X159852896Y-94653046D02*
X160025966Y-94724734D01*
X160181730Y-94828812D01*
X160314188Y-94961270D01*
X160418266Y-95117034D01*
X160489954Y-95290104D01*
X160526500Y-95473833D01*
X160526500Y-95661167D01*
X160489954Y-95844896D01*
X160418266Y-96017966D01*
X160314188Y-96173730D01*
X160181730Y-96306188D01*
X160025966Y-96410266D01*
X159852896Y-96481954D01*
X159669167Y-96518500D01*
X159481833Y-96518500D01*
X159298104Y-96481954D01*
X159125034Y-96410266D01*
X158969270Y-96306188D01*
X158836812Y-96173730D01*
X158732734Y-96017966D01*
X158661046Y-95844896D01*
X158624500Y-95661167D01*
X158624500Y-95473833D01*
X158661046Y-95290104D01*
X158732734Y-95117034D01*
X158836812Y-94961270D01*
X158969270Y-94828812D01*
X159125034Y-94724734D01*
X159298104Y-94653046D01*
X159481833Y-94616500D01*
X159669167Y-94616500D01*
X159852896Y-94653046D01*
X159852896Y-94653046D01*
G37*
G36*
X139200440Y-96450620D02*
X137899560Y-96450620D01*
X137899560Y-95551060D01*
X139200440Y-95551060D01*
X139200440Y-96450620D01*
X139200440Y-96450620D01*
G37*
G36*
X138552360Y-95049740D02*
X137551200Y-95049740D01*
X137551200Y-94150180D01*
X138552360Y-94150180D01*
X138552360Y-95049740D01*
X138552360Y-95049740D01*
G37*
G36*
X145949577Y-93462065D02*
X145987264Y-93473498D01*
X146022003Y-93492066D01*
X146052448Y-93517052D01*
X146077434Y-93547497D01*
X146096002Y-93582236D01*
X146107435Y-93619923D01*
X146111900Y-93665261D01*
X146111900Y-94751939D01*
X146107435Y-94797277D01*
X146096002Y-94834964D01*
X146077434Y-94869703D01*
X146052448Y-94900148D01*
X146022003Y-94925134D01*
X145987264Y-94943702D01*
X145949577Y-94955135D01*
X145904239Y-94959600D01*
X145067561Y-94959600D01*
X145022223Y-94955135D01*
X144984536Y-94943702D01*
X144949797Y-94925134D01*
X144919352Y-94900148D01*
X144894366Y-94869703D01*
X144875798Y-94834964D01*
X144864365Y-94797277D01*
X144859900Y-94751939D01*
X144859900Y-93665261D01*
X144864365Y-93619923D01*
X144875798Y-93582236D01*
X144894366Y-93547497D01*
X144919352Y-93517052D01*
X144949797Y-93492066D01*
X144984536Y-93473498D01*
X145022223Y-93462065D01*
X145067561Y-93457600D01*
X145904239Y-93457600D01*
X145949577Y-93462065D01*
X145949577Y-93462065D01*
G37*
G36*
X147999577Y-93462065D02*
X148037264Y-93473498D01*
X148072003Y-93492066D01*
X148102448Y-93517052D01*
X148127434Y-93547497D01*
X148146002Y-93582236D01*
X148157435Y-93619923D01*
X148161900Y-93665261D01*
X148161900Y-94751939D01*
X148157435Y-94797277D01*
X148146002Y-94834964D01*
X148127434Y-94869703D01*
X148102448Y-94900148D01*
X148072003Y-94925134D01*
X148037264Y-94943702D01*
X147999577Y-94955135D01*
X147954239Y-94959600D01*
X147117561Y-94959600D01*
X147072223Y-94955135D01*
X147034536Y-94943702D01*
X146999797Y-94925134D01*
X146969352Y-94900148D01*
X146944366Y-94869703D01*
X146925798Y-94834964D01*
X146914365Y-94797277D01*
X146909900Y-94751939D01*
X146909900Y-93665261D01*
X146914365Y-93619923D01*
X146925798Y-93582236D01*
X146944366Y-93547497D01*
X146969352Y-93517052D01*
X146999797Y-93492066D01*
X147034536Y-93473498D01*
X147072223Y-93462065D01*
X147117561Y-93457600D01*
X147954239Y-93457600D01*
X147999577Y-93462065D01*
X147999577Y-93462065D01*
G37*
G36*
X136900440Y-94948100D02*
X135599560Y-94948100D01*
X135599560Y-94048540D01*
X136900440Y-94048540D01*
X136900440Y-94948100D01*
X136900440Y-94948100D01*
G37*
G36*
X132902360Y-94899740D02*
X131901200Y-94899740D01*
X131901200Y-94000180D01*
X132902360Y-94000180D01*
X132902360Y-94899740D01*
X132902360Y-94899740D01*
G37*
G36*
X144048940Y-94700440D02*
X143149380Y-94700440D01*
X143149380Y-93399560D01*
X144048940Y-93399560D01*
X144048940Y-94700440D01*
X144048940Y-94700440D01*
G37*
G36*
X142250620Y-94700440D02*
X141351060Y-94700440D01*
X141351060Y-93399560D01*
X142250620Y-93399560D01*
X142250620Y-94700440D01*
X142250620Y-94700440D01*
G37*
G36*
X140650400Y-94099780D02*
X139649240Y-94099780D01*
X139649240Y-93200220D01*
X140650400Y-93200220D01*
X140650400Y-94099780D01*
X140650400Y-94099780D01*
G37*
G36*
X159852896Y-92153046D02*
X160025966Y-92224734D01*
X160181730Y-92328812D01*
X160314188Y-92461270D01*
X160418266Y-92617034D01*
X160489954Y-92790104D01*
X160526500Y-92973833D01*
X160526500Y-93161167D01*
X160489954Y-93344896D01*
X160418266Y-93517966D01*
X160314188Y-93673730D01*
X160181730Y-93806188D01*
X160025966Y-93910266D01*
X159852896Y-93981954D01*
X159669167Y-94018500D01*
X159481833Y-94018500D01*
X159298104Y-93981954D01*
X159125034Y-93910266D01*
X158969270Y-93806188D01*
X158836812Y-93673730D01*
X158732734Y-93517966D01*
X158661046Y-93344896D01*
X158624500Y-93161167D01*
X158624500Y-92973833D01*
X158661046Y-92790104D01*
X158732734Y-92617034D01*
X158836812Y-92461270D01*
X158969270Y-92328812D01*
X159125034Y-92224734D01*
X159298104Y-92153046D01*
X159481833Y-92116500D01*
X159669167Y-92116500D01*
X159852896Y-92153046D01*
X159852896Y-92153046D01*
G37*
G36*
X135000400Y-93949780D02*
X133999240Y-93949780D01*
X133999240Y-93050220D01*
X135000400Y-93050220D01*
X135000400Y-93949780D01*
X135000400Y-93949780D01*
G37*
G36*
X156709777Y-91979465D02*
X156747464Y-91990898D01*
X156782203Y-92009466D01*
X156812648Y-92034452D01*
X156837634Y-92064897D01*
X156856202Y-92099636D01*
X156867635Y-92137323D01*
X156872100Y-92182661D01*
X156872100Y-93019339D01*
X156867635Y-93064677D01*
X156856202Y-93102364D01*
X156837634Y-93137103D01*
X156812648Y-93167548D01*
X156782203Y-93192534D01*
X156747464Y-93211102D01*
X156709777Y-93222535D01*
X156664439Y-93227000D01*
X155577761Y-93227000D01*
X155532423Y-93222535D01*
X155494736Y-93211102D01*
X155459997Y-93192534D01*
X155429552Y-93167548D01*
X155404566Y-93137103D01*
X155385998Y-93102364D01*
X155374565Y-93064677D01*
X155370100Y-93019339D01*
X155370100Y-92182661D01*
X155374565Y-92137323D01*
X155385998Y-92099636D01*
X155404566Y-92064897D01*
X155429552Y-92034452D01*
X155459997Y-92009466D01*
X155494736Y-91990898D01*
X155532423Y-91979465D01*
X155577761Y-91975000D01*
X156664439Y-91975000D01*
X156709777Y-91979465D01*
X156709777Y-91979465D01*
G37*
G36*
X138552360Y-93149820D02*
X137551200Y-93149820D01*
X137551200Y-92250260D01*
X138552360Y-92250260D01*
X138552360Y-93149820D01*
X138552360Y-93149820D01*
G37*
G36*
X136900440Y-93149780D02*
X135599560Y-93149780D01*
X135599560Y-92250220D01*
X136900440Y-92250220D01*
X136900440Y-93149780D01*
X136900440Y-93149780D01*
G37*
G36*
X132902360Y-92999820D02*
X131901200Y-92999820D01*
X131901200Y-92100260D01*
X132902360Y-92100260D01*
X132902360Y-92999820D01*
X132902360Y-92999820D01*
G37*
G36*
X159852896Y-89653046D02*
X160025966Y-89724734D01*
X160181730Y-89828812D01*
X160314188Y-89961270D01*
X160418266Y-90117034D01*
X160489954Y-90290104D01*
X160526500Y-90473833D01*
X160526500Y-90661167D01*
X160489954Y-90844896D01*
X160418266Y-91017966D01*
X160314188Y-91173730D01*
X160181730Y-91306188D01*
X160025966Y-91410266D01*
X159852896Y-91481954D01*
X159669167Y-91518500D01*
X159481833Y-91518500D01*
X159298104Y-91481954D01*
X159125034Y-91410266D01*
X158969270Y-91306188D01*
X158836812Y-91173730D01*
X158732734Y-91017966D01*
X158661046Y-90844896D01*
X158624500Y-90661167D01*
X158624500Y-90473833D01*
X158661046Y-90290104D01*
X158732734Y-90117034D01*
X158836812Y-89961270D01*
X158969270Y-89828812D01*
X159125034Y-89724734D01*
X159298104Y-89653046D01*
X159481833Y-89616500D01*
X159669167Y-89616500D01*
X159852896Y-89653046D01*
X159852896Y-89653046D01*
G37*
G36*
X156709777Y-89929465D02*
X156747464Y-89940898D01*
X156782203Y-89959466D01*
X156812648Y-89984452D01*
X156837634Y-90014897D01*
X156856202Y-90049636D01*
X156867635Y-90087323D01*
X156872100Y-90132661D01*
X156872100Y-90969339D01*
X156867635Y-91014677D01*
X156856202Y-91052364D01*
X156837634Y-91087103D01*
X156812648Y-91117548D01*
X156782203Y-91142534D01*
X156747464Y-91161102D01*
X156709777Y-91172535D01*
X156664439Y-91177000D01*
X155577761Y-91177000D01*
X155532423Y-91172535D01*
X155494736Y-91161102D01*
X155459997Y-91142534D01*
X155429552Y-91117548D01*
X155404566Y-91087103D01*
X155385998Y-91052364D01*
X155374565Y-91014677D01*
X155370100Y-90969339D01*
X155370100Y-90132661D01*
X155374565Y-90087323D01*
X155385998Y-90049636D01*
X155404566Y-90014897D01*
X155429552Y-89984452D01*
X155459997Y-89959466D01*
X155494736Y-89940898D01*
X155532423Y-89929465D01*
X155577761Y-89925000D01*
X156664439Y-89925000D01*
X156709777Y-89929465D01*
X156709777Y-89929465D01*
G37*
G36*
X167173752Y-86695318D02*
X167173754Y-86695319D01*
X167173755Y-86695319D01*
X167547013Y-86849927D01*
X167622479Y-86900352D01*
X167882939Y-87074386D01*
X168168614Y-87360061D01*
X168168616Y-87360064D01*
X168393073Y-87695987D01*
X168547681Y-88069245D01*
X168547682Y-88069248D01*
X168626500Y-88465493D01*
X168626500Y-88869507D01*
X168550939Y-89249380D01*
X168547681Y-89265755D01*
X168393073Y-89639013D01*
X168188139Y-89945718D01*
X168168614Y-89974939D01*
X167882939Y-90260614D01*
X167882936Y-90260616D01*
X167547013Y-90485073D01*
X167173755Y-90639681D01*
X167173754Y-90639681D01*
X167173752Y-90639682D01*
X166777507Y-90718500D01*
X166373493Y-90718500D01*
X165977248Y-90639682D01*
X165977246Y-90639681D01*
X165977245Y-90639681D01*
X165603987Y-90485073D01*
X165268064Y-90260616D01*
X165268061Y-90260614D01*
X164982386Y-89974939D01*
X164962861Y-89945718D01*
X164757927Y-89639013D01*
X164603319Y-89265755D01*
X164600062Y-89249380D01*
X164524500Y-88869507D01*
X164524500Y-88465493D01*
X164603318Y-88069248D01*
X164603319Y-88069245D01*
X164757927Y-87695987D01*
X164982384Y-87360064D01*
X164982386Y-87360061D01*
X165268061Y-87074386D01*
X165528521Y-86900352D01*
X165603987Y-86849927D01*
X165977245Y-86695319D01*
X165977246Y-86695319D01*
X165977248Y-86695318D01*
X166373493Y-86616500D01*
X166777507Y-86616500D01*
X167173752Y-86695318D01*
X167173752Y-86695318D01*
G37*
G36*
X132950440Y-90148940D02*
X131649560Y-90148940D01*
X131649560Y-89249380D01*
X132950440Y-89249380D01*
X132950440Y-90148940D01*
X132950440Y-90148940D01*
G37*
G36*
X138000900Y-88392100D02*
X134398900Y-88392100D01*
X134398900Y-86690100D01*
X138000900Y-86690100D01*
X138000900Y-88392100D01*
X138000900Y-88392100D01*
G37*
G36*
X143400900Y-88392100D02*
X139798900Y-88392100D01*
X139798900Y-86690100D01*
X143400900Y-86690100D01*
X143400900Y-88392100D01*
X143400900Y-88392100D01*
G37*
G36*
X132950440Y-88350620D02*
X131649560Y-88350620D01*
X131649560Y-87451060D01*
X132950440Y-87451060D01*
X132950440Y-88350620D01*
X132950440Y-88350620D01*
G37*
G36*
X148550977Y-86845365D02*
X148588664Y-86856798D01*
X148623403Y-86875366D01*
X148653848Y-86900352D01*
X148678834Y-86930797D01*
X148697402Y-86965536D01*
X148708835Y-87003223D01*
X148713300Y-87048561D01*
X148713300Y-88135239D01*
X148708835Y-88180577D01*
X148697402Y-88218264D01*
X148678834Y-88253003D01*
X148653848Y-88283448D01*
X148623403Y-88308434D01*
X148588664Y-88327002D01*
X148550977Y-88338435D01*
X148505639Y-88342900D01*
X147668961Y-88342900D01*
X147623623Y-88338435D01*
X147585936Y-88327002D01*
X147551197Y-88308434D01*
X147520752Y-88283448D01*
X147495766Y-88253003D01*
X147477198Y-88218264D01*
X147465765Y-88180577D01*
X147461300Y-88135239D01*
X147461300Y-87048561D01*
X147465765Y-87003223D01*
X147477198Y-86965536D01*
X147495766Y-86930797D01*
X147520752Y-86900352D01*
X147551197Y-86875366D01*
X147585936Y-86856798D01*
X147623623Y-86845365D01*
X147668961Y-86840900D01*
X148505639Y-86840900D01*
X148550977Y-86845365D01*
X148550977Y-86845365D01*
G37*
G36*
X146500977Y-86845365D02*
X146538664Y-86856798D01*
X146573403Y-86875366D01*
X146603848Y-86900352D01*
X146628834Y-86930797D01*
X146647402Y-86965536D01*
X146658835Y-87003223D01*
X146663300Y-87048561D01*
X146663300Y-88135239D01*
X146658835Y-88180577D01*
X146647402Y-88218264D01*
X146628834Y-88253003D01*
X146603848Y-88283448D01*
X146573403Y-88308434D01*
X146538664Y-88327002D01*
X146500977Y-88338435D01*
X146455639Y-88342900D01*
X145618961Y-88342900D01*
X145573623Y-88338435D01*
X145535936Y-88327002D01*
X145501197Y-88308434D01*
X145470752Y-88283448D01*
X145445766Y-88253003D01*
X145427198Y-88218264D01*
X145415765Y-88180577D01*
X145411300Y-88135239D01*
X145411300Y-87048561D01*
X145415765Y-87003223D01*
X145427198Y-86965536D01*
X145445766Y-86930797D01*
X145470752Y-86900352D01*
X145501197Y-86875366D01*
X145535936Y-86856798D01*
X145573623Y-86845365D01*
X145618961Y-86840900D01*
X146455639Y-86840900D01*
X146500977Y-86845365D01*
X146500977Y-86845365D01*
G37*
G36*
X155528500Y-85412100D02*
X149026500Y-85412100D01*
X149026500Y-79510100D01*
X155528500Y-79510100D01*
X155528500Y-85412100D01*
X155528500Y-85412100D01*
G37*
G36*
X147128500Y-85392100D02*
X144826500Y-85392100D01*
X144826500Y-84090100D01*
X147128500Y-84090100D01*
X147128500Y-85392100D01*
X147128500Y-85392100D01*
G37*
G36*
X167046752Y-78299518D02*
X167046754Y-78299519D01*
X167046755Y-78299519D01*
X167420013Y-78454127D01*
X167662871Y-78616400D01*
X167755939Y-78678586D01*
X168041614Y-78964261D01*
X168041616Y-78964264D01*
X168266073Y-79300187D01*
X168420681Y-79673445D01*
X168499500Y-80069694D01*
X168499500Y-80473706D01*
X168420681Y-80869955D01*
X168266073Y-81243213D01*
X168044643Y-81574605D01*
X168041614Y-81579139D01*
X167755939Y-81864814D01*
X167755936Y-81864816D01*
X167420013Y-82089273D01*
X167046755Y-82243881D01*
X167046754Y-82243881D01*
X167046752Y-82243882D01*
X166650507Y-82322700D01*
X166246493Y-82322700D01*
X165850248Y-82243882D01*
X165850246Y-82243881D01*
X165850245Y-82243881D01*
X165476987Y-82089273D01*
X165141064Y-81864816D01*
X165141061Y-81864814D01*
X164855386Y-81579139D01*
X164852357Y-81574605D01*
X164630927Y-81243213D01*
X164476319Y-80869955D01*
X164397500Y-80473706D01*
X164397500Y-80069694D01*
X164476319Y-79673445D01*
X164630927Y-79300187D01*
X164855384Y-78964264D01*
X164855386Y-78964261D01*
X165141061Y-78678586D01*
X165234129Y-78616400D01*
X165476987Y-78454127D01*
X165850245Y-78299519D01*
X165850246Y-78299519D01*
X165850248Y-78299518D01*
X166246493Y-78220700D01*
X166650507Y-78220700D01*
X167046752Y-78299518D01*
X167046752Y-78299518D01*
G37*
G36*
X139769466Y-78633095D02*
X139926558Y-78680748D01*
X140071330Y-78758131D01*
X140198228Y-78862272D01*
X140302369Y-78989170D01*
X140379752Y-79133942D01*
X140427405Y-79291034D01*
X140444100Y-79460540D01*
X140444100Y-81374260D01*
X140427405Y-81543766D01*
X140379752Y-81700858D01*
X140302369Y-81845630D01*
X140198228Y-81972528D01*
X140071330Y-82076669D01*
X139926558Y-82154052D01*
X139769466Y-82201705D01*
X139599960Y-82218400D01*
X137686240Y-82218400D01*
X137516734Y-82201705D01*
X137359642Y-82154052D01*
X137214870Y-82076669D01*
X137087972Y-81972528D01*
X136983831Y-81845630D01*
X136906448Y-81700858D01*
X136858795Y-81543766D01*
X136842100Y-81374260D01*
X136842100Y-79460540D01*
X136858795Y-79291034D01*
X136906448Y-79133942D01*
X136983831Y-78989170D01*
X137087972Y-78862272D01*
X137214870Y-78758131D01*
X137359642Y-78680748D01*
X137516734Y-78633095D01*
X137686240Y-78616400D01*
X139599960Y-78616400D01*
X139769466Y-78633095D01*
X139769466Y-78633095D01*
G37*
G36*
X147128500Y-80832100D02*
X144826500Y-80832100D01*
X144826500Y-79530100D01*
X147128500Y-79530100D01*
X147128500Y-80832100D01*
X147128500Y-80832100D01*
G37*
G36*
X159725896Y-77457246D02*
X159898966Y-77528934D01*
X160054730Y-77633012D01*
X160187188Y-77765470D01*
X160291266Y-77921234D01*
X160362954Y-78094304D01*
X160399500Y-78278033D01*
X160399500Y-78465367D01*
X160362954Y-78649096D01*
X160291266Y-78822166D01*
X160187188Y-78977930D01*
X160054730Y-79110388D01*
X159898966Y-79214466D01*
X159725896Y-79286154D01*
X159542167Y-79322700D01*
X159354833Y-79322700D01*
X159171104Y-79286154D01*
X158998034Y-79214466D01*
X158842270Y-79110388D01*
X158709812Y-78977930D01*
X158605734Y-78822166D01*
X158534046Y-78649096D01*
X158497500Y-78465367D01*
X158497500Y-78278033D01*
X158534046Y-78094304D01*
X158605734Y-77921234D01*
X158709812Y-77765470D01*
X158842270Y-77633012D01*
X158998034Y-77528934D01*
X159171104Y-77457246D01*
X159354833Y-77420700D01*
X159542167Y-77420700D01*
X159725896Y-77457246D01*
X159725896Y-77457246D01*
G37*
G36*
X143444100Y-77518400D02*
X139842100Y-77518400D01*
X139842100Y-73916400D01*
X143444100Y-73916400D01*
X143444100Y-77518400D01*
X143444100Y-77518400D01*
G37*
G36*
X136620078Y-73930693D02*
X136753727Y-73971235D01*
X136876882Y-74037062D01*
X136984839Y-74125661D01*
X137073438Y-74233618D01*
X137139265Y-74356773D01*
X137179807Y-74490422D01*
X137194100Y-74635540D01*
X137194100Y-76799260D01*
X137179807Y-76944378D01*
X137139265Y-77078027D01*
X137073438Y-77201182D01*
X136984839Y-77309139D01*
X136876882Y-77397738D01*
X136753727Y-77463565D01*
X136620078Y-77504107D01*
X136474960Y-77518400D01*
X134811240Y-77518400D01*
X134666122Y-77504107D01*
X134532473Y-77463565D01*
X134409318Y-77397738D01*
X134301361Y-77309139D01*
X134212762Y-77201182D01*
X134146935Y-77078027D01*
X134106393Y-76944378D01*
X134092100Y-76799260D01*
X134092100Y-74635540D01*
X134106393Y-74490422D01*
X134146935Y-74356773D01*
X134212762Y-74233618D01*
X134301361Y-74125661D01*
X134409318Y-74037062D01*
X134532473Y-73971235D01*
X134666122Y-73930693D01*
X134811240Y-73916400D01*
X136474960Y-73916400D01*
X136620078Y-73930693D01*
X136620078Y-73930693D01*
G37*
G36*
X149741996Y-77513071D02*
X148039996Y-77513071D01*
X148039996Y-73911071D01*
X149741996Y-73911071D01*
X149741996Y-77513071D01*
X149741996Y-77513071D01*
G37*
G36*
X159725896Y-74957246D02*
X159898966Y-75028934D01*
X160054730Y-75133012D01*
X160187188Y-75265470D01*
X160291266Y-75421234D01*
X160362954Y-75594304D01*
X160399500Y-75778033D01*
X160399500Y-75965367D01*
X160362954Y-76149096D01*
X160291266Y-76322166D01*
X160187188Y-76477930D01*
X160054730Y-76610388D01*
X159898966Y-76714466D01*
X159725896Y-76786154D01*
X159542167Y-76822700D01*
X159354833Y-76822700D01*
X159171104Y-76786154D01*
X158998034Y-76714466D01*
X158842270Y-76610388D01*
X158709812Y-76477930D01*
X158605734Y-76322166D01*
X158534046Y-76149096D01*
X158497500Y-75965367D01*
X158497500Y-75778033D01*
X158534046Y-75594304D01*
X158605734Y-75421234D01*
X158709812Y-75265470D01*
X158842270Y-75133012D01*
X158998034Y-75028934D01*
X159171104Y-74957246D01*
X159354833Y-74920700D01*
X159542167Y-74920700D01*
X159725896Y-74957246D01*
X159725896Y-74957246D01*
G37*
G36*
X156506577Y-74847165D02*
X156544264Y-74858598D01*
X156579003Y-74877166D01*
X156609448Y-74902152D01*
X156634434Y-74932597D01*
X156653002Y-74967336D01*
X156664435Y-75005023D01*
X156668900Y-75050361D01*
X156668900Y-75887039D01*
X156664435Y-75932377D01*
X156653002Y-75970064D01*
X156634434Y-76004803D01*
X156609448Y-76035248D01*
X156579003Y-76060234D01*
X156544264Y-76078802D01*
X156506577Y-76090235D01*
X156461239Y-76094700D01*
X155374561Y-76094700D01*
X155329223Y-76090235D01*
X155291536Y-76078802D01*
X155256797Y-76060234D01*
X155226352Y-76035248D01*
X155201366Y-76004803D01*
X155182798Y-75970064D01*
X155171365Y-75932377D01*
X155166900Y-75887039D01*
X155166900Y-75050361D01*
X155171365Y-75005023D01*
X155182798Y-74967336D01*
X155201366Y-74932597D01*
X155226352Y-74902152D01*
X155256797Y-74877166D01*
X155291536Y-74858598D01*
X155329223Y-74847165D01*
X155374561Y-74842700D01*
X156461239Y-74842700D01*
X156506577Y-74847165D01*
X156506577Y-74847165D01*
G37*
G36*
X159725896Y-72457246D02*
X159898966Y-72528934D01*
X160054730Y-72633012D01*
X160187188Y-72765470D01*
X160291266Y-72921234D01*
X160362954Y-73094304D01*
X160399500Y-73278033D01*
X160399500Y-73465367D01*
X160362954Y-73649096D01*
X160291266Y-73822166D01*
X160187188Y-73977930D01*
X160054730Y-74110388D01*
X159898966Y-74214466D01*
X159725896Y-74286154D01*
X159542167Y-74322700D01*
X159354833Y-74322700D01*
X159171104Y-74286154D01*
X158998034Y-74214466D01*
X158842270Y-74110388D01*
X158709812Y-73977930D01*
X158605734Y-73822166D01*
X158534046Y-73649096D01*
X158497500Y-73465367D01*
X158497500Y-73278033D01*
X158534046Y-73094304D01*
X158605734Y-72921234D01*
X158709812Y-72765470D01*
X158842270Y-72633012D01*
X158998034Y-72528934D01*
X159171104Y-72457246D01*
X159354833Y-72420700D01*
X159542167Y-72420700D01*
X159725896Y-72457246D01*
X159725896Y-72457246D01*
G37*
G36*
X156506577Y-72797165D02*
X156544264Y-72808598D01*
X156579003Y-72827166D01*
X156609448Y-72852152D01*
X156634434Y-72882597D01*
X156653002Y-72917336D01*
X156664435Y-72955023D01*
X156668900Y-73000361D01*
X156668900Y-73837039D01*
X156664435Y-73882377D01*
X156653002Y-73920064D01*
X156634434Y-73954803D01*
X156609448Y-73985248D01*
X156579003Y-74010234D01*
X156544264Y-74028802D01*
X156506577Y-74040235D01*
X156461239Y-74044700D01*
X155374561Y-74044700D01*
X155329223Y-74040235D01*
X155291536Y-74028802D01*
X155256797Y-74010234D01*
X155226352Y-73985248D01*
X155201366Y-73954803D01*
X155182798Y-73920064D01*
X155171365Y-73882377D01*
X155166900Y-73837039D01*
X155166900Y-73000361D01*
X155171365Y-72955023D01*
X155182798Y-72917336D01*
X155201366Y-72882597D01*
X155226352Y-72852152D01*
X155256797Y-72827166D01*
X155291536Y-72808598D01*
X155329223Y-72797165D01*
X155374561Y-72792700D01*
X156461239Y-72792700D01*
X156506577Y-72797165D01*
X156506577Y-72797165D01*
G37*
G36*
X167046752Y-69499518D02*
X167046754Y-69499519D01*
X167046755Y-69499519D01*
X167420013Y-69654127D01*
X167420014Y-69654128D01*
X167755939Y-69878586D01*
X168041614Y-70164261D01*
X168041616Y-70164264D01*
X168266073Y-70500187D01*
X168420681Y-70873445D01*
X168499500Y-71269694D01*
X168499500Y-71673706D01*
X168420681Y-72069955D01*
X168266073Y-72443213D01*
X168208796Y-72528934D01*
X168041614Y-72779139D01*
X167755939Y-73064814D01*
X167755936Y-73064816D01*
X167420013Y-73289273D01*
X167046755Y-73443881D01*
X167046754Y-73443881D01*
X167046752Y-73443882D01*
X166650507Y-73522700D01*
X166246493Y-73522700D01*
X165850248Y-73443882D01*
X165850246Y-73443881D01*
X165850245Y-73443881D01*
X165476987Y-73289273D01*
X165141064Y-73064816D01*
X165141061Y-73064814D01*
X164855386Y-72779139D01*
X164688204Y-72528934D01*
X164630927Y-72443213D01*
X164476319Y-72069955D01*
X164397500Y-71673706D01*
X164397500Y-71269694D01*
X164476319Y-70873445D01*
X164630927Y-70500187D01*
X164855384Y-70164264D01*
X164855386Y-70164261D01*
X165141061Y-69878586D01*
X165476986Y-69654128D01*
X165476987Y-69654127D01*
X165850245Y-69499519D01*
X165850246Y-69499519D01*
X165850248Y-69499518D01*
X166246493Y-69420700D01*
X166650507Y-69420700D01*
X167046752Y-69499518D01*
X167046752Y-69499518D01*
G37*
G36*
X149741996Y-72113071D02*
X148039996Y-72113071D01*
X148039996Y-68511071D01*
X149741996Y-68511071D01*
X149741996Y-72113071D01*
X149741996Y-72113071D01*
G37*
M02*
