G04 #@! TF.GenerationSoftware,KiCad,Pcbnew,5.0.2-bee76a0~70~ubuntu18.04.1*
G04 #@! TF.CreationDate,2019-12-16T19:01:30-05:00*
G04 #@! TF.ProjectId,LEDStuff,4c454453-7475-4666-962e-6b696361645f,rev?*
G04 #@! TF.SameCoordinates,Original*
G04 #@! TF.FileFunction,Legend,Bot*
G04 #@! TF.FilePolarity,Positive*
%FSLAX46Y46*%
G04 Gerber Fmt 4.6, Leading zero omitted, Abs format (unit mm)*
G04 Created by KiCad (PCBNEW 5.0.2-bee76a0~70~ubuntu18.04.1) date Mon 16 Dec 2019 07:01:30 PM EST*
%MOMM*%
%LPD*%
G01*
G04 APERTURE LIST*
%ADD10C,0.203200*%
%ADD11C,0.152400*%
%ADD12C,0.127000*%
%ADD13C,0.101600*%
%ADD14C,0.025400*%
G04 APERTURE END LIST*
D10*
G04 #@! TO.C,J2*
X165310000Y-119365000D02*
X165945000Y-118730000D01*
X165945000Y-118730000D02*
X167215000Y-118730000D01*
X167215000Y-118730000D02*
X167850000Y-119365000D01*
X167850000Y-120635000D02*
X167215000Y-121270000D01*
X167215000Y-121270000D02*
X165945000Y-121270000D01*
X165945000Y-121270000D02*
X165310000Y-120635000D01*
X160865000Y-118730000D02*
X162135000Y-118730000D01*
X162135000Y-118730000D02*
X162770000Y-119365000D01*
X162770000Y-120635000D02*
X162135000Y-121270000D01*
X162770000Y-119365000D02*
X163405000Y-118730000D01*
X163405000Y-118730000D02*
X164675000Y-118730000D01*
X164675000Y-118730000D02*
X165310000Y-119365000D01*
X165310000Y-120635000D02*
X164675000Y-121270000D01*
X164675000Y-121270000D02*
X163405000Y-121270000D01*
X163405000Y-121270000D02*
X162770000Y-120635000D01*
X157690000Y-119365000D02*
X158325000Y-118730000D01*
X158325000Y-118730000D02*
X159595000Y-118730000D01*
X159595000Y-118730000D02*
X160230000Y-119365000D01*
X160230000Y-120635000D02*
X159595000Y-121270000D01*
X159595000Y-121270000D02*
X158325000Y-121270000D01*
X158325000Y-121270000D02*
X157690000Y-120635000D01*
X160865000Y-118730000D02*
X160230000Y-119365000D01*
X160230000Y-120635000D02*
X160865000Y-121270000D01*
X162135000Y-121270000D02*
X160865000Y-121270000D01*
X153245000Y-118730000D02*
X154515000Y-118730000D01*
X154515000Y-118730000D02*
X155150000Y-119365000D01*
X155150000Y-120635000D02*
X154515000Y-121270000D01*
X155150000Y-119365000D02*
X155785000Y-118730000D01*
X155785000Y-118730000D02*
X157055000Y-118730000D01*
X157055000Y-118730000D02*
X157690000Y-119365000D01*
X157690000Y-120635000D02*
X157055000Y-121270000D01*
X157055000Y-121270000D02*
X155785000Y-121270000D01*
X155785000Y-121270000D02*
X155150000Y-120635000D01*
X152610000Y-119365000D02*
X152610000Y-120635000D01*
X153245000Y-118730000D02*
X152610000Y-119365000D01*
X152610000Y-120635000D02*
X153245000Y-121270000D01*
X154515000Y-121270000D02*
X153245000Y-121270000D01*
X167850000Y-119365000D02*
X167850000Y-120635000D01*
G04 #@! TO.C,J3*
X142715000Y-122570000D02*
X141445000Y-122570000D01*
X141445000Y-122570000D02*
X140810000Y-121935000D01*
X140810000Y-120665000D02*
X141445000Y-120030000D01*
X145890000Y-121935000D02*
X145255000Y-122570000D01*
X145255000Y-122570000D02*
X143985000Y-122570000D01*
X143985000Y-122570000D02*
X143350000Y-121935000D01*
X143350000Y-120665000D02*
X143985000Y-120030000D01*
X143985000Y-120030000D02*
X145255000Y-120030000D01*
X145255000Y-120030000D02*
X145890000Y-120665000D01*
X142715000Y-122570000D02*
X143350000Y-121935000D01*
X143350000Y-120665000D02*
X142715000Y-120030000D01*
X141445000Y-120030000D02*
X142715000Y-120030000D01*
X150335000Y-122570000D02*
X149065000Y-122570000D01*
X149065000Y-122570000D02*
X148430000Y-121935000D01*
X148430000Y-120665000D02*
X149065000Y-120030000D01*
X148430000Y-121935000D02*
X147795000Y-122570000D01*
X147795000Y-122570000D02*
X146525000Y-122570000D01*
X146525000Y-122570000D02*
X145890000Y-121935000D01*
X145890000Y-120665000D02*
X146525000Y-120030000D01*
X146525000Y-120030000D02*
X147795000Y-120030000D01*
X147795000Y-120030000D02*
X148430000Y-120665000D01*
X150970000Y-121935000D02*
X150970000Y-120665000D01*
X150335000Y-122570000D02*
X150970000Y-121935000D01*
X150970000Y-120665000D02*
X150335000Y-120030000D01*
X149065000Y-120030000D02*
X150335000Y-120030000D01*
X140810000Y-121935000D02*
X140810000Y-120665000D01*
G04 #@! TO.C,J4*
X133365000Y-120030000D02*
X134635000Y-120030000D01*
X134635000Y-120030000D02*
X135270000Y-120665000D01*
X135270000Y-121935000D02*
X134635000Y-122570000D01*
X135270000Y-120665000D02*
X135905000Y-120030000D01*
X135905000Y-120030000D02*
X137175000Y-120030000D01*
X137175000Y-120030000D02*
X137810000Y-120665000D01*
X137810000Y-121935000D02*
X137175000Y-122570000D01*
X137175000Y-122570000D02*
X135905000Y-122570000D01*
X135905000Y-122570000D02*
X135270000Y-121935000D01*
X132730000Y-120665000D02*
X132730000Y-121935000D01*
X133365000Y-120030000D02*
X132730000Y-120665000D01*
X132730000Y-121935000D02*
X133365000Y-122570000D01*
X134635000Y-122570000D02*
X133365000Y-122570000D01*
X137810000Y-120665000D02*
X137810000Y-121935000D01*
G04 #@! TO.C,Q4*
X134098500Y-92702440D02*
X134098500Y-92100460D01*
X134098500Y-92100460D02*
X133300940Y-92100460D01*
X134098500Y-94297560D02*
X134098500Y-94899540D01*
X134098500Y-94899540D02*
X133300940Y-94899540D01*
G04 #@! TO.C,Q5*
X139748500Y-95049540D02*
X138950940Y-95049540D01*
X139748500Y-94447560D02*
X139748500Y-95049540D01*
X139748500Y-92250460D02*
X138950940Y-92250460D01*
X139748500Y-92852440D02*
X139748500Y-92250460D01*
D11*
G04 #@! TO.C,R3*
X142400280Y-94649440D02*
X142999720Y-94649440D01*
X142400280Y-93450560D02*
X142999720Y-93450560D01*
G04 #@! TO.C,R4*
X137950560Y-97199720D02*
X137950560Y-96600280D01*
X139149440Y-97199720D02*
X139149440Y-96600280D01*
G04 #@! TO.C,R5*
X135650560Y-93299440D02*
X135650560Y-93898880D01*
X136849440Y-93299440D02*
X136849440Y-93898880D01*
G04 #@! TO.C,R6*
X132899440Y-88500280D02*
X132899440Y-89099720D01*
X131700560Y-88500280D02*
X131700560Y-89099720D01*
G04 #@! TO.C,J2*
D12*
X155285466Y-116840723D02*
X155285466Y-117747866D01*
X155224990Y-117929295D01*
X155104038Y-118050247D01*
X154922609Y-118110723D01*
X154801657Y-118110723D01*
X155829752Y-116961676D02*
X155890228Y-116901200D01*
X156011180Y-116840723D01*
X156313561Y-116840723D01*
X156434514Y-116901200D01*
X156494990Y-116961676D01*
X156555466Y-117082628D01*
X156555466Y-117203580D01*
X156494990Y-117385009D01*
X155769276Y-118110723D01*
X156555466Y-118110723D01*
D13*
X151219047Y-122751666D02*
X151823809Y-122751666D01*
X151098095Y-123114523D02*
X151521428Y-121844523D01*
X151944761Y-123114523D01*
X152186666Y-121844523D02*
X152610000Y-123114523D01*
X153033333Y-121844523D01*
X154182380Y-123114523D02*
X153759047Y-122509761D01*
X153456666Y-123114523D02*
X153456666Y-121844523D01*
X153940476Y-121844523D01*
X154061428Y-121905000D01*
X154121904Y-121965476D01*
X154182380Y-122086428D01*
X154182380Y-122267857D01*
X154121904Y-122388809D01*
X154061428Y-122449285D01*
X153940476Y-122509761D01*
X153456666Y-122509761D01*
X154726666Y-122630714D02*
X155694285Y-122630714D01*
X156299047Y-123114523D02*
X156299047Y-121844523D01*
X156843333Y-123054047D02*
X157024761Y-123114523D01*
X157327142Y-123114523D01*
X157448095Y-123054047D01*
X157508571Y-122993571D01*
X157569047Y-122872619D01*
X157569047Y-122751666D01*
X157508571Y-122630714D01*
X157448095Y-122570238D01*
X157327142Y-122509761D01*
X157085238Y-122449285D01*
X156964285Y-122388809D01*
X156903809Y-122328333D01*
X156843333Y-122207380D01*
X156843333Y-122086428D01*
X156903809Y-121965476D01*
X156964285Y-121905000D01*
X157085238Y-121844523D01*
X157387619Y-121844523D01*
X157569047Y-121905000D01*
X158113333Y-123114523D02*
X158113333Y-121844523D01*
X158597142Y-121844523D01*
X158718095Y-121905000D01*
X158778571Y-121965476D01*
X158839047Y-122086428D01*
X158839047Y-122267857D01*
X158778571Y-122388809D01*
X158718095Y-122449285D01*
X158597142Y-122509761D01*
X158113333Y-122509761D01*
X159383333Y-122630714D02*
X160350952Y-122630714D01*
X161500000Y-121844523D02*
X161258095Y-121844523D01*
X161137142Y-121905000D01*
X161076666Y-121965476D01*
X160955714Y-122146904D01*
X160895238Y-122388809D01*
X160895238Y-122872619D01*
X160955714Y-122993571D01*
X161016190Y-123054047D01*
X161137142Y-123114523D01*
X161379047Y-123114523D01*
X161500000Y-123054047D01*
X161560476Y-122993571D01*
X161620952Y-122872619D01*
X161620952Y-122570238D01*
X161560476Y-122449285D01*
X161500000Y-122388809D01*
X161379047Y-122328333D01*
X161137142Y-122328333D01*
X161016190Y-122388809D01*
X160955714Y-122449285D01*
X160895238Y-122570238D01*
G04 #@! TO.C,J3*
D12*
X139476666Y-119404523D02*
X139476666Y-120311666D01*
X139416190Y-120493095D01*
X139295238Y-120614047D01*
X139113809Y-120674523D01*
X138992857Y-120674523D01*
X139960476Y-119404523D02*
X140746666Y-119404523D01*
X140323333Y-119888333D01*
X140504761Y-119888333D01*
X140625714Y-119948809D01*
X140686190Y-120009285D01*
X140746666Y-120130238D01*
X140746666Y-120432619D01*
X140686190Y-120553571D01*
X140625714Y-120614047D01*
X140504761Y-120674523D01*
X140141904Y-120674523D01*
X140020952Y-120614047D01*
X139960476Y-120553571D01*
D13*
X139751666Y-119213571D02*
X139691190Y-119274047D01*
X139509761Y-119334523D01*
X139388809Y-119334523D01*
X139207380Y-119274047D01*
X139086428Y-119153095D01*
X139025952Y-119032142D01*
X138965476Y-118790238D01*
X138965476Y-118608809D01*
X139025952Y-118366904D01*
X139086428Y-118245952D01*
X139207380Y-118125000D01*
X139388809Y-118064523D01*
X139509761Y-118064523D01*
X139691190Y-118125000D01*
X139751666Y-118185476D01*
X140477380Y-119334523D02*
X140356428Y-119274047D01*
X140295952Y-119213571D01*
X140235476Y-119092619D01*
X140235476Y-118729761D01*
X140295952Y-118608809D01*
X140356428Y-118548333D01*
X140477380Y-118487857D01*
X140658809Y-118487857D01*
X140779761Y-118548333D01*
X140840238Y-118608809D01*
X140900714Y-118729761D01*
X140900714Y-119092619D01*
X140840238Y-119213571D01*
X140779761Y-119274047D01*
X140658809Y-119334523D01*
X140477380Y-119334523D01*
X141445000Y-118487857D02*
X141445000Y-119334523D01*
X141445000Y-118608809D02*
X141505476Y-118548333D01*
X141626428Y-118487857D01*
X141807857Y-118487857D01*
X141928809Y-118548333D01*
X141989285Y-118669285D01*
X141989285Y-119334523D01*
X142594047Y-118487857D02*
X142594047Y-119334523D01*
X142594047Y-118608809D02*
X142654523Y-118548333D01*
X142775476Y-118487857D01*
X142956904Y-118487857D01*
X143077857Y-118548333D01*
X143138333Y-118669285D01*
X143138333Y-119334523D01*
X143440714Y-119455476D02*
X144408333Y-119455476D01*
X144952619Y-118064523D02*
X145073571Y-118064523D01*
X145194523Y-118125000D01*
X145255000Y-118185476D01*
X145315476Y-118306428D01*
X145375952Y-118548333D01*
X145375952Y-118850714D01*
X145315476Y-119092619D01*
X145255000Y-119213571D01*
X145194523Y-119274047D01*
X145073571Y-119334523D01*
X144952619Y-119334523D01*
X144831666Y-119274047D01*
X144771190Y-119213571D01*
X144710714Y-119092619D01*
X144650238Y-118850714D01*
X144650238Y-118548333D01*
X144710714Y-118306428D01*
X144771190Y-118185476D01*
X144831666Y-118125000D01*
X144952619Y-118064523D01*
X146585476Y-119334523D02*
X145859761Y-119334523D01*
X146222619Y-119334523D02*
X146222619Y-118064523D01*
X146101666Y-118245952D01*
X145980714Y-118366904D01*
X145859761Y-118427380D01*
X147008809Y-119334523D02*
X147674047Y-118487857D01*
X147008809Y-118487857D02*
X147674047Y-119334523D01*
X148399761Y-118064523D02*
X148520714Y-118064523D01*
X148641666Y-118125000D01*
X148702142Y-118185476D01*
X148762619Y-118306428D01*
X148823095Y-118548333D01*
X148823095Y-118850714D01*
X148762619Y-119092619D01*
X148702142Y-119213571D01*
X148641666Y-119274047D01*
X148520714Y-119334523D01*
X148399761Y-119334523D01*
X148278809Y-119274047D01*
X148218333Y-119213571D01*
X148157857Y-119092619D01*
X148097380Y-118850714D01*
X148097380Y-118548333D01*
X148157857Y-118306428D01*
X148218333Y-118185476D01*
X148278809Y-118125000D01*
X148399761Y-118064523D01*
X149911666Y-118487857D02*
X149911666Y-119334523D01*
X149609285Y-118004047D02*
X149306904Y-118911190D01*
X150093095Y-118911190D01*
X150274523Y-119455476D02*
X151242142Y-119455476D01*
X151544523Y-119334523D02*
X151544523Y-118064523D01*
X151967857Y-118971666D01*
X152391190Y-118064523D01*
X152391190Y-119334523D01*
X153540238Y-119334523D02*
X153540238Y-118669285D01*
X153479761Y-118548333D01*
X153358809Y-118487857D01*
X153116904Y-118487857D01*
X152995952Y-118548333D01*
X153540238Y-119274047D02*
X153419285Y-119334523D01*
X153116904Y-119334523D01*
X152995952Y-119274047D01*
X152935476Y-119153095D01*
X152935476Y-119032142D01*
X152995952Y-118911190D01*
X153116904Y-118850714D01*
X153419285Y-118850714D01*
X153540238Y-118790238D01*
X154326428Y-119334523D02*
X154205476Y-119274047D01*
X154145000Y-119153095D01*
X154145000Y-118064523D01*
X155294047Y-119274047D02*
X155173095Y-119334523D01*
X154931190Y-119334523D01*
X154810238Y-119274047D01*
X154749761Y-119153095D01*
X154749761Y-118669285D01*
X154810238Y-118548333D01*
X154931190Y-118487857D01*
X155173095Y-118487857D01*
X155294047Y-118548333D01*
X155354523Y-118669285D01*
X155354523Y-118790238D01*
X154749761Y-118911190D01*
G04 #@! TO.C,J4*
D12*
X131776666Y-118554523D02*
X131776666Y-119461666D01*
X131716190Y-119643095D01*
X131595238Y-119764047D01*
X131413809Y-119824523D01*
X131292857Y-119824523D01*
X132925714Y-118977857D02*
X132925714Y-119824523D01*
X132623333Y-118494047D02*
X132320952Y-119401190D01*
X133107142Y-119401190D01*
D13*
X134514047Y-123144523D02*
X134514047Y-124172619D01*
X134574523Y-124293571D01*
X134635000Y-124354047D01*
X134755952Y-124414523D01*
X134997857Y-124414523D01*
X135118809Y-124354047D01*
X135179285Y-124293571D01*
X135239761Y-124172619D01*
X135239761Y-123144523D01*
X135784047Y-124051666D02*
X136388809Y-124051666D01*
X135663095Y-124414523D02*
X136086428Y-123144523D01*
X136509761Y-124414523D01*
X137658809Y-124414523D02*
X137235476Y-123809761D01*
X136933095Y-124414523D02*
X136933095Y-123144523D01*
X137416904Y-123144523D01*
X137537857Y-123205000D01*
X137598333Y-123265476D01*
X137658809Y-123386428D01*
X137658809Y-123567857D01*
X137598333Y-123688809D01*
X137537857Y-123749285D01*
X137416904Y-123809761D01*
X136933095Y-123809761D01*
X138021666Y-123144523D02*
X138747380Y-123144523D01*
X138384523Y-124414523D02*
X138384523Y-123144523D01*
G04 #@! TO.C,Q4*
D14*
X135603752Y-93729204D02*
X135584400Y-93767909D01*
X135545695Y-93806614D01*
X135487638Y-93864671D01*
X135468285Y-93903376D01*
X135468285Y-93942080D01*
X135565047Y-93922728D02*
X135545695Y-93961433D01*
X135506990Y-94000138D01*
X135429580Y-94019490D01*
X135294114Y-94019490D01*
X135216704Y-94000138D01*
X135178000Y-93961433D01*
X135158647Y-93922728D01*
X135158647Y-93845319D01*
X135178000Y-93806614D01*
X135216704Y-93767909D01*
X135294114Y-93748557D01*
X135429580Y-93748557D01*
X135506990Y-93767909D01*
X135545695Y-93806614D01*
X135565047Y-93845319D01*
X135565047Y-93922728D01*
X135294114Y-93400214D02*
X135565047Y-93400214D01*
X135139295Y-93496976D02*
X135429580Y-93593738D01*
X135429580Y-93342157D01*
X133596547Y-97757523D02*
X133190147Y-97757523D01*
X133480433Y-97622057D01*
X133190147Y-97486590D01*
X133596547Y-97486590D01*
X133190147Y-97215657D02*
X133190147Y-97138247D01*
X133209500Y-97099542D01*
X133248204Y-97060838D01*
X133325614Y-97041485D01*
X133461080Y-97041485D01*
X133538490Y-97060838D01*
X133577195Y-97099542D01*
X133596547Y-97138247D01*
X133596547Y-97215657D01*
X133577195Y-97254361D01*
X133538490Y-97293066D01*
X133461080Y-97312419D01*
X133325614Y-97312419D01*
X133248204Y-97293066D01*
X133209500Y-97254361D01*
X133190147Y-97215657D01*
X133577195Y-96886666D02*
X133596547Y-96828609D01*
X133596547Y-96731847D01*
X133577195Y-96693142D01*
X133557842Y-96673790D01*
X133519138Y-96654438D01*
X133480433Y-96654438D01*
X133441728Y-96673790D01*
X133422376Y-96693142D01*
X133403023Y-96731847D01*
X133383671Y-96809257D01*
X133364319Y-96847961D01*
X133344966Y-96867314D01*
X133306261Y-96886666D01*
X133267557Y-96886666D01*
X133228852Y-96867314D01*
X133209500Y-96847961D01*
X133190147Y-96809257D01*
X133190147Y-96712495D01*
X133209500Y-96654438D01*
X133383671Y-96344800D02*
X133383671Y-96480266D01*
X133596547Y-96480266D02*
X133190147Y-96480266D01*
X133190147Y-96286742D01*
X133383671Y-96131923D02*
X133383671Y-95996457D01*
X133596547Y-95938400D02*
X133596547Y-96131923D01*
X133190147Y-96131923D01*
X133190147Y-95938400D01*
X133190147Y-95822285D02*
X133190147Y-95590057D01*
X133596547Y-95706171D02*
X133190147Y-95706171D01*
X133441728Y-95454590D02*
X133441728Y-95144952D01*
X133596547Y-94951428D02*
X133190147Y-94951428D01*
X133596547Y-94719200D01*
X133190147Y-94719200D01*
X133557842Y-94293447D02*
X133577195Y-94312800D01*
X133596547Y-94370857D01*
X133596547Y-94409561D01*
X133577195Y-94467619D01*
X133538490Y-94506323D01*
X133499785Y-94525676D01*
X133422376Y-94545028D01*
X133364319Y-94545028D01*
X133286909Y-94525676D01*
X133248204Y-94506323D01*
X133209500Y-94467619D01*
X133190147Y-94409561D01*
X133190147Y-94370857D01*
X133209500Y-94312800D01*
X133228852Y-94293447D01*
X133596547Y-94119276D02*
X133190147Y-94119276D01*
X133383671Y-94119276D02*
X133383671Y-93887047D01*
X133596547Y-93887047D02*
X133190147Y-93887047D01*
X133480433Y-93712876D02*
X133480433Y-93519352D01*
X133596547Y-93751580D02*
X133190147Y-93616114D01*
X133596547Y-93480647D01*
X133596547Y-93345180D02*
X133190147Y-93345180D01*
X133596547Y-93112952D01*
X133190147Y-93112952D01*
X133596547Y-92919428D02*
X133190147Y-92919428D01*
X133596547Y-92687200D01*
X133190147Y-92687200D01*
X133383671Y-92493676D02*
X133383671Y-92358209D01*
X133596547Y-92300152D02*
X133596547Y-92493676D01*
X133190147Y-92493676D01*
X133190147Y-92300152D01*
X133596547Y-91932457D02*
X133596547Y-92125980D01*
X133190147Y-92125980D01*
X133383671Y-91661523D02*
X133403023Y-91603466D01*
X133422376Y-91584114D01*
X133461080Y-91564761D01*
X133519138Y-91564761D01*
X133557842Y-91584114D01*
X133577195Y-91603466D01*
X133596547Y-91642171D01*
X133596547Y-91796990D01*
X133190147Y-91796990D01*
X133190147Y-91661523D01*
X133209500Y-91622819D01*
X133228852Y-91603466D01*
X133267557Y-91584114D01*
X133306261Y-91584114D01*
X133344966Y-91603466D01*
X133364319Y-91622819D01*
X133383671Y-91661523D01*
X133383671Y-91796990D01*
X133577195Y-91409942D02*
X133596547Y-91351885D01*
X133596547Y-91255123D01*
X133577195Y-91216419D01*
X133557842Y-91197066D01*
X133519138Y-91177714D01*
X133480433Y-91177714D01*
X133441728Y-91197066D01*
X133422376Y-91216419D01*
X133403023Y-91255123D01*
X133383671Y-91332533D01*
X133364319Y-91371238D01*
X133344966Y-91390590D01*
X133306261Y-91409942D01*
X133267557Y-91409942D01*
X133228852Y-91390590D01*
X133209500Y-91371238D01*
X133190147Y-91332533D01*
X133190147Y-91235771D01*
X133209500Y-91177714D01*
X133577195Y-91022895D02*
X133596547Y-90964838D01*
X133596547Y-90868076D01*
X133577195Y-90829371D01*
X133557842Y-90810019D01*
X133519138Y-90790666D01*
X133480433Y-90790666D01*
X133441728Y-90810019D01*
X133422376Y-90829371D01*
X133403023Y-90868076D01*
X133383671Y-90945485D01*
X133364319Y-90984190D01*
X133344966Y-91003542D01*
X133306261Y-91022895D01*
X133267557Y-91022895D01*
X133228852Y-91003542D01*
X133209500Y-90984190D01*
X133190147Y-90945485D01*
X133190147Y-90848723D01*
X133209500Y-90790666D01*
X133596547Y-90403619D02*
X133596547Y-90635847D01*
X133596547Y-90519733D02*
X133190147Y-90519733D01*
X133248204Y-90558438D01*
X133286909Y-90597142D01*
X133306261Y-90635847D01*
X133190147Y-90268152D02*
X133190147Y-90016571D01*
X133344966Y-90152038D01*
X133344966Y-90093980D01*
X133364319Y-90055276D01*
X133383671Y-90035923D01*
X133422376Y-90016571D01*
X133519138Y-90016571D01*
X133557842Y-90035923D01*
X133577195Y-90055276D01*
X133596547Y-90093980D01*
X133596547Y-90210095D01*
X133577195Y-90248800D01*
X133557842Y-90268152D01*
X133364319Y-89784342D02*
X133344966Y-89823047D01*
X133325614Y-89842400D01*
X133286909Y-89861752D01*
X133267557Y-89861752D01*
X133228852Y-89842400D01*
X133209500Y-89823047D01*
X133190147Y-89784342D01*
X133190147Y-89706933D01*
X133209500Y-89668228D01*
X133228852Y-89648876D01*
X133267557Y-89629523D01*
X133286909Y-89629523D01*
X133325614Y-89648876D01*
X133344966Y-89668228D01*
X133364319Y-89706933D01*
X133364319Y-89784342D01*
X133383671Y-89823047D01*
X133403023Y-89842400D01*
X133441728Y-89861752D01*
X133519138Y-89861752D01*
X133557842Y-89842400D01*
X133577195Y-89823047D01*
X133596547Y-89784342D01*
X133596547Y-89706933D01*
X133577195Y-89668228D01*
X133557842Y-89648876D01*
X133519138Y-89629523D01*
X133441728Y-89629523D01*
X133403023Y-89648876D01*
X133383671Y-89668228D01*
X133364319Y-89706933D01*
G04 #@! TO.C,Q5*
X141253752Y-93879204D02*
X141234400Y-93917909D01*
X141195695Y-93956614D01*
X141137638Y-94014671D01*
X141118285Y-94053376D01*
X141118285Y-94092080D01*
X141215047Y-94072728D02*
X141195695Y-94111433D01*
X141156990Y-94150138D01*
X141079580Y-94169490D01*
X140944114Y-94169490D01*
X140866704Y-94150138D01*
X140828000Y-94111433D01*
X140808647Y-94072728D01*
X140808647Y-93995319D01*
X140828000Y-93956614D01*
X140866704Y-93917909D01*
X140944114Y-93898557D01*
X141079580Y-93898557D01*
X141156990Y-93917909D01*
X141195695Y-93956614D01*
X141215047Y-93995319D01*
X141215047Y-94072728D01*
X140808647Y-93530861D02*
X140808647Y-93724385D01*
X141002171Y-93743738D01*
X140982819Y-93724385D01*
X140963466Y-93685680D01*
X140963466Y-93588919D01*
X140982819Y-93550214D01*
X141002171Y-93530861D01*
X141040876Y-93511509D01*
X141137638Y-93511509D01*
X141176342Y-93530861D01*
X141195695Y-93550214D01*
X141215047Y-93588919D01*
X141215047Y-93685680D01*
X141195695Y-93724385D01*
X141176342Y-93743738D01*
X139246547Y-97907523D02*
X138840147Y-97907523D01*
X139130433Y-97772057D01*
X138840147Y-97636590D01*
X139246547Y-97636590D01*
X138840147Y-97365657D02*
X138840147Y-97288247D01*
X138859500Y-97249542D01*
X138898204Y-97210838D01*
X138975614Y-97191485D01*
X139111080Y-97191485D01*
X139188490Y-97210838D01*
X139227195Y-97249542D01*
X139246547Y-97288247D01*
X139246547Y-97365657D01*
X139227195Y-97404361D01*
X139188490Y-97443066D01*
X139111080Y-97462419D01*
X138975614Y-97462419D01*
X138898204Y-97443066D01*
X138859500Y-97404361D01*
X138840147Y-97365657D01*
X139227195Y-97036666D02*
X139246547Y-96978609D01*
X139246547Y-96881847D01*
X139227195Y-96843142D01*
X139207842Y-96823790D01*
X139169138Y-96804438D01*
X139130433Y-96804438D01*
X139091728Y-96823790D01*
X139072376Y-96843142D01*
X139053023Y-96881847D01*
X139033671Y-96959257D01*
X139014319Y-96997961D01*
X138994966Y-97017314D01*
X138956261Y-97036666D01*
X138917557Y-97036666D01*
X138878852Y-97017314D01*
X138859500Y-96997961D01*
X138840147Y-96959257D01*
X138840147Y-96862495D01*
X138859500Y-96804438D01*
X139033671Y-96494800D02*
X139033671Y-96630266D01*
X139246547Y-96630266D02*
X138840147Y-96630266D01*
X138840147Y-96436742D01*
X139033671Y-96281923D02*
X139033671Y-96146457D01*
X139246547Y-96088400D02*
X139246547Y-96281923D01*
X138840147Y-96281923D01*
X138840147Y-96088400D01*
X138840147Y-95972285D02*
X138840147Y-95740057D01*
X139246547Y-95856171D02*
X138840147Y-95856171D01*
X139091728Y-95604590D02*
X139091728Y-95294952D01*
X139246547Y-95101428D02*
X138840147Y-95101428D01*
X139246547Y-94869200D01*
X138840147Y-94869200D01*
X139207842Y-94443447D02*
X139227195Y-94462800D01*
X139246547Y-94520857D01*
X139246547Y-94559561D01*
X139227195Y-94617619D01*
X139188490Y-94656323D01*
X139149785Y-94675676D01*
X139072376Y-94695028D01*
X139014319Y-94695028D01*
X138936909Y-94675676D01*
X138898204Y-94656323D01*
X138859500Y-94617619D01*
X138840147Y-94559561D01*
X138840147Y-94520857D01*
X138859500Y-94462800D01*
X138878852Y-94443447D01*
X139246547Y-94269276D02*
X138840147Y-94269276D01*
X139033671Y-94269276D02*
X139033671Y-94037047D01*
X139246547Y-94037047D02*
X138840147Y-94037047D01*
X139130433Y-93862876D02*
X139130433Y-93669352D01*
X139246547Y-93901580D02*
X138840147Y-93766114D01*
X139246547Y-93630647D01*
X139246547Y-93495180D02*
X138840147Y-93495180D01*
X139246547Y-93262952D01*
X138840147Y-93262952D01*
X139246547Y-93069428D02*
X138840147Y-93069428D01*
X139246547Y-92837200D01*
X138840147Y-92837200D01*
X139033671Y-92643676D02*
X139033671Y-92508209D01*
X139246547Y-92450152D02*
X139246547Y-92643676D01*
X138840147Y-92643676D01*
X138840147Y-92450152D01*
X139246547Y-92082457D02*
X139246547Y-92275980D01*
X138840147Y-92275980D01*
X139033671Y-91811523D02*
X139053023Y-91753466D01*
X139072376Y-91734114D01*
X139111080Y-91714761D01*
X139169138Y-91714761D01*
X139207842Y-91734114D01*
X139227195Y-91753466D01*
X139246547Y-91792171D01*
X139246547Y-91946990D01*
X138840147Y-91946990D01*
X138840147Y-91811523D01*
X138859500Y-91772819D01*
X138878852Y-91753466D01*
X138917557Y-91734114D01*
X138956261Y-91734114D01*
X138994966Y-91753466D01*
X139014319Y-91772819D01*
X139033671Y-91811523D01*
X139033671Y-91946990D01*
X139227195Y-91559942D02*
X139246547Y-91501885D01*
X139246547Y-91405123D01*
X139227195Y-91366419D01*
X139207842Y-91347066D01*
X139169138Y-91327714D01*
X139130433Y-91327714D01*
X139091728Y-91347066D01*
X139072376Y-91366419D01*
X139053023Y-91405123D01*
X139033671Y-91482533D01*
X139014319Y-91521238D01*
X138994966Y-91540590D01*
X138956261Y-91559942D01*
X138917557Y-91559942D01*
X138878852Y-91540590D01*
X138859500Y-91521238D01*
X138840147Y-91482533D01*
X138840147Y-91385771D01*
X138859500Y-91327714D01*
X139227195Y-91172895D02*
X139246547Y-91114838D01*
X139246547Y-91018076D01*
X139227195Y-90979371D01*
X139207842Y-90960019D01*
X139169138Y-90940666D01*
X139130433Y-90940666D01*
X139091728Y-90960019D01*
X139072376Y-90979371D01*
X139053023Y-91018076D01*
X139033671Y-91095485D01*
X139014319Y-91134190D01*
X138994966Y-91153542D01*
X138956261Y-91172895D01*
X138917557Y-91172895D01*
X138878852Y-91153542D01*
X138859500Y-91134190D01*
X138840147Y-91095485D01*
X138840147Y-90998723D01*
X138859500Y-90940666D01*
X139246547Y-90553619D02*
X139246547Y-90785847D01*
X139246547Y-90669733D02*
X138840147Y-90669733D01*
X138898204Y-90708438D01*
X138936909Y-90747142D01*
X138956261Y-90785847D01*
X138840147Y-90418152D02*
X138840147Y-90166571D01*
X138994966Y-90302038D01*
X138994966Y-90243980D01*
X139014319Y-90205276D01*
X139033671Y-90185923D01*
X139072376Y-90166571D01*
X139169138Y-90166571D01*
X139207842Y-90185923D01*
X139227195Y-90205276D01*
X139246547Y-90243980D01*
X139246547Y-90360095D01*
X139227195Y-90398800D01*
X139207842Y-90418152D01*
X139014319Y-89934342D02*
X138994966Y-89973047D01*
X138975614Y-89992400D01*
X138936909Y-90011752D01*
X138917557Y-90011752D01*
X138878852Y-89992400D01*
X138859500Y-89973047D01*
X138840147Y-89934342D01*
X138840147Y-89856933D01*
X138859500Y-89818228D01*
X138878852Y-89798876D01*
X138917557Y-89779523D01*
X138936909Y-89779523D01*
X138975614Y-89798876D01*
X138994966Y-89818228D01*
X139014319Y-89856933D01*
X139014319Y-89934342D01*
X139033671Y-89973047D01*
X139053023Y-89992400D01*
X139091728Y-90011752D01*
X139169138Y-90011752D01*
X139207842Y-89992400D01*
X139227195Y-89973047D01*
X139246547Y-89934342D01*
X139246547Y-89856933D01*
X139227195Y-89818228D01*
X139207842Y-89798876D01*
X139169138Y-89779523D01*
X139091728Y-89779523D01*
X139053023Y-89798876D01*
X139033671Y-89818228D01*
X139014319Y-89856933D01*
G04 #@! TO.C,R3*
X142886266Y-93205147D02*
X142750800Y-93011623D01*
X142654038Y-93205147D02*
X142654038Y-92798747D01*
X142808857Y-92798747D01*
X142847561Y-92818100D01*
X142866914Y-92837452D01*
X142886266Y-92876157D01*
X142886266Y-92934214D01*
X142866914Y-92972919D01*
X142847561Y-92992271D01*
X142808857Y-93011623D01*
X142654038Y-93011623D01*
X143021733Y-92798747D02*
X143273314Y-92798747D01*
X143137847Y-92953566D01*
X143195904Y-92953566D01*
X143234609Y-92972919D01*
X143253961Y-92992271D01*
X143273314Y-93030976D01*
X143273314Y-93127738D01*
X143253961Y-93166442D01*
X143234609Y-93185795D01*
X143195904Y-93205147D01*
X143079790Y-93205147D01*
X143041085Y-93185795D01*
X143021733Y-93166442D01*
X143028990Y-95427647D02*
X142893523Y-95234123D01*
X142796761Y-95427647D02*
X142796761Y-95021247D01*
X142951580Y-95021247D01*
X142990285Y-95040600D01*
X143009638Y-95059952D01*
X143028990Y-95098657D01*
X143028990Y-95156714D01*
X143009638Y-95195419D01*
X142990285Y-95214771D01*
X142951580Y-95234123D01*
X142796761Y-95234123D01*
G04 #@! TO.C,R4*
X137705147Y-96713733D02*
X137511623Y-96849200D01*
X137705147Y-96945961D02*
X137298747Y-96945961D01*
X137298747Y-96791142D01*
X137318100Y-96752438D01*
X137337452Y-96733085D01*
X137376157Y-96713733D01*
X137434214Y-96713733D01*
X137472919Y-96733085D01*
X137492271Y-96752438D01*
X137511623Y-96791142D01*
X137511623Y-96945961D01*
X137434214Y-96365390D02*
X137705147Y-96365390D01*
X137279395Y-96462152D02*
X137569680Y-96558914D01*
X137569680Y-96307333D01*
X139927647Y-96571009D02*
X139734123Y-96706476D01*
X139927647Y-96803238D02*
X139521247Y-96803238D01*
X139521247Y-96648419D01*
X139540600Y-96609714D01*
X139559952Y-96590361D01*
X139598657Y-96571009D01*
X139656714Y-96571009D01*
X139695419Y-96590361D01*
X139714771Y-96609714D01*
X139734123Y-96648419D01*
X139734123Y-96803238D01*
G04 #@! TO.C,R5*
X137462547Y-93920893D02*
X137269023Y-94056360D01*
X137462547Y-94153121D02*
X137056147Y-94153121D01*
X137056147Y-93998302D01*
X137075500Y-93959598D01*
X137094852Y-93940245D01*
X137133557Y-93920893D01*
X137191614Y-93920893D01*
X137230319Y-93940245D01*
X137249671Y-93959598D01*
X137269023Y-93998302D01*
X137269023Y-94153121D01*
X137056147Y-93553198D02*
X137056147Y-93746721D01*
X137249671Y-93766074D01*
X137230319Y-93746721D01*
X137210966Y-93708017D01*
X137210966Y-93611255D01*
X137230319Y-93572550D01*
X137249671Y-93553198D01*
X137288376Y-93533845D01*
X137385138Y-93533845D01*
X137423842Y-93553198D01*
X137443195Y-93572550D01*
X137462547Y-93611255D01*
X137462547Y-93708017D01*
X137443195Y-93746721D01*
X137423842Y-93766074D01*
X135240047Y-93676569D02*
X135046523Y-93812036D01*
X135240047Y-93908798D02*
X134833647Y-93908798D01*
X134833647Y-93753979D01*
X134853000Y-93715274D01*
X134872352Y-93695921D01*
X134911057Y-93676569D01*
X134969114Y-93676569D01*
X135007819Y-93695921D01*
X135027171Y-93715274D01*
X135046523Y-93753979D01*
X135046523Y-93908798D01*
G04 #@! TO.C,R6*
X133512547Y-89121733D02*
X133319023Y-89257200D01*
X133512547Y-89353961D02*
X133106147Y-89353961D01*
X133106147Y-89199142D01*
X133125500Y-89160438D01*
X133144852Y-89141085D01*
X133183557Y-89121733D01*
X133241614Y-89121733D01*
X133280319Y-89141085D01*
X133299671Y-89160438D01*
X133319023Y-89199142D01*
X133319023Y-89353961D01*
X133106147Y-88773390D02*
X133106147Y-88850800D01*
X133125500Y-88889504D01*
X133144852Y-88908857D01*
X133202909Y-88947561D01*
X133280319Y-88966914D01*
X133435138Y-88966914D01*
X133473842Y-88947561D01*
X133493195Y-88928209D01*
X133512547Y-88889504D01*
X133512547Y-88812095D01*
X133493195Y-88773390D01*
X133473842Y-88754038D01*
X133435138Y-88734685D01*
X133338376Y-88734685D01*
X133299671Y-88754038D01*
X133280319Y-88773390D01*
X133260966Y-88812095D01*
X133260966Y-88889504D01*
X133280319Y-88928209D01*
X133299671Y-88947561D01*
X133338376Y-88966914D01*
X131290047Y-88877409D02*
X131096523Y-89012876D01*
X131290047Y-89109638D02*
X130883647Y-89109638D01*
X130883647Y-88954819D01*
X130903000Y-88916114D01*
X130922352Y-88896761D01*
X130961057Y-88877409D01*
X131019114Y-88877409D01*
X131057819Y-88896761D01*
X131077171Y-88916114D01*
X131096523Y-88954819D01*
X131096523Y-89109638D01*
G04 #@! TD*
M02*
