G04 #@! TF.GenerationSoftware,KiCad,Pcbnew,5.0.2-bee76a0~70~ubuntu18.04.1*
G04 #@! TF.CreationDate,2019-12-16T19:01:30-05:00*
G04 #@! TF.ProjectId,LEDStuff,4c454453-7475-4666-962e-6b696361645f,rev?*
G04 #@! TF.SameCoordinates,Original*
G04 #@! TF.FileFunction,Soldermask,Bot*
G04 #@! TF.FilePolarity,Negative*
%FSLAX46Y46*%
G04 Gerber Fmt 4.6, Leading zero omitted, Abs format (unit mm)*
G04 Created by KiCad (PCBNEW 5.0.2-bee76a0~70~ubuntu18.04.1) date Mon 16 Dec 2019 07:01:30 PM EST*
%MOMM*%
%LPD*%
G01*
G04 APERTURE LIST*
%ADD10C,0.100000*%
G04 APERTURE END LIST*
D10*
G36*
X167173752Y-113338818D02*
X167173754Y-113338819D01*
X167173755Y-113338819D01*
X167547013Y-113493427D01*
X167838804Y-113688396D01*
X167882939Y-113717886D01*
X168168614Y-114003561D01*
X168168616Y-114003564D01*
X168393073Y-114339487D01*
X168547681Y-114712745D01*
X168626500Y-115108994D01*
X168626500Y-115513006D01*
X168547681Y-115909255D01*
X168393073Y-116282513D01*
X168393072Y-116282514D01*
X168168614Y-116618439D01*
X167882939Y-116904114D01*
X167882936Y-116904116D01*
X167547013Y-117128573D01*
X167173755Y-117283181D01*
X167173754Y-117283181D01*
X167173752Y-117283182D01*
X166777507Y-117362000D01*
X166373493Y-117362000D01*
X165977248Y-117283182D01*
X165977246Y-117283181D01*
X165977245Y-117283181D01*
X165603987Y-117128573D01*
X165268064Y-116904116D01*
X165268061Y-116904114D01*
X164982386Y-116618439D01*
X164757928Y-116282514D01*
X164757927Y-116282513D01*
X164603319Y-115909255D01*
X164524500Y-115513006D01*
X164524500Y-115108994D01*
X164603319Y-114712745D01*
X164757927Y-114339487D01*
X164982384Y-114003564D01*
X164982386Y-114003561D01*
X165268061Y-113717886D01*
X165312196Y-113688396D01*
X165603987Y-113493427D01*
X165977245Y-113338819D01*
X165977246Y-113338819D01*
X165977248Y-113338818D01*
X166373493Y-113260000D01*
X166777507Y-113260000D01*
X167173752Y-113338818D01*
X167173752Y-113338818D01*
G37*
G36*
X159852896Y-112496546D02*
X160025966Y-112568234D01*
X160181730Y-112672312D01*
X160314188Y-112804770D01*
X160418266Y-112960534D01*
X160489954Y-113133604D01*
X160526500Y-113317333D01*
X160526500Y-113504667D01*
X160489954Y-113688396D01*
X160418266Y-113861466D01*
X160314188Y-114017230D01*
X160181730Y-114149688D01*
X160025966Y-114253766D01*
X159852896Y-114325454D01*
X159669167Y-114362000D01*
X159481833Y-114362000D01*
X159298104Y-114325454D01*
X159125034Y-114253766D01*
X158969270Y-114149688D01*
X158836812Y-114017230D01*
X158732734Y-113861466D01*
X158661046Y-113688396D01*
X158624500Y-113504667D01*
X158624500Y-113317333D01*
X158661046Y-113133604D01*
X158732734Y-112960534D01*
X158836812Y-112804770D01*
X158969270Y-112672312D01*
X159125034Y-112568234D01*
X159298104Y-112496546D01*
X159481833Y-112460000D01*
X159669167Y-112460000D01*
X159852896Y-112496546D01*
X159852896Y-112496546D01*
G37*
G36*
X159852896Y-109996546D02*
X160025966Y-110068234D01*
X160181730Y-110172312D01*
X160314188Y-110304770D01*
X160418266Y-110460534D01*
X160489954Y-110633604D01*
X160526500Y-110817333D01*
X160526500Y-111004667D01*
X160489954Y-111188396D01*
X160418266Y-111361466D01*
X160314188Y-111517230D01*
X160181730Y-111649688D01*
X160025966Y-111753766D01*
X159852896Y-111825454D01*
X159669167Y-111862000D01*
X159481833Y-111862000D01*
X159298104Y-111825454D01*
X159125034Y-111753766D01*
X158969270Y-111649688D01*
X158836812Y-111517230D01*
X158732734Y-111361466D01*
X158661046Y-111188396D01*
X158624500Y-111004667D01*
X158624500Y-110817333D01*
X158661046Y-110633604D01*
X158732734Y-110460534D01*
X158836812Y-110304770D01*
X158969270Y-110172312D01*
X159125034Y-110068234D01*
X159298104Y-109996546D01*
X159481833Y-109960000D01*
X159669167Y-109960000D01*
X159852896Y-109996546D01*
X159852896Y-109996546D01*
G37*
G36*
X159852896Y-107496546D02*
X160025966Y-107568234D01*
X160181730Y-107672312D01*
X160314188Y-107804770D01*
X160418266Y-107960534D01*
X160489954Y-108133604D01*
X160526500Y-108317333D01*
X160526500Y-108504667D01*
X160489954Y-108688396D01*
X160418266Y-108861466D01*
X160314188Y-109017230D01*
X160181730Y-109149688D01*
X160025966Y-109253766D01*
X159852896Y-109325454D01*
X159669167Y-109362000D01*
X159481833Y-109362000D01*
X159298104Y-109325454D01*
X159125034Y-109253766D01*
X158969270Y-109149688D01*
X158836812Y-109017230D01*
X158732734Y-108861466D01*
X158661046Y-108688396D01*
X158624500Y-108504667D01*
X158624500Y-108317333D01*
X158661046Y-108133604D01*
X158732734Y-107960534D01*
X158836812Y-107804770D01*
X158969270Y-107672312D01*
X159125034Y-107568234D01*
X159298104Y-107496546D01*
X159481833Y-107460000D01*
X159669167Y-107460000D01*
X159852896Y-107496546D01*
X159852896Y-107496546D01*
G37*
G36*
X167173752Y-104538818D02*
X167173754Y-104538819D01*
X167173755Y-104538819D01*
X167547013Y-104693427D01*
X167547014Y-104693428D01*
X167882939Y-104917886D01*
X168168614Y-105203561D01*
X168168616Y-105203564D01*
X168393073Y-105539487D01*
X168547681Y-105912745D01*
X168626500Y-106308994D01*
X168626500Y-106713006D01*
X168547681Y-107109255D01*
X168393073Y-107482513D01*
X168335796Y-107568234D01*
X168168614Y-107818439D01*
X167882939Y-108104114D01*
X167882936Y-108104116D01*
X167547013Y-108328573D01*
X167173755Y-108483181D01*
X167173754Y-108483181D01*
X167173752Y-108483182D01*
X166777507Y-108562000D01*
X166373493Y-108562000D01*
X165977248Y-108483182D01*
X165977246Y-108483181D01*
X165977245Y-108483181D01*
X165603987Y-108328573D01*
X165268064Y-108104116D01*
X165268061Y-108104114D01*
X164982386Y-107818439D01*
X164815204Y-107568234D01*
X164757927Y-107482513D01*
X164603319Y-107109255D01*
X164524500Y-106713006D01*
X164524500Y-106308994D01*
X164603319Y-105912745D01*
X164757927Y-105539487D01*
X164982384Y-105203564D01*
X164982386Y-105203561D01*
X165268061Y-104917886D01*
X165603986Y-104693428D01*
X165603987Y-104693427D01*
X165977245Y-104538819D01*
X165977246Y-104538819D01*
X165977248Y-104538818D01*
X166373493Y-104460000D01*
X166777507Y-104460000D01*
X167173752Y-104538818D01*
X167173752Y-104538818D01*
G37*
G36*
X167173752Y-95495318D02*
X167173754Y-95495319D01*
X167173755Y-95495319D01*
X167547013Y-95649927D01*
X167838804Y-95844896D01*
X167882939Y-95874386D01*
X168168614Y-96160061D01*
X168168616Y-96160064D01*
X168393073Y-96495987D01*
X168547681Y-96869245D01*
X168626500Y-97265494D01*
X168626500Y-97669506D01*
X168547681Y-98065755D01*
X168393073Y-98439013D01*
X168393072Y-98439014D01*
X168168614Y-98774939D01*
X167882939Y-99060614D01*
X167882936Y-99060616D01*
X167547013Y-99285073D01*
X167173755Y-99439681D01*
X167173754Y-99439681D01*
X167173752Y-99439682D01*
X166777507Y-99518500D01*
X166373493Y-99518500D01*
X165977248Y-99439682D01*
X165977246Y-99439681D01*
X165977245Y-99439681D01*
X165603987Y-99285073D01*
X165268064Y-99060616D01*
X165268061Y-99060614D01*
X164982386Y-98774939D01*
X164757928Y-98439014D01*
X164757927Y-98439013D01*
X164603319Y-98065755D01*
X164524500Y-97669506D01*
X164524500Y-97265494D01*
X164603319Y-96869245D01*
X164757927Y-96495987D01*
X164982384Y-96160064D01*
X164982386Y-96160061D01*
X165268061Y-95874386D01*
X165312196Y-95844896D01*
X165603987Y-95649927D01*
X165977245Y-95495319D01*
X165977246Y-95495319D01*
X165977248Y-95495318D01*
X166373493Y-95416500D01*
X166777507Y-95416500D01*
X167173752Y-95495318D01*
X167173752Y-95495318D01*
G37*
G36*
X159852896Y-94653046D02*
X160025966Y-94724734D01*
X160181730Y-94828812D01*
X160314188Y-94961270D01*
X160418266Y-95117034D01*
X160489954Y-95290104D01*
X160526500Y-95473833D01*
X160526500Y-95661167D01*
X160489954Y-95844896D01*
X160418266Y-96017966D01*
X160314188Y-96173730D01*
X160181730Y-96306188D01*
X160025966Y-96410266D01*
X159852896Y-96481954D01*
X159669167Y-96518500D01*
X159481833Y-96518500D01*
X159298104Y-96481954D01*
X159125034Y-96410266D01*
X158969270Y-96306188D01*
X158836812Y-96173730D01*
X158732734Y-96017966D01*
X158661046Y-95844896D01*
X158624500Y-95661167D01*
X158624500Y-95473833D01*
X158661046Y-95290104D01*
X158732734Y-95117034D01*
X158836812Y-94961270D01*
X158969270Y-94828812D01*
X159125034Y-94724734D01*
X159298104Y-94653046D01*
X159481833Y-94616500D01*
X159669167Y-94616500D01*
X159852896Y-94653046D01*
X159852896Y-94653046D01*
G37*
G36*
X159852896Y-92153046D02*
X160025966Y-92224734D01*
X160181730Y-92328812D01*
X160314188Y-92461270D01*
X160418266Y-92617034D01*
X160489954Y-92790104D01*
X160526500Y-92973833D01*
X160526500Y-93161167D01*
X160489954Y-93344896D01*
X160418266Y-93517966D01*
X160314188Y-93673730D01*
X160181730Y-93806188D01*
X160025966Y-93910266D01*
X159852896Y-93981954D01*
X159669167Y-94018500D01*
X159481833Y-94018500D01*
X159298104Y-93981954D01*
X159125034Y-93910266D01*
X158969270Y-93806188D01*
X158836812Y-93673730D01*
X158732734Y-93517966D01*
X158661046Y-93344896D01*
X158624500Y-93161167D01*
X158624500Y-92973833D01*
X158661046Y-92790104D01*
X158732734Y-92617034D01*
X158836812Y-92461270D01*
X158969270Y-92328812D01*
X159125034Y-92224734D01*
X159298104Y-92153046D01*
X159481833Y-92116500D01*
X159669167Y-92116500D01*
X159852896Y-92153046D01*
X159852896Y-92153046D01*
G37*
G36*
X159852896Y-89653046D02*
X160025966Y-89724734D01*
X160181730Y-89828812D01*
X160314188Y-89961270D01*
X160418266Y-90117034D01*
X160489954Y-90290104D01*
X160526500Y-90473833D01*
X160526500Y-90661167D01*
X160489954Y-90844896D01*
X160418266Y-91017966D01*
X160314188Y-91173730D01*
X160181730Y-91306188D01*
X160025966Y-91410266D01*
X159852896Y-91481954D01*
X159669167Y-91518500D01*
X159481833Y-91518500D01*
X159298104Y-91481954D01*
X159125034Y-91410266D01*
X158969270Y-91306188D01*
X158836812Y-91173730D01*
X158732734Y-91017966D01*
X158661046Y-90844896D01*
X158624500Y-90661167D01*
X158624500Y-90473833D01*
X158661046Y-90290104D01*
X158732734Y-90117034D01*
X158836812Y-89961270D01*
X158969270Y-89828812D01*
X159125034Y-89724734D01*
X159298104Y-89653046D01*
X159481833Y-89616500D01*
X159669167Y-89616500D01*
X159852896Y-89653046D01*
X159852896Y-89653046D01*
G37*
G36*
X167173752Y-86695318D02*
X167173754Y-86695319D01*
X167173755Y-86695319D01*
X167547013Y-86849927D01*
X167547014Y-86849928D01*
X167882939Y-87074386D01*
X168168614Y-87360061D01*
X168168616Y-87360064D01*
X168393073Y-87695987D01*
X168547681Y-88069245D01*
X168626500Y-88465494D01*
X168626500Y-88869506D01*
X168547681Y-89265755D01*
X168393073Y-89639013D01*
X168335796Y-89724734D01*
X168168614Y-89974939D01*
X167882939Y-90260614D01*
X167882936Y-90260616D01*
X167547013Y-90485073D01*
X167173755Y-90639681D01*
X167173754Y-90639681D01*
X167173752Y-90639682D01*
X166777507Y-90718500D01*
X166373493Y-90718500D01*
X165977248Y-90639682D01*
X165977246Y-90639681D01*
X165977245Y-90639681D01*
X165603987Y-90485073D01*
X165268064Y-90260616D01*
X165268061Y-90260614D01*
X164982386Y-89974939D01*
X164815204Y-89724734D01*
X164757927Y-89639013D01*
X164603319Y-89265755D01*
X164524500Y-88869506D01*
X164524500Y-88465494D01*
X164603319Y-88069245D01*
X164757927Y-87695987D01*
X164982384Y-87360064D01*
X164982386Y-87360061D01*
X165268061Y-87074386D01*
X165603986Y-86849928D01*
X165603987Y-86849927D01*
X165977245Y-86695319D01*
X165977246Y-86695319D01*
X165977248Y-86695318D01*
X166373493Y-86616500D01*
X166777507Y-86616500D01*
X167173752Y-86695318D01*
X167173752Y-86695318D01*
G37*
G36*
X167046752Y-78299518D02*
X167046754Y-78299519D01*
X167046755Y-78299519D01*
X167420013Y-78454127D01*
X167662871Y-78616400D01*
X167755939Y-78678586D01*
X168041614Y-78964261D01*
X168041616Y-78964264D01*
X168266073Y-79300187D01*
X168420681Y-79673445D01*
X168499500Y-80069694D01*
X168499500Y-80473706D01*
X168420681Y-80869955D01*
X168266073Y-81243213D01*
X168044643Y-81574605D01*
X168041614Y-81579139D01*
X167755939Y-81864814D01*
X167755936Y-81864816D01*
X167420013Y-82089273D01*
X167046755Y-82243881D01*
X167046754Y-82243881D01*
X167046752Y-82243882D01*
X166650507Y-82322700D01*
X166246493Y-82322700D01*
X165850248Y-82243882D01*
X165850246Y-82243881D01*
X165850245Y-82243881D01*
X165476987Y-82089273D01*
X165141064Y-81864816D01*
X165141061Y-81864814D01*
X164855386Y-81579139D01*
X164852357Y-81574605D01*
X164630927Y-81243213D01*
X164476319Y-80869955D01*
X164397500Y-80473706D01*
X164397500Y-80069694D01*
X164476319Y-79673445D01*
X164630927Y-79300187D01*
X164855384Y-78964264D01*
X164855386Y-78964261D01*
X165141061Y-78678586D01*
X165234129Y-78616400D01*
X165476987Y-78454127D01*
X165850245Y-78299519D01*
X165850246Y-78299519D01*
X165850248Y-78299518D01*
X166246493Y-78220700D01*
X166650507Y-78220700D01*
X167046752Y-78299518D01*
X167046752Y-78299518D01*
G37*
G36*
X139769466Y-78633095D02*
X139926558Y-78680748D01*
X140071330Y-78758131D01*
X140198228Y-78862272D01*
X140302369Y-78989170D01*
X140379752Y-79133942D01*
X140427405Y-79291034D01*
X140444100Y-79460540D01*
X140444100Y-81374260D01*
X140427405Y-81543766D01*
X140379752Y-81700858D01*
X140302369Y-81845630D01*
X140198228Y-81972528D01*
X140071330Y-82076669D01*
X139926558Y-82154052D01*
X139769466Y-82201705D01*
X139599960Y-82218400D01*
X137686240Y-82218400D01*
X137516734Y-82201705D01*
X137359642Y-82154052D01*
X137214870Y-82076669D01*
X137087972Y-81972528D01*
X136983831Y-81845630D01*
X136906448Y-81700858D01*
X136858795Y-81543766D01*
X136842100Y-81374260D01*
X136842100Y-79460540D01*
X136858795Y-79291034D01*
X136906448Y-79133942D01*
X136983831Y-78989170D01*
X137087972Y-78862272D01*
X137214870Y-78758131D01*
X137359642Y-78680748D01*
X137516734Y-78633095D01*
X137686240Y-78616400D01*
X139599960Y-78616400D01*
X139769466Y-78633095D01*
X139769466Y-78633095D01*
G37*
G36*
X159725896Y-77457246D02*
X159898966Y-77528934D01*
X160054730Y-77633012D01*
X160187188Y-77765470D01*
X160291266Y-77921234D01*
X160362954Y-78094304D01*
X160399500Y-78278033D01*
X160399500Y-78465367D01*
X160362954Y-78649096D01*
X160291266Y-78822166D01*
X160187188Y-78977930D01*
X160054730Y-79110388D01*
X159898966Y-79214466D01*
X159725896Y-79286154D01*
X159542167Y-79322700D01*
X159354833Y-79322700D01*
X159171104Y-79286154D01*
X158998034Y-79214466D01*
X158842270Y-79110388D01*
X158709812Y-78977930D01*
X158605734Y-78822166D01*
X158534046Y-78649096D01*
X158497500Y-78465367D01*
X158497500Y-78278033D01*
X158534046Y-78094304D01*
X158605734Y-77921234D01*
X158709812Y-77765470D01*
X158842270Y-77633012D01*
X158998034Y-77528934D01*
X159171104Y-77457246D01*
X159354833Y-77420700D01*
X159542167Y-77420700D01*
X159725896Y-77457246D01*
X159725896Y-77457246D01*
G37*
G36*
X143444100Y-77518400D02*
X139842100Y-77518400D01*
X139842100Y-73916400D01*
X143444100Y-73916400D01*
X143444100Y-77518400D01*
X143444100Y-77518400D01*
G37*
G36*
X136620078Y-73930693D02*
X136753727Y-73971235D01*
X136876882Y-74037062D01*
X136984839Y-74125661D01*
X137073438Y-74233618D01*
X137139265Y-74356773D01*
X137179807Y-74490422D01*
X137194100Y-74635540D01*
X137194100Y-76799260D01*
X137179807Y-76944378D01*
X137139265Y-77078027D01*
X137073438Y-77201182D01*
X136984839Y-77309139D01*
X136876882Y-77397738D01*
X136753727Y-77463565D01*
X136620078Y-77504107D01*
X136474960Y-77518400D01*
X134811240Y-77518400D01*
X134666122Y-77504107D01*
X134532473Y-77463565D01*
X134409318Y-77397738D01*
X134301361Y-77309139D01*
X134212762Y-77201182D01*
X134146935Y-77078027D01*
X134106393Y-76944378D01*
X134092100Y-76799260D01*
X134092100Y-74635540D01*
X134106393Y-74490422D01*
X134146935Y-74356773D01*
X134212762Y-74233618D01*
X134301361Y-74125661D01*
X134409318Y-74037062D01*
X134532473Y-73971235D01*
X134666122Y-73930693D01*
X134811240Y-73916400D01*
X136474960Y-73916400D01*
X136620078Y-73930693D01*
X136620078Y-73930693D01*
G37*
G36*
X159725896Y-74957246D02*
X159898966Y-75028934D01*
X160054730Y-75133012D01*
X160187188Y-75265470D01*
X160291266Y-75421234D01*
X160362954Y-75594304D01*
X160399500Y-75778033D01*
X160399500Y-75965367D01*
X160362954Y-76149096D01*
X160291266Y-76322166D01*
X160187188Y-76477930D01*
X160054730Y-76610388D01*
X159898966Y-76714466D01*
X159725896Y-76786154D01*
X159542167Y-76822700D01*
X159354833Y-76822700D01*
X159171104Y-76786154D01*
X158998034Y-76714466D01*
X158842270Y-76610388D01*
X158709812Y-76477930D01*
X158605734Y-76322166D01*
X158534046Y-76149096D01*
X158497500Y-75965367D01*
X158497500Y-75778033D01*
X158534046Y-75594304D01*
X158605734Y-75421234D01*
X158709812Y-75265470D01*
X158842270Y-75133012D01*
X158998034Y-75028934D01*
X159171104Y-74957246D01*
X159354833Y-74920700D01*
X159542167Y-74920700D01*
X159725896Y-74957246D01*
X159725896Y-74957246D01*
G37*
G36*
X159725896Y-72457246D02*
X159898966Y-72528934D01*
X160054730Y-72633012D01*
X160187188Y-72765470D01*
X160291266Y-72921234D01*
X160362954Y-73094304D01*
X160399500Y-73278033D01*
X160399500Y-73465367D01*
X160362954Y-73649096D01*
X160291266Y-73822166D01*
X160187188Y-73977930D01*
X160054730Y-74110388D01*
X159898966Y-74214466D01*
X159725896Y-74286154D01*
X159542167Y-74322700D01*
X159354833Y-74322700D01*
X159171104Y-74286154D01*
X158998034Y-74214466D01*
X158842270Y-74110388D01*
X158709812Y-73977930D01*
X158605734Y-73822166D01*
X158534046Y-73649096D01*
X158497500Y-73465367D01*
X158497500Y-73278033D01*
X158534046Y-73094304D01*
X158605734Y-72921234D01*
X158709812Y-72765470D01*
X158842270Y-72633012D01*
X158998034Y-72528934D01*
X159171104Y-72457246D01*
X159354833Y-72420700D01*
X159542167Y-72420700D01*
X159725896Y-72457246D01*
X159725896Y-72457246D01*
G37*
G36*
X167046752Y-69499518D02*
X167046754Y-69499519D01*
X167046755Y-69499519D01*
X167420013Y-69654127D01*
X167420014Y-69654128D01*
X167755939Y-69878586D01*
X168041614Y-70164261D01*
X168041616Y-70164264D01*
X168266073Y-70500187D01*
X168420681Y-70873445D01*
X168499500Y-71269694D01*
X168499500Y-71673706D01*
X168420681Y-72069955D01*
X168266073Y-72443213D01*
X168208796Y-72528934D01*
X168041614Y-72779139D01*
X167755939Y-73064814D01*
X167755936Y-73064816D01*
X167420013Y-73289273D01*
X167046755Y-73443881D01*
X167046754Y-73443881D01*
X167046752Y-73443882D01*
X166650507Y-73522700D01*
X166246493Y-73522700D01*
X165850248Y-73443882D01*
X165850246Y-73443881D01*
X165850245Y-73443881D01*
X165476987Y-73289273D01*
X165141064Y-73064816D01*
X165141061Y-73064814D01*
X164855386Y-72779139D01*
X164688204Y-72528934D01*
X164630927Y-72443213D01*
X164476319Y-72069955D01*
X164397500Y-71673706D01*
X164397500Y-71269694D01*
X164476319Y-70873445D01*
X164630927Y-70500187D01*
X164855384Y-70164264D01*
X164855386Y-70164261D01*
X165141061Y-69878586D01*
X165476986Y-69654128D01*
X165476987Y-69654127D01*
X165850245Y-69499519D01*
X165850246Y-69499519D01*
X165850248Y-69499518D01*
X166246493Y-69420700D01*
X166650507Y-69420700D01*
X167046752Y-69499518D01*
X167046752Y-69499518D01*
G37*
M02*
