G04 #@! TF.GenerationSoftware,KiCad,Pcbnew,5.0.2-bee76a0~70~ubuntu18.04.1*
G04 #@! TF.CreationDate,2019-12-16T19:01:30-05:00*
G04 #@! TF.ProjectId,LEDStuff,4c454453-7475-4666-962e-6b696361645f,rev?*
G04 #@! TF.SameCoordinates,Original*
G04 #@! TF.FileFunction,Paste,Top*
G04 #@! TF.FilePolarity,Positive*
%FSLAX46Y46*%
G04 Gerber Fmt 4.6, Leading zero omitted, Abs format (unit mm)*
G04 Created by KiCad (PCBNEW 5.0.2-bee76a0~70~ubuntu18.04.1) date Mon 16 Dec 2019 07:01:30 PM EST*
%MOMM*%
%LPD*%
G01*
G04 APERTURE LIST*
%ADD10C,1.879600*%
%ADD11C,0.100000*%
%ADD12C,1.150000*%
%ADD13R,1.600000X3.500000*%
%ADD14R,3.500000X1.600000*%
%ADD15R,0.800000X0.900000*%
%ADD16R,1.600000X0.550000*%
%ADD17R,0.550000X1.600000*%
%ADD18R,2.000000X7.875000*%
%ADD19R,2.200000X1.200000*%
%ADD20R,3.050000X2.750000*%
%ADD21R,1.879600X1.879600*%
%ADD22R,0.899160X0.797560*%
%ADD23R,0.797560X1.198880*%
%ADD24R,1.198880X0.797560*%
G04 APERTURE END LIST*
D10*
G04 #@! TO.C,J2*
X153880000Y-120000000D03*
X156420000Y-120000000D03*
X158960000Y-120000000D03*
X161500000Y-120000000D03*
X164040000Y-120000000D03*
X166580000Y-120000000D03*
G04 #@! TD*
D11*
G04 #@! TO.C,C1*
G36*
X153280905Y-101973404D02*
X153305173Y-101977004D01*
X153328972Y-101982965D01*
X153352071Y-101991230D01*
X153374250Y-102001720D01*
X153395293Y-102014332D01*
X153414999Y-102028947D01*
X153433177Y-102045423D01*
X153449653Y-102063601D01*
X153464268Y-102083307D01*
X153476880Y-102104350D01*
X153487370Y-102126529D01*
X153495635Y-102149628D01*
X153501596Y-102173427D01*
X153505196Y-102197695D01*
X153506400Y-102222199D01*
X153506400Y-102872201D01*
X153505196Y-102896705D01*
X153501596Y-102920973D01*
X153495635Y-102944772D01*
X153487370Y-102967871D01*
X153476880Y-102990050D01*
X153464268Y-103011093D01*
X153449653Y-103030799D01*
X153433177Y-103048977D01*
X153414999Y-103065453D01*
X153395293Y-103080068D01*
X153374250Y-103092680D01*
X153352071Y-103103170D01*
X153328972Y-103111435D01*
X153305173Y-103117396D01*
X153280905Y-103120996D01*
X153256401Y-103122200D01*
X152356399Y-103122200D01*
X152331895Y-103120996D01*
X152307627Y-103117396D01*
X152283828Y-103111435D01*
X152260729Y-103103170D01*
X152238550Y-103092680D01*
X152217507Y-103080068D01*
X152197801Y-103065453D01*
X152179623Y-103048977D01*
X152163147Y-103030799D01*
X152148532Y-103011093D01*
X152135920Y-102990050D01*
X152125430Y-102967871D01*
X152117165Y-102944772D01*
X152111204Y-102920973D01*
X152107604Y-102896705D01*
X152106400Y-102872201D01*
X152106400Y-102222199D01*
X152107604Y-102197695D01*
X152111204Y-102173427D01*
X152117165Y-102149628D01*
X152125430Y-102126529D01*
X152135920Y-102104350D01*
X152148532Y-102083307D01*
X152163147Y-102063601D01*
X152179623Y-102045423D01*
X152197801Y-102028947D01*
X152217507Y-102014332D01*
X152238550Y-102001720D01*
X152260729Y-101991230D01*
X152283828Y-101982965D01*
X152307627Y-101977004D01*
X152331895Y-101973404D01*
X152356399Y-101972200D01*
X153256401Y-101972200D01*
X153280905Y-101973404D01*
X153280905Y-101973404D01*
G37*
D12*
X152806400Y-102547200D03*
D11*
G36*
X153280905Y-104023404D02*
X153305173Y-104027004D01*
X153328972Y-104032965D01*
X153352071Y-104041230D01*
X153374250Y-104051720D01*
X153395293Y-104064332D01*
X153414999Y-104078947D01*
X153433177Y-104095423D01*
X153449653Y-104113601D01*
X153464268Y-104133307D01*
X153476880Y-104154350D01*
X153487370Y-104176529D01*
X153495635Y-104199628D01*
X153501596Y-104223427D01*
X153505196Y-104247695D01*
X153506400Y-104272199D01*
X153506400Y-104922201D01*
X153505196Y-104946705D01*
X153501596Y-104970973D01*
X153495635Y-104994772D01*
X153487370Y-105017871D01*
X153476880Y-105040050D01*
X153464268Y-105061093D01*
X153449653Y-105080799D01*
X153433177Y-105098977D01*
X153414999Y-105115453D01*
X153395293Y-105130068D01*
X153374250Y-105142680D01*
X153352071Y-105153170D01*
X153328972Y-105161435D01*
X153305173Y-105167396D01*
X153280905Y-105170996D01*
X153256401Y-105172200D01*
X152356399Y-105172200D01*
X152331895Y-105170996D01*
X152307627Y-105167396D01*
X152283828Y-105161435D01*
X152260729Y-105153170D01*
X152238550Y-105142680D01*
X152217507Y-105130068D01*
X152197801Y-105115453D01*
X152179623Y-105098977D01*
X152163147Y-105080799D01*
X152148532Y-105061093D01*
X152135920Y-105040050D01*
X152125430Y-105017871D01*
X152117165Y-104994772D01*
X152111204Y-104970973D01*
X152107604Y-104946705D01*
X152106400Y-104922201D01*
X152106400Y-104272199D01*
X152107604Y-104247695D01*
X152111204Y-104223427D01*
X152117165Y-104199628D01*
X152125430Y-104176529D01*
X152135920Y-104154350D01*
X152148532Y-104133307D01*
X152163147Y-104113601D01*
X152179623Y-104095423D01*
X152197801Y-104078947D01*
X152217507Y-104064332D01*
X152238550Y-104051720D01*
X152260729Y-104041230D01*
X152283828Y-104032965D01*
X152307627Y-104027004D01*
X152331895Y-104023404D01*
X152356399Y-104022200D01*
X153256401Y-104022200D01*
X153280905Y-104023404D01*
X153280905Y-104023404D01*
G37*
D12*
X152806400Y-104597200D03*
G04 #@! TD*
D13*
G04 #@! TO.C,C2*
X148890996Y-75712071D03*
X148890996Y-70312071D03*
G04 #@! TD*
D14*
G04 #@! TO.C,C3*
X136199900Y-87541100D03*
X141599900Y-87541100D03*
G04 #@! TD*
D11*
G04 #@! TO.C,C4*
G36*
X146386805Y-86893104D02*
X146411073Y-86896704D01*
X146434872Y-86902665D01*
X146457971Y-86910930D01*
X146480150Y-86921420D01*
X146501193Y-86934032D01*
X146520899Y-86948647D01*
X146539077Y-86965123D01*
X146555553Y-86983301D01*
X146570168Y-87003007D01*
X146582780Y-87024050D01*
X146593270Y-87046229D01*
X146601535Y-87069328D01*
X146607496Y-87093127D01*
X146611096Y-87117395D01*
X146612300Y-87141899D01*
X146612300Y-88041901D01*
X146611096Y-88066405D01*
X146607496Y-88090673D01*
X146601535Y-88114472D01*
X146593270Y-88137571D01*
X146582780Y-88159750D01*
X146570168Y-88180793D01*
X146555553Y-88200499D01*
X146539077Y-88218677D01*
X146520899Y-88235153D01*
X146501193Y-88249768D01*
X146480150Y-88262380D01*
X146457971Y-88272870D01*
X146434872Y-88281135D01*
X146411073Y-88287096D01*
X146386805Y-88290696D01*
X146362301Y-88291900D01*
X145712299Y-88291900D01*
X145687795Y-88290696D01*
X145663527Y-88287096D01*
X145639728Y-88281135D01*
X145616629Y-88272870D01*
X145594450Y-88262380D01*
X145573407Y-88249768D01*
X145553701Y-88235153D01*
X145535523Y-88218677D01*
X145519047Y-88200499D01*
X145504432Y-88180793D01*
X145491820Y-88159750D01*
X145481330Y-88137571D01*
X145473065Y-88114472D01*
X145467104Y-88090673D01*
X145463504Y-88066405D01*
X145462300Y-88041901D01*
X145462300Y-87141899D01*
X145463504Y-87117395D01*
X145467104Y-87093127D01*
X145473065Y-87069328D01*
X145481330Y-87046229D01*
X145491820Y-87024050D01*
X145504432Y-87003007D01*
X145519047Y-86983301D01*
X145535523Y-86965123D01*
X145553701Y-86948647D01*
X145573407Y-86934032D01*
X145594450Y-86921420D01*
X145616629Y-86910930D01*
X145639728Y-86902665D01*
X145663527Y-86896704D01*
X145687795Y-86893104D01*
X145712299Y-86891900D01*
X146362301Y-86891900D01*
X146386805Y-86893104D01*
X146386805Y-86893104D01*
G37*
D12*
X146037300Y-87591900D03*
D11*
G36*
X148436805Y-86893104D02*
X148461073Y-86896704D01*
X148484872Y-86902665D01*
X148507971Y-86910930D01*
X148530150Y-86921420D01*
X148551193Y-86934032D01*
X148570899Y-86948647D01*
X148589077Y-86965123D01*
X148605553Y-86983301D01*
X148620168Y-87003007D01*
X148632780Y-87024050D01*
X148643270Y-87046229D01*
X148651535Y-87069328D01*
X148657496Y-87093127D01*
X148661096Y-87117395D01*
X148662300Y-87141899D01*
X148662300Y-88041901D01*
X148661096Y-88066405D01*
X148657496Y-88090673D01*
X148651535Y-88114472D01*
X148643270Y-88137571D01*
X148632780Y-88159750D01*
X148620168Y-88180793D01*
X148605553Y-88200499D01*
X148589077Y-88218677D01*
X148570899Y-88235153D01*
X148551193Y-88249768D01*
X148530150Y-88262380D01*
X148507971Y-88272870D01*
X148484872Y-88281135D01*
X148461073Y-88287096D01*
X148436805Y-88290696D01*
X148412301Y-88291900D01*
X147762299Y-88291900D01*
X147737795Y-88290696D01*
X147713527Y-88287096D01*
X147689728Y-88281135D01*
X147666629Y-88272870D01*
X147644450Y-88262380D01*
X147623407Y-88249768D01*
X147603701Y-88235153D01*
X147585523Y-88218677D01*
X147569047Y-88200499D01*
X147554432Y-88180793D01*
X147541820Y-88159750D01*
X147531330Y-88137571D01*
X147523065Y-88114472D01*
X147517104Y-88090673D01*
X147513504Y-88066405D01*
X147512300Y-88041901D01*
X147512300Y-87141899D01*
X147513504Y-87117395D01*
X147517104Y-87093127D01*
X147523065Y-87069328D01*
X147531330Y-87046229D01*
X147541820Y-87024050D01*
X147554432Y-87003007D01*
X147569047Y-86983301D01*
X147585523Y-86965123D01*
X147603701Y-86948647D01*
X147623407Y-86934032D01*
X147644450Y-86921420D01*
X147666629Y-86910930D01*
X147689728Y-86902665D01*
X147713527Y-86896704D01*
X147737795Y-86893104D01*
X147762299Y-86891900D01*
X148412301Y-86891900D01*
X148436805Y-86893104D01*
X148436805Y-86893104D01*
G37*
D12*
X148087300Y-87591900D03*
G04 #@! TD*
D11*
G04 #@! TO.C,C5*
G36*
X145835405Y-95656104D02*
X145859673Y-95659704D01*
X145883472Y-95665665D01*
X145906571Y-95673930D01*
X145928750Y-95684420D01*
X145949793Y-95697032D01*
X145969499Y-95711647D01*
X145987677Y-95728123D01*
X146004153Y-95746301D01*
X146018768Y-95766007D01*
X146031380Y-95787050D01*
X146041870Y-95809229D01*
X146050135Y-95832328D01*
X146056096Y-95856127D01*
X146059696Y-95880395D01*
X146060900Y-95904899D01*
X146060900Y-96804901D01*
X146059696Y-96829405D01*
X146056096Y-96853673D01*
X146050135Y-96877472D01*
X146041870Y-96900571D01*
X146031380Y-96922750D01*
X146018768Y-96943793D01*
X146004153Y-96963499D01*
X145987677Y-96981677D01*
X145969499Y-96998153D01*
X145949793Y-97012768D01*
X145928750Y-97025380D01*
X145906571Y-97035870D01*
X145883472Y-97044135D01*
X145859673Y-97050096D01*
X145835405Y-97053696D01*
X145810901Y-97054900D01*
X145160899Y-97054900D01*
X145136395Y-97053696D01*
X145112127Y-97050096D01*
X145088328Y-97044135D01*
X145065229Y-97035870D01*
X145043050Y-97025380D01*
X145022007Y-97012768D01*
X145002301Y-96998153D01*
X144984123Y-96981677D01*
X144967647Y-96963499D01*
X144953032Y-96943793D01*
X144940420Y-96922750D01*
X144929930Y-96900571D01*
X144921665Y-96877472D01*
X144915704Y-96853673D01*
X144912104Y-96829405D01*
X144910900Y-96804901D01*
X144910900Y-95904899D01*
X144912104Y-95880395D01*
X144915704Y-95856127D01*
X144921665Y-95832328D01*
X144929930Y-95809229D01*
X144940420Y-95787050D01*
X144953032Y-95766007D01*
X144967647Y-95746301D01*
X144984123Y-95728123D01*
X145002301Y-95711647D01*
X145022007Y-95697032D01*
X145043050Y-95684420D01*
X145065229Y-95673930D01*
X145088328Y-95665665D01*
X145112127Y-95659704D01*
X145136395Y-95656104D01*
X145160899Y-95654900D01*
X145810901Y-95654900D01*
X145835405Y-95656104D01*
X145835405Y-95656104D01*
G37*
D12*
X145485900Y-96354900D03*
D11*
G36*
X147885405Y-95656104D02*
X147909673Y-95659704D01*
X147933472Y-95665665D01*
X147956571Y-95673930D01*
X147978750Y-95684420D01*
X147999793Y-95697032D01*
X148019499Y-95711647D01*
X148037677Y-95728123D01*
X148054153Y-95746301D01*
X148068768Y-95766007D01*
X148081380Y-95787050D01*
X148091870Y-95809229D01*
X148100135Y-95832328D01*
X148106096Y-95856127D01*
X148109696Y-95880395D01*
X148110900Y-95904899D01*
X148110900Y-96804901D01*
X148109696Y-96829405D01*
X148106096Y-96853673D01*
X148100135Y-96877472D01*
X148091870Y-96900571D01*
X148081380Y-96922750D01*
X148068768Y-96943793D01*
X148054153Y-96963499D01*
X148037677Y-96981677D01*
X148019499Y-96998153D01*
X147999793Y-97012768D01*
X147978750Y-97025380D01*
X147956571Y-97035870D01*
X147933472Y-97044135D01*
X147909673Y-97050096D01*
X147885405Y-97053696D01*
X147860901Y-97054900D01*
X147210899Y-97054900D01*
X147186395Y-97053696D01*
X147162127Y-97050096D01*
X147138328Y-97044135D01*
X147115229Y-97035870D01*
X147093050Y-97025380D01*
X147072007Y-97012768D01*
X147052301Y-96998153D01*
X147034123Y-96981677D01*
X147017647Y-96963499D01*
X147003032Y-96943793D01*
X146990420Y-96922750D01*
X146979930Y-96900571D01*
X146971665Y-96877472D01*
X146965704Y-96853673D01*
X146962104Y-96829405D01*
X146960900Y-96804901D01*
X146960900Y-95904899D01*
X146962104Y-95880395D01*
X146965704Y-95856127D01*
X146971665Y-95832328D01*
X146979930Y-95809229D01*
X146990420Y-95787050D01*
X147003032Y-95766007D01*
X147017647Y-95746301D01*
X147034123Y-95728123D01*
X147052301Y-95711647D01*
X147072007Y-95697032D01*
X147093050Y-95684420D01*
X147115229Y-95673930D01*
X147138328Y-95665665D01*
X147162127Y-95659704D01*
X147186395Y-95656104D01*
X147210899Y-95654900D01*
X147860901Y-95654900D01*
X147885405Y-95656104D01*
X147885405Y-95656104D01*
G37*
D12*
X147535900Y-96354900D03*
G04 #@! TD*
D11*
G04 #@! TO.C,C6*
G36*
X141923805Y-110604004D02*
X141948073Y-110607604D01*
X141971872Y-110613565D01*
X141994971Y-110621830D01*
X142017150Y-110632320D01*
X142038193Y-110644932D01*
X142057899Y-110659547D01*
X142076077Y-110676023D01*
X142092553Y-110694201D01*
X142107168Y-110713907D01*
X142119780Y-110734950D01*
X142130270Y-110757129D01*
X142138535Y-110780228D01*
X142144496Y-110804027D01*
X142148096Y-110828295D01*
X142149300Y-110852799D01*
X142149300Y-111752801D01*
X142148096Y-111777305D01*
X142144496Y-111801573D01*
X142138535Y-111825372D01*
X142130270Y-111848471D01*
X142119780Y-111870650D01*
X142107168Y-111891693D01*
X142092553Y-111911399D01*
X142076077Y-111929577D01*
X142057899Y-111946053D01*
X142038193Y-111960668D01*
X142017150Y-111973280D01*
X141994971Y-111983770D01*
X141971872Y-111992035D01*
X141948073Y-111997996D01*
X141923805Y-112001596D01*
X141899301Y-112002800D01*
X141249299Y-112002800D01*
X141224795Y-112001596D01*
X141200527Y-111997996D01*
X141176728Y-111992035D01*
X141153629Y-111983770D01*
X141131450Y-111973280D01*
X141110407Y-111960668D01*
X141090701Y-111946053D01*
X141072523Y-111929577D01*
X141056047Y-111911399D01*
X141041432Y-111891693D01*
X141028820Y-111870650D01*
X141018330Y-111848471D01*
X141010065Y-111825372D01*
X141004104Y-111801573D01*
X141000504Y-111777305D01*
X140999300Y-111752801D01*
X140999300Y-110852799D01*
X141000504Y-110828295D01*
X141004104Y-110804027D01*
X141010065Y-110780228D01*
X141018330Y-110757129D01*
X141028820Y-110734950D01*
X141041432Y-110713907D01*
X141056047Y-110694201D01*
X141072523Y-110676023D01*
X141090701Y-110659547D01*
X141110407Y-110644932D01*
X141131450Y-110632320D01*
X141153629Y-110621830D01*
X141176728Y-110613565D01*
X141200527Y-110607604D01*
X141224795Y-110604004D01*
X141249299Y-110602800D01*
X141899301Y-110602800D01*
X141923805Y-110604004D01*
X141923805Y-110604004D01*
G37*
D12*
X141574300Y-111302800D03*
D11*
G36*
X143973805Y-110604004D02*
X143998073Y-110607604D01*
X144021872Y-110613565D01*
X144044971Y-110621830D01*
X144067150Y-110632320D01*
X144088193Y-110644932D01*
X144107899Y-110659547D01*
X144126077Y-110676023D01*
X144142553Y-110694201D01*
X144157168Y-110713907D01*
X144169780Y-110734950D01*
X144180270Y-110757129D01*
X144188535Y-110780228D01*
X144194496Y-110804027D01*
X144198096Y-110828295D01*
X144199300Y-110852799D01*
X144199300Y-111752801D01*
X144198096Y-111777305D01*
X144194496Y-111801573D01*
X144188535Y-111825372D01*
X144180270Y-111848471D01*
X144169780Y-111870650D01*
X144157168Y-111891693D01*
X144142553Y-111911399D01*
X144126077Y-111929577D01*
X144107899Y-111946053D01*
X144088193Y-111960668D01*
X144067150Y-111973280D01*
X144044971Y-111983770D01*
X144021872Y-111992035D01*
X143998073Y-111997996D01*
X143973805Y-112001596D01*
X143949301Y-112002800D01*
X143299299Y-112002800D01*
X143274795Y-112001596D01*
X143250527Y-111997996D01*
X143226728Y-111992035D01*
X143203629Y-111983770D01*
X143181450Y-111973280D01*
X143160407Y-111960668D01*
X143140701Y-111946053D01*
X143122523Y-111929577D01*
X143106047Y-111911399D01*
X143091432Y-111891693D01*
X143078820Y-111870650D01*
X143068330Y-111848471D01*
X143060065Y-111825372D01*
X143054104Y-111801573D01*
X143050504Y-111777305D01*
X143049300Y-111752801D01*
X143049300Y-110852799D01*
X143050504Y-110828295D01*
X143054104Y-110804027D01*
X143060065Y-110780228D01*
X143068330Y-110757129D01*
X143078820Y-110734950D01*
X143091432Y-110713907D01*
X143106047Y-110694201D01*
X143122523Y-110676023D01*
X143140701Y-110659547D01*
X143160407Y-110644932D01*
X143181450Y-110632320D01*
X143203629Y-110621830D01*
X143226728Y-110613565D01*
X143250527Y-110607604D01*
X143274795Y-110604004D01*
X143299299Y-110602800D01*
X143949301Y-110602800D01*
X143973805Y-110604004D01*
X143973805Y-110604004D01*
G37*
D12*
X143624300Y-111302800D03*
G04 #@! TD*
D11*
G04 #@! TO.C,C7*
G36*
X143944705Y-95668804D02*
X143968973Y-95672404D01*
X143992772Y-95678365D01*
X144015871Y-95686630D01*
X144038050Y-95697120D01*
X144059093Y-95709732D01*
X144078799Y-95724347D01*
X144096977Y-95740823D01*
X144113453Y-95759001D01*
X144128068Y-95778707D01*
X144140680Y-95799750D01*
X144151170Y-95821929D01*
X144159435Y-95845028D01*
X144165396Y-95868827D01*
X144168996Y-95893095D01*
X144170200Y-95917599D01*
X144170200Y-96817601D01*
X144168996Y-96842105D01*
X144165396Y-96866373D01*
X144159435Y-96890172D01*
X144151170Y-96913271D01*
X144140680Y-96935450D01*
X144128068Y-96956493D01*
X144113453Y-96976199D01*
X144096977Y-96994377D01*
X144078799Y-97010853D01*
X144059093Y-97025468D01*
X144038050Y-97038080D01*
X144015871Y-97048570D01*
X143992772Y-97056835D01*
X143968973Y-97062796D01*
X143944705Y-97066396D01*
X143920201Y-97067600D01*
X143270199Y-97067600D01*
X143245695Y-97066396D01*
X143221427Y-97062796D01*
X143197628Y-97056835D01*
X143174529Y-97048570D01*
X143152350Y-97038080D01*
X143131307Y-97025468D01*
X143111601Y-97010853D01*
X143093423Y-96994377D01*
X143076947Y-96976199D01*
X143062332Y-96956493D01*
X143049720Y-96935450D01*
X143039230Y-96913271D01*
X143030965Y-96890172D01*
X143025004Y-96866373D01*
X143021404Y-96842105D01*
X143020200Y-96817601D01*
X143020200Y-95917599D01*
X143021404Y-95893095D01*
X143025004Y-95868827D01*
X143030965Y-95845028D01*
X143039230Y-95821929D01*
X143049720Y-95799750D01*
X143062332Y-95778707D01*
X143076947Y-95759001D01*
X143093423Y-95740823D01*
X143111601Y-95724347D01*
X143131307Y-95709732D01*
X143152350Y-95697120D01*
X143174529Y-95686630D01*
X143197628Y-95678365D01*
X143221427Y-95672404D01*
X143245695Y-95668804D01*
X143270199Y-95667600D01*
X143920201Y-95667600D01*
X143944705Y-95668804D01*
X143944705Y-95668804D01*
G37*
D12*
X143595200Y-96367600D03*
D11*
G36*
X141894705Y-95668804D02*
X141918973Y-95672404D01*
X141942772Y-95678365D01*
X141965871Y-95686630D01*
X141988050Y-95697120D01*
X142009093Y-95709732D01*
X142028799Y-95724347D01*
X142046977Y-95740823D01*
X142063453Y-95759001D01*
X142078068Y-95778707D01*
X142090680Y-95799750D01*
X142101170Y-95821929D01*
X142109435Y-95845028D01*
X142115396Y-95868827D01*
X142118996Y-95893095D01*
X142120200Y-95917599D01*
X142120200Y-96817601D01*
X142118996Y-96842105D01*
X142115396Y-96866373D01*
X142109435Y-96890172D01*
X142101170Y-96913271D01*
X142090680Y-96935450D01*
X142078068Y-96956493D01*
X142063453Y-96976199D01*
X142046977Y-96994377D01*
X142028799Y-97010853D01*
X142009093Y-97025468D01*
X141988050Y-97038080D01*
X141965871Y-97048570D01*
X141942772Y-97056835D01*
X141918973Y-97062796D01*
X141894705Y-97066396D01*
X141870201Y-97067600D01*
X141220199Y-97067600D01*
X141195695Y-97066396D01*
X141171427Y-97062796D01*
X141147628Y-97056835D01*
X141124529Y-97048570D01*
X141102350Y-97038080D01*
X141081307Y-97025468D01*
X141061601Y-97010853D01*
X141043423Y-96994377D01*
X141026947Y-96976199D01*
X141012332Y-96956493D01*
X140999720Y-96935450D01*
X140989230Y-96913271D01*
X140980965Y-96890172D01*
X140975004Y-96866373D01*
X140971404Y-96842105D01*
X140970200Y-96817601D01*
X140970200Y-95917599D01*
X140971404Y-95893095D01*
X140975004Y-95868827D01*
X140980965Y-95845028D01*
X140989230Y-95821929D01*
X140999720Y-95799750D01*
X141012332Y-95778707D01*
X141026947Y-95759001D01*
X141043423Y-95740823D01*
X141061601Y-95724347D01*
X141081307Y-95709732D01*
X141102350Y-95697120D01*
X141124529Y-95686630D01*
X141147628Y-95678365D01*
X141171427Y-95672404D01*
X141195695Y-95668804D01*
X141220199Y-95667600D01*
X141870201Y-95667600D01*
X141894705Y-95668804D01*
X141894705Y-95668804D01*
G37*
D12*
X141545200Y-96367600D03*
G04 #@! TD*
D11*
G04 #@! TO.C,C8*
G36*
X156392405Y-72844904D02*
X156416673Y-72848504D01*
X156440472Y-72854465D01*
X156463571Y-72862730D01*
X156485750Y-72873220D01*
X156506793Y-72885832D01*
X156526499Y-72900447D01*
X156544677Y-72916923D01*
X156561153Y-72935101D01*
X156575768Y-72954807D01*
X156588380Y-72975850D01*
X156598870Y-72998029D01*
X156607135Y-73021128D01*
X156613096Y-73044927D01*
X156616696Y-73069195D01*
X156617900Y-73093699D01*
X156617900Y-73743701D01*
X156616696Y-73768205D01*
X156613096Y-73792473D01*
X156607135Y-73816272D01*
X156598870Y-73839371D01*
X156588380Y-73861550D01*
X156575768Y-73882593D01*
X156561153Y-73902299D01*
X156544677Y-73920477D01*
X156526499Y-73936953D01*
X156506793Y-73951568D01*
X156485750Y-73964180D01*
X156463571Y-73974670D01*
X156440472Y-73982935D01*
X156416673Y-73988896D01*
X156392405Y-73992496D01*
X156367901Y-73993700D01*
X155467899Y-73993700D01*
X155443395Y-73992496D01*
X155419127Y-73988896D01*
X155395328Y-73982935D01*
X155372229Y-73974670D01*
X155350050Y-73964180D01*
X155329007Y-73951568D01*
X155309301Y-73936953D01*
X155291123Y-73920477D01*
X155274647Y-73902299D01*
X155260032Y-73882593D01*
X155247420Y-73861550D01*
X155236930Y-73839371D01*
X155228665Y-73816272D01*
X155222704Y-73792473D01*
X155219104Y-73768205D01*
X155217900Y-73743701D01*
X155217900Y-73093699D01*
X155219104Y-73069195D01*
X155222704Y-73044927D01*
X155228665Y-73021128D01*
X155236930Y-72998029D01*
X155247420Y-72975850D01*
X155260032Y-72954807D01*
X155274647Y-72935101D01*
X155291123Y-72916923D01*
X155309301Y-72900447D01*
X155329007Y-72885832D01*
X155350050Y-72873220D01*
X155372229Y-72862730D01*
X155395328Y-72854465D01*
X155419127Y-72848504D01*
X155443395Y-72844904D01*
X155467899Y-72843700D01*
X156367901Y-72843700D01*
X156392405Y-72844904D01*
X156392405Y-72844904D01*
G37*
D12*
X155917900Y-73418700D03*
D11*
G36*
X156392405Y-74894904D02*
X156416673Y-74898504D01*
X156440472Y-74904465D01*
X156463571Y-74912730D01*
X156485750Y-74923220D01*
X156506793Y-74935832D01*
X156526499Y-74950447D01*
X156544677Y-74966923D01*
X156561153Y-74985101D01*
X156575768Y-75004807D01*
X156588380Y-75025850D01*
X156598870Y-75048029D01*
X156607135Y-75071128D01*
X156613096Y-75094927D01*
X156616696Y-75119195D01*
X156617900Y-75143699D01*
X156617900Y-75793701D01*
X156616696Y-75818205D01*
X156613096Y-75842473D01*
X156607135Y-75866272D01*
X156598870Y-75889371D01*
X156588380Y-75911550D01*
X156575768Y-75932593D01*
X156561153Y-75952299D01*
X156544677Y-75970477D01*
X156526499Y-75986953D01*
X156506793Y-76001568D01*
X156485750Y-76014180D01*
X156463571Y-76024670D01*
X156440472Y-76032935D01*
X156416673Y-76038896D01*
X156392405Y-76042496D01*
X156367901Y-76043700D01*
X155467899Y-76043700D01*
X155443395Y-76042496D01*
X155419127Y-76038896D01*
X155395328Y-76032935D01*
X155372229Y-76024670D01*
X155350050Y-76014180D01*
X155329007Y-76001568D01*
X155309301Y-75986953D01*
X155291123Y-75970477D01*
X155274647Y-75952299D01*
X155260032Y-75932593D01*
X155247420Y-75911550D01*
X155236930Y-75889371D01*
X155228665Y-75866272D01*
X155222704Y-75842473D01*
X155219104Y-75818205D01*
X155217900Y-75793701D01*
X155217900Y-75143699D01*
X155219104Y-75119195D01*
X155222704Y-75094927D01*
X155228665Y-75071128D01*
X155236930Y-75048029D01*
X155247420Y-75025850D01*
X155260032Y-75004807D01*
X155274647Y-74985101D01*
X155291123Y-74966923D01*
X155309301Y-74950447D01*
X155329007Y-74935832D01*
X155350050Y-74923220D01*
X155372229Y-74912730D01*
X155395328Y-74904465D01*
X155419127Y-74898504D01*
X155443395Y-74894904D01*
X155467899Y-74893700D01*
X156367901Y-74893700D01*
X156392405Y-74894904D01*
X156392405Y-74894904D01*
G37*
D12*
X155917900Y-75468700D03*
G04 #@! TD*
D11*
G04 #@! TO.C,C9*
G36*
X156595605Y-92027204D02*
X156619873Y-92030804D01*
X156643672Y-92036765D01*
X156666771Y-92045030D01*
X156688950Y-92055520D01*
X156709993Y-92068132D01*
X156729699Y-92082747D01*
X156747877Y-92099223D01*
X156764353Y-92117401D01*
X156778968Y-92137107D01*
X156791580Y-92158150D01*
X156802070Y-92180329D01*
X156810335Y-92203428D01*
X156816296Y-92227227D01*
X156819896Y-92251495D01*
X156821100Y-92275999D01*
X156821100Y-92926001D01*
X156819896Y-92950505D01*
X156816296Y-92974773D01*
X156810335Y-92998572D01*
X156802070Y-93021671D01*
X156791580Y-93043850D01*
X156778968Y-93064893D01*
X156764353Y-93084599D01*
X156747877Y-93102777D01*
X156729699Y-93119253D01*
X156709993Y-93133868D01*
X156688950Y-93146480D01*
X156666771Y-93156970D01*
X156643672Y-93165235D01*
X156619873Y-93171196D01*
X156595605Y-93174796D01*
X156571101Y-93176000D01*
X155671099Y-93176000D01*
X155646595Y-93174796D01*
X155622327Y-93171196D01*
X155598528Y-93165235D01*
X155575429Y-93156970D01*
X155553250Y-93146480D01*
X155532207Y-93133868D01*
X155512501Y-93119253D01*
X155494323Y-93102777D01*
X155477847Y-93084599D01*
X155463232Y-93064893D01*
X155450620Y-93043850D01*
X155440130Y-93021671D01*
X155431865Y-92998572D01*
X155425904Y-92974773D01*
X155422304Y-92950505D01*
X155421100Y-92926001D01*
X155421100Y-92275999D01*
X155422304Y-92251495D01*
X155425904Y-92227227D01*
X155431865Y-92203428D01*
X155440130Y-92180329D01*
X155450620Y-92158150D01*
X155463232Y-92137107D01*
X155477847Y-92117401D01*
X155494323Y-92099223D01*
X155512501Y-92082747D01*
X155532207Y-92068132D01*
X155553250Y-92055520D01*
X155575429Y-92045030D01*
X155598528Y-92036765D01*
X155622327Y-92030804D01*
X155646595Y-92027204D01*
X155671099Y-92026000D01*
X156571101Y-92026000D01*
X156595605Y-92027204D01*
X156595605Y-92027204D01*
G37*
D12*
X156121100Y-92601000D03*
D11*
G36*
X156595605Y-89977204D02*
X156619873Y-89980804D01*
X156643672Y-89986765D01*
X156666771Y-89995030D01*
X156688950Y-90005520D01*
X156709993Y-90018132D01*
X156729699Y-90032747D01*
X156747877Y-90049223D01*
X156764353Y-90067401D01*
X156778968Y-90087107D01*
X156791580Y-90108150D01*
X156802070Y-90130329D01*
X156810335Y-90153428D01*
X156816296Y-90177227D01*
X156819896Y-90201495D01*
X156821100Y-90225999D01*
X156821100Y-90876001D01*
X156819896Y-90900505D01*
X156816296Y-90924773D01*
X156810335Y-90948572D01*
X156802070Y-90971671D01*
X156791580Y-90993850D01*
X156778968Y-91014893D01*
X156764353Y-91034599D01*
X156747877Y-91052777D01*
X156729699Y-91069253D01*
X156709993Y-91083868D01*
X156688950Y-91096480D01*
X156666771Y-91106970D01*
X156643672Y-91115235D01*
X156619873Y-91121196D01*
X156595605Y-91124796D01*
X156571101Y-91126000D01*
X155671099Y-91126000D01*
X155646595Y-91124796D01*
X155622327Y-91121196D01*
X155598528Y-91115235D01*
X155575429Y-91106970D01*
X155553250Y-91096480D01*
X155532207Y-91083868D01*
X155512501Y-91069253D01*
X155494323Y-91052777D01*
X155477847Y-91034599D01*
X155463232Y-91014893D01*
X155450620Y-90993850D01*
X155440130Y-90971671D01*
X155431865Y-90948572D01*
X155425904Y-90924773D01*
X155422304Y-90900505D01*
X155421100Y-90876001D01*
X155421100Y-90225999D01*
X155422304Y-90201495D01*
X155425904Y-90177227D01*
X155431865Y-90153428D01*
X155440130Y-90130329D01*
X155450620Y-90108150D01*
X155463232Y-90087107D01*
X155477847Y-90067401D01*
X155494323Y-90049223D01*
X155512501Y-90032747D01*
X155532207Y-90018132D01*
X155553250Y-90005520D01*
X155575429Y-89995030D01*
X155598528Y-89986765D01*
X155622327Y-89980804D01*
X155646595Y-89977204D01*
X155671099Y-89976000D01*
X156571101Y-89976000D01*
X156595605Y-89977204D01*
X156595605Y-89977204D01*
G37*
D12*
X156121100Y-90551000D03*
G04 #@! TD*
D11*
G04 #@! TO.C,C10*
G36*
X156392405Y-110094004D02*
X156416673Y-110097604D01*
X156440472Y-110103565D01*
X156463571Y-110111830D01*
X156485750Y-110122320D01*
X156506793Y-110134932D01*
X156526499Y-110149547D01*
X156544677Y-110166023D01*
X156561153Y-110184201D01*
X156575768Y-110203907D01*
X156588380Y-110224950D01*
X156598870Y-110247129D01*
X156607135Y-110270228D01*
X156613096Y-110294027D01*
X156616696Y-110318295D01*
X156617900Y-110342799D01*
X156617900Y-110992801D01*
X156616696Y-111017305D01*
X156613096Y-111041573D01*
X156607135Y-111065372D01*
X156598870Y-111088471D01*
X156588380Y-111110650D01*
X156575768Y-111131693D01*
X156561153Y-111151399D01*
X156544677Y-111169577D01*
X156526499Y-111186053D01*
X156506793Y-111200668D01*
X156485750Y-111213280D01*
X156463571Y-111223770D01*
X156440472Y-111232035D01*
X156416673Y-111237996D01*
X156392405Y-111241596D01*
X156367901Y-111242800D01*
X155467899Y-111242800D01*
X155443395Y-111241596D01*
X155419127Y-111237996D01*
X155395328Y-111232035D01*
X155372229Y-111223770D01*
X155350050Y-111213280D01*
X155329007Y-111200668D01*
X155309301Y-111186053D01*
X155291123Y-111169577D01*
X155274647Y-111151399D01*
X155260032Y-111131693D01*
X155247420Y-111110650D01*
X155236930Y-111088471D01*
X155228665Y-111065372D01*
X155222704Y-111041573D01*
X155219104Y-111017305D01*
X155217900Y-110992801D01*
X155217900Y-110342799D01*
X155219104Y-110318295D01*
X155222704Y-110294027D01*
X155228665Y-110270228D01*
X155236930Y-110247129D01*
X155247420Y-110224950D01*
X155260032Y-110203907D01*
X155274647Y-110184201D01*
X155291123Y-110166023D01*
X155309301Y-110149547D01*
X155329007Y-110134932D01*
X155350050Y-110122320D01*
X155372229Y-110111830D01*
X155395328Y-110103565D01*
X155419127Y-110097604D01*
X155443395Y-110094004D01*
X155467899Y-110092800D01*
X156367901Y-110092800D01*
X156392405Y-110094004D01*
X156392405Y-110094004D01*
G37*
D12*
X155917900Y-110667800D03*
D11*
G36*
X156392405Y-108044004D02*
X156416673Y-108047604D01*
X156440472Y-108053565D01*
X156463571Y-108061830D01*
X156485750Y-108072320D01*
X156506793Y-108084932D01*
X156526499Y-108099547D01*
X156544677Y-108116023D01*
X156561153Y-108134201D01*
X156575768Y-108153907D01*
X156588380Y-108174950D01*
X156598870Y-108197129D01*
X156607135Y-108220228D01*
X156613096Y-108244027D01*
X156616696Y-108268295D01*
X156617900Y-108292799D01*
X156617900Y-108942801D01*
X156616696Y-108967305D01*
X156613096Y-108991573D01*
X156607135Y-109015372D01*
X156598870Y-109038471D01*
X156588380Y-109060650D01*
X156575768Y-109081693D01*
X156561153Y-109101399D01*
X156544677Y-109119577D01*
X156526499Y-109136053D01*
X156506793Y-109150668D01*
X156485750Y-109163280D01*
X156463571Y-109173770D01*
X156440472Y-109182035D01*
X156416673Y-109187996D01*
X156392405Y-109191596D01*
X156367901Y-109192800D01*
X155467899Y-109192800D01*
X155443395Y-109191596D01*
X155419127Y-109187996D01*
X155395328Y-109182035D01*
X155372229Y-109173770D01*
X155350050Y-109163280D01*
X155329007Y-109150668D01*
X155309301Y-109136053D01*
X155291123Y-109119577D01*
X155274647Y-109101399D01*
X155260032Y-109081693D01*
X155247420Y-109060650D01*
X155236930Y-109038471D01*
X155228665Y-109015372D01*
X155222704Y-108991573D01*
X155219104Y-108967305D01*
X155217900Y-108942801D01*
X155217900Y-108292799D01*
X155219104Y-108268295D01*
X155222704Y-108244027D01*
X155228665Y-108220228D01*
X155236930Y-108197129D01*
X155247420Y-108174950D01*
X155260032Y-108153907D01*
X155274647Y-108134201D01*
X155291123Y-108116023D01*
X155309301Y-108099547D01*
X155329007Y-108084932D01*
X155350050Y-108072320D01*
X155372229Y-108061830D01*
X155395328Y-108053565D01*
X155419127Y-108047604D01*
X155443395Y-108044004D01*
X155467899Y-108042800D01*
X156367901Y-108042800D01*
X156392405Y-108044004D01*
X156392405Y-108044004D01*
G37*
D12*
X155917900Y-108617800D03*
G04 #@! TD*
D15*
G04 #@! TO.C,Q1*
X147050800Y-116322600D03*
X145150800Y-116322600D03*
X146100800Y-118322600D03*
G04 #@! TD*
G04 #@! TO.C,Q2*
X150202900Y-118297200D03*
X149252900Y-116297200D03*
X151152900Y-116297200D03*
G04 #@! TD*
G04 #@! TO.C,Q3*
X142859800Y-116144800D03*
X140959800Y-116144800D03*
X141909800Y-118144800D03*
G04 #@! TD*
D11*
G04 #@! TO.C,R1*
G36*
X145835405Y-93509804D02*
X145859673Y-93513404D01*
X145883472Y-93519365D01*
X145906571Y-93527630D01*
X145928750Y-93538120D01*
X145949793Y-93550732D01*
X145969499Y-93565347D01*
X145987677Y-93581823D01*
X146004153Y-93600001D01*
X146018768Y-93619707D01*
X146031380Y-93640750D01*
X146041870Y-93662929D01*
X146050135Y-93686028D01*
X146056096Y-93709827D01*
X146059696Y-93734095D01*
X146060900Y-93758599D01*
X146060900Y-94658601D01*
X146059696Y-94683105D01*
X146056096Y-94707373D01*
X146050135Y-94731172D01*
X146041870Y-94754271D01*
X146031380Y-94776450D01*
X146018768Y-94797493D01*
X146004153Y-94817199D01*
X145987677Y-94835377D01*
X145969499Y-94851853D01*
X145949793Y-94866468D01*
X145928750Y-94879080D01*
X145906571Y-94889570D01*
X145883472Y-94897835D01*
X145859673Y-94903796D01*
X145835405Y-94907396D01*
X145810901Y-94908600D01*
X145160899Y-94908600D01*
X145136395Y-94907396D01*
X145112127Y-94903796D01*
X145088328Y-94897835D01*
X145065229Y-94889570D01*
X145043050Y-94879080D01*
X145022007Y-94866468D01*
X145002301Y-94851853D01*
X144984123Y-94835377D01*
X144967647Y-94817199D01*
X144953032Y-94797493D01*
X144940420Y-94776450D01*
X144929930Y-94754271D01*
X144921665Y-94731172D01*
X144915704Y-94707373D01*
X144912104Y-94683105D01*
X144910900Y-94658601D01*
X144910900Y-93758599D01*
X144912104Y-93734095D01*
X144915704Y-93709827D01*
X144921665Y-93686028D01*
X144929930Y-93662929D01*
X144940420Y-93640750D01*
X144953032Y-93619707D01*
X144967647Y-93600001D01*
X144984123Y-93581823D01*
X145002301Y-93565347D01*
X145022007Y-93550732D01*
X145043050Y-93538120D01*
X145065229Y-93527630D01*
X145088328Y-93519365D01*
X145112127Y-93513404D01*
X145136395Y-93509804D01*
X145160899Y-93508600D01*
X145810901Y-93508600D01*
X145835405Y-93509804D01*
X145835405Y-93509804D01*
G37*
D12*
X145485900Y-94208600D03*
D11*
G36*
X147885405Y-93509804D02*
X147909673Y-93513404D01*
X147933472Y-93519365D01*
X147956571Y-93527630D01*
X147978750Y-93538120D01*
X147999793Y-93550732D01*
X148019499Y-93565347D01*
X148037677Y-93581823D01*
X148054153Y-93600001D01*
X148068768Y-93619707D01*
X148081380Y-93640750D01*
X148091870Y-93662929D01*
X148100135Y-93686028D01*
X148106096Y-93709827D01*
X148109696Y-93734095D01*
X148110900Y-93758599D01*
X148110900Y-94658601D01*
X148109696Y-94683105D01*
X148106096Y-94707373D01*
X148100135Y-94731172D01*
X148091870Y-94754271D01*
X148081380Y-94776450D01*
X148068768Y-94797493D01*
X148054153Y-94817199D01*
X148037677Y-94835377D01*
X148019499Y-94851853D01*
X147999793Y-94866468D01*
X147978750Y-94879080D01*
X147956571Y-94889570D01*
X147933472Y-94897835D01*
X147909673Y-94903796D01*
X147885405Y-94907396D01*
X147860901Y-94908600D01*
X147210899Y-94908600D01*
X147186395Y-94907396D01*
X147162127Y-94903796D01*
X147138328Y-94897835D01*
X147115229Y-94889570D01*
X147093050Y-94879080D01*
X147072007Y-94866468D01*
X147052301Y-94851853D01*
X147034123Y-94835377D01*
X147017647Y-94817199D01*
X147003032Y-94797493D01*
X146990420Y-94776450D01*
X146979930Y-94754271D01*
X146971665Y-94731172D01*
X146965704Y-94707373D01*
X146962104Y-94683105D01*
X146960900Y-94658601D01*
X146960900Y-93758599D01*
X146962104Y-93734095D01*
X146965704Y-93709827D01*
X146971665Y-93686028D01*
X146979930Y-93662929D01*
X146990420Y-93640750D01*
X147003032Y-93619707D01*
X147017647Y-93600001D01*
X147034123Y-93581823D01*
X147052301Y-93565347D01*
X147072007Y-93550732D01*
X147093050Y-93538120D01*
X147115229Y-93527630D01*
X147138328Y-93519365D01*
X147162127Y-93513404D01*
X147186395Y-93509804D01*
X147210899Y-93508600D01*
X147860901Y-93508600D01*
X147885405Y-93509804D01*
X147885405Y-93509804D01*
G37*
D12*
X147535900Y-94208600D03*
G04 #@! TD*
D11*
G04 #@! TO.C,R2*
G36*
X139476005Y-106474504D02*
X139500273Y-106478104D01*
X139524072Y-106484065D01*
X139547171Y-106492330D01*
X139569350Y-106502820D01*
X139590393Y-106515432D01*
X139610099Y-106530047D01*
X139628277Y-106546523D01*
X139644753Y-106564701D01*
X139659368Y-106584407D01*
X139671980Y-106605450D01*
X139682470Y-106627629D01*
X139690735Y-106650728D01*
X139696696Y-106674527D01*
X139700296Y-106698795D01*
X139701500Y-106723299D01*
X139701500Y-107373301D01*
X139700296Y-107397805D01*
X139696696Y-107422073D01*
X139690735Y-107445872D01*
X139682470Y-107468971D01*
X139671980Y-107491150D01*
X139659368Y-107512193D01*
X139644753Y-107531899D01*
X139628277Y-107550077D01*
X139610099Y-107566553D01*
X139590393Y-107581168D01*
X139569350Y-107593780D01*
X139547171Y-107604270D01*
X139524072Y-107612535D01*
X139500273Y-107618496D01*
X139476005Y-107622096D01*
X139451501Y-107623300D01*
X138551499Y-107623300D01*
X138526995Y-107622096D01*
X138502727Y-107618496D01*
X138478928Y-107612535D01*
X138455829Y-107604270D01*
X138433650Y-107593780D01*
X138412607Y-107581168D01*
X138392901Y-107566553D01*
X138374723Y-107550077D01*
X138358247Y-107531899D01*
X138343632Y-107512193D01*
X138331020Y-107491150D01*
X138320530Y-107468971D01*
X138312265Y-107445872D01*
X138306304Y-107422073D01*
X138302704Y-107397805D01*
X138301500Y-107373301D01*
X138301500Y-106723299D01*
X138302704Y-106698795D01*
X138306304Y-106674527D01*
X138312265Y-106650728D01*
X138320530Y-106627629D01*
X138331020Y-106605450D01*
X138343632Y-106584407D01*
X138358247Y-106564701D01*
X138374723Y-106546523D01*
X138392901Y-106530047D01*
X138412607Y-106515432D01*
X138433650Y-106502820D01*
X138455829Y-106492330D01*
X138478928Y-106484065D01*
X138502727Y-106478104D01*
X138526995Y-106474504D01*
X138551499Y-106473300D01*
X139451501Y-106473300D01*
X139476005Y-106474504D01*
X139476005Y-106474504D01*
G37*
D12*
X139001500Y-107048300D03*
D11*
G36*
X139476005Y-104424504D02*
X139500273Y-104428104D01*
X139524072Y-104434065D01*
X139547171Y-104442330D01*
X139569350Y-104452820D01*
X139590393Y-104465432D01*
X139610099Y-104480047D01*
X139628277Y-104496523D01*
X139644753Y-104514701D01*
X139659368Y-104534407D01*
X139671980Y-104555450D01*
X139682470Y-104577629D01*
X139690735Y-104600728D01*
X139696696Y-104624527D01*
X139700296Y-104648795D01*
X139701500Y-104673299D01*
X139701500Y-105323301D01*
X139700296Y-105347805D01*
X139696696Y-105372073D01*
X139690735Y-105395872D01*
X139682470Y-105418971D01*
X139671980Y-105441150D01*
X139659368Y-105462193D01*
X139644753Y-105481899D01*
X139628277Y-105500077D01*
X139610099Y-105516553D01*
X139590393Y-105531168D01*
X139569350Y-105543780D01*
X139547171Y-105554270D01*
X139524072Y-105562535D01*
X139500273Y-105568496D01*
X139476005Y-105572096D01*
X139451501Y-105573300D01*
X138551499Y-105573300D01*
X138526995Y-105572096D01*
X138502727Y-105568496D01*
X138478928Y-105562535D01*
X138455829Y-105554270D01*
X138433650Y-105543780D01*
X138412607Y-105531168D01*
X138392901Y-105516553D01*
X138374723Y-105500077D01*
X138358247Y-105481899D01*
X138343632Y-105462193D01*
X138331020Y-105441150D01*
X138320530Y-105418971D01*
X138312265Y-105395872D01*
X138306304Y-105372073D01*
X138302704Y-105347805D01*
X138301500Y-105323301D01*
X138301500Y-104673299D01*
X138302704Y-104648795D01*
X138306304Y-104624527D01*
X138312265Y-104600728D01*
X138320530Y-104577629D01*
X138331020Y-104555450D01*
X138343632Y-104534407D01*
X138358247Y-104514701D01*
X138374723Y-104496523D01*
X138392901Y-104480047D01*
X138412607Y-104465432D01*
X138433650Y-104452820D01*
X138455829Y-104442330D01*
X138478928Y-104434065D01*
X138502727Y-104428104D01*
X138526995Y-104424504D01*
X138551499Y-104423300D01*
X139451501Y-104423300D01*
X139476005Y-104424504D01*
X139476005Y-104424504D01*
G37*
D12*
X139001500Y-104998300D03*
G04 #@! TD*
D16*
G04 #@! TO.C,U1*
X141749200Y-100666900D03*
X141749200Y-101466900D03*
X141749200Y-102266900D03*
X141749200Y-103066900D03*
X141749200Y-103866900D03*
X141749200Y-104666900D03*
X141749200Y-105466900D03*
X141749200Y-106266900D03*
D17*
X143199200Y-107716900D03*
X143999200Y-107716900D03*
X144799200Y-107716900D03*
X145599200Y-107716900D03*
X146399200Y-107716900D03*
X147199200Y-107716900D03*
X147999200Y-107716900D03*
X148799200Y-107716900D03*
D16*
X150249200Y-106266900D03*
X150249200Y-105466900D03*
X150249200Y-104666900D03*
X150249200Y-103866900D03*
X150249200Y-103066900D03*
X150249200Y-102266900D03*
X150249200Y-101466900D03*
X150249200Y-100666900D03*
D17*
X148799200Y-99216900D03*
X147999200Y-99216900D03*
X147199200Y-99216900D03*
X146399200Y-99216900D03*
X145599200Y-99216900D03*
X144799200Y-99216900D03*
X143999200Y-99216900D03*
X143199200Y-99216900D03*
G04 #@! TD*
D18*
G04 #@! TO.C,Y1*
X134975600Y-111931700D03*
X134975600Y-100056700D03*
G04 #@! TD*
D19*
G04 #@! TO.C,U2*
X145977500Y-80181100D03*
X145977500Y-84741100D03*
D20*
X153952500Y-83986100D03*
X150602500Y-80936100D03*
X153952500Y-80936100D03*
X150602500Y-83986100D03*
G04 #@! TD*
D21*
G04 #@! TO.C,J3*
X149700000Y-121300000D03*
D10*
X147160000Y-121300000D03*
X144620000Y-121300000D03*
X142080000Y-121300000D03*
G04 #@! TD*
G04 #@! TO.C,J4*
X134000000Y-121300000D03*
X136540000Y-121300000D03*
G04 #@! TD*
D22*
G04 #@! TO.C,Q4*
X132401780Y-92550040D03*
X132401780Y-94449960D03*
X134499820Y-93500000D03*
G04 #@! TD*
G04 #@! TO.C,Q5*
X140149820Y-93650000D03*
X138051780Y-94599960D03*
X138051780Y-92700040D03*
G04 #@! TD*
D23*
G04 #@! TO.C,R3*
X143599160Y-94050000D03*
X141800840Y-94050000D03*
G04 #@! TD*
D24*
G04 #@! TO.C,R4*
X138550000Y-97799160D03*
X138550000Y-96000840D03*
G04 #@! TD*
G04 #@! TO.C,R5*
X136250000Y-94498320D03*
X136250000Y-92700000D03*
G04 #@! TD*
G04 #@! TO.C,R6*
X132300000Y-87900840D03*
X132300000Y-89699160D03*
G04 #@! TD*
M02*
