G04 #@! TF.GenerationSoftware,KiCad,Pcbnew,5.0.2-bee76a0~70~ubuntu18.04.1*
G04 #@! TF.CreationDate,2019-12-16T19:01:30-05:00*
G04 #@! TF.ProjectId,LEDStuff,4c454453-7475-4666-962e-6b696361645f,rev?*
G04 #@! TF.SameCoordinates,Original*
G04 #@! TF.FileFunction,Legend,Top*
G04 #@! TF.FilePolarity,Positive*
%FSLAX46Y46*%
G04 Gerber Fmt 4.6, Leading zero omitted, Abs format (unit mm)*
G04 Created by KiCad (PCBNEW 5.0.2-bee76a0~70~ubuntu18.04.1) date Mon 16 Dec 2019 07:01:30 PM EST*
%MOMM*%
%LPD*%
G01*
G04 APERTURE LIST*
%ADD10C,0.066040*%
%ADD11C,0.120000*%
%ADD12C,0.150000*%
%ADD13C,0.152400*%
%ADD14C,0.050800*%
G04 APERTURE END LIST*
D10*
G04 #@! TO.C,J2*
X166326000Y-120254000D02*
X166834000Y-120254000D01*
X166834000Y-120254000D02*
X166834000Y-119746000D01*
X166326000Y-119746000D02*
X166834000Y-119746000D01*
X166326000Y-120254000D02*
X166326000Y-119746000D01*
X163786000Y-120254000D02*
X164294000Y-120254000D01*
X164294000Y-120254000D02*
X164294000Y-119746000D01*
X163786000Y-119746000D02*
X164294000Y-119746000D01*
X163786000Y-120254000D02*
X163786000Y-119746000D01*
X161246000Y-120254000D02*
X161754000Y-120254000D01*
X161754000Y-120254000D02*
X161754000Y-119746000D01*
X161246000Y-119746000D02*
X161754000Y-119746000D01*
X161246000Y-120254000D02*
X161246000Y-119746000D01*
X158706000Y-120254000D02*
X159214000Y-120254000D01*
X159214000Y-120254000D02*
X159214000Y-119746000D01*
X158706000Y-119746000D02*
X159214000Y-119746000D01*
X158706000Y-120254000D02*
X158706000Y-119746000D01*
X156166000Y-120254000D02*
X156674000Y-120254000D01*
X156674000Y-120254000D02*
X156674000Y-119746000D01*
X156166000Y-119746000D02*
X156674000Y-119746000D01*
X156166000Y-120254000D02*
X156166000Y-119746000D01*
X153626000Y-120254000D02*
X154134000Y-120254000D01*
X154134000Y-120254000D02*
X154134000Y-119746000D01*
X153626000Y-119746000D02*
X154134000Y-119746000D01*
X153626000Y-120254000D02*
X153626000Y-119746000D01*
D11*
G04 #@! TO.C,C1*
X153516400Y-103833452D02*
X153516400Y-103310948D01*
X152096400Y-103833452D02*
X152096400Y-103310948D01*
G04 #@! TO.C,C2*
X152300996Y-69602071D02*
X149950996Y-69602071D01*
X145480996Y-69602071D02*
X147830996Y-69602071D01*
X145480996Y-75357634D02*
X145480996Y-69602071D01*
X152300996Y-75357634D02*
X152300996Y-69602071D01*
X151236559Y-76422071D02*
X149950996Y-76422071D01*
X146545433Y-76422071D02*
X147830996Y-76422071D01*
X146545433Y-76422071D02*
X145480996Y-75357634D01*
X151236559Y-76422071D02*
X152300996Y-75357634D01*
X147043496Y-77449571D02*
X147043496Y-76662071D01*
X146649746Y-77055821D02*
X147437246Y-77055821D01*
G04 #@! TO.C,C3*
X142943650Y-89782350D02*
X142943650Y-88994850D01*
X143337400Y-89388600D02*
X142549900Y-89388600D01*
X142309900Y-85195537D02*
X141245463Y-84131100D01*
X142309900Y-89886663D02*
X141245463Y-90951100D01*
X142309900Y-89886663D02*
X142309900Y-88601100D01*
X142309900Y-85195537D02*
X142309900Y-86481100D01*
X141245463Y-84131100D02*
X135489900Y-84131100D01*
X141245463Y-90951100D02*
X135489900Y-90951100D01*
X135489900Y-90951100D02*
X135489900Y-88601100D01*
X135489900Y-84131100D02*
X135489900Y-86481100D01*
G04 #@! TO.C,C4*
X146801048Y-86881900D02*
X147323552Y-86881900D01*
X146801048Y-88301900D02*
X147323552Y-88301900D01*
G04 #@! TO.C,C5*
X146772152Y-95644900D02*
X146249648Y-95644900D01*
X146772152Y-97064900D02*
X146249648Y-97064900D01*
G04 #@! TO.C,C6*
X142338048Y-110592800D02*
X142860552Y-110592800D01*
X142338048Y-112012800D02*
X142860552Y-112012800D01*
G04 #@! TO.C,C7*
X142308948Y-97077600D02*
X142831452Y-97077600D01*
X142308948Y-95657600D02*
X142831452Y-95657600D01*
G04 #@! TO.C,C8*
X156627900Y-74704952D02*
X156627900Y-74182448D01*
X155207900Y-74704952D02*
X155207900Y-74182448D01*
G04 #@! TO.C,C9*
X155411100Y-91837252D02*
X155411100Y-91314748D01*
X156831100Y-91837252D02*
X156831100Y-91314748D01*
G04 #@! TO.C,C10*
X155207900Y-109904052D02*
X155207900Y-109381548D01*
X156627900Y-109904052D02*
X156627900Y-109381548D01*
G04 #@! TO.C,J1*
X142743100Y-71967400D02*
X142743100Y-70917400D01*
X141693100Y-70917400D02*
X142743100Y-70917400D01*
X136643100Y-80317400D02*
X127843100Y-80317400D01*
X127843100Y-80317400D02*
X127843100Y-71117400D01*
X142543100Y-77617400D02*
X142543100Y-80317400D01*
X142543100Y-80317400D02*
X140643100Y-80317400D01*
X127843100Y-71117400D02*
X142543100Y-71117400D01*
X142543100Y-71117400D02*
X142543100Y-73717400D01*
G04 #@! TO.C,Q1*
X144520800Y-118082600D02*
X145450800Y-118082600D01*
X147680800Y-118082600D02*
X146750800Y-118082600D01*
X147680800Y-118082600D02*
X147680800Y-115922600D01*
X144520800Y-118082600D02*
X144520800Y-116622600D01*
G04 #@! TO.C,Q2*
X148622900Y-118057200D02*
X148622900Y-116597200D01*
X151782900Y-118057200D02*
X151782900Y-115897200D01*
X151782900Y-118057200D02*
X150852900Y-118057200D01*
X148622900Y-118057200D02*
X149552900Y-118057200D01*
G04 #@! TO.C,Q3*
X140329800Y-117904800D02*
X141259800Y-117904800D01*
X143489800Y-117904800D02*
X142559800Y-117904800D01*
X143489800Y-117904800D02*
X143489800Y-115744800D01*
X140329800Y-117904800D02*
X140329800Y-116444800D01*
G04 #@! TO.C,R1*
X146249648Y-93498600D02*
X146772152Y-93498600D01*
X146249648Y-94918600D02*
X146772152Y-94918600D01*
G04 #@! TO.C,R2*
X138291500Y-105762048D02*
X138291500Y-106284552D01*
X139711500Y-105762048D02*
X139711500Y-106284552D01*
G04 #@! TO.C,RV1*
X160328500Y-70901700D02*
X164193500Y-70901700D01*
X168703500Y-70901700D02*
X172568500Y-70901700D01*
X160328500Y-80841700D02*
X164193500Y-80841700D01*
X168703500Y-80841700D02*
X172568500Y-80841700D01*
X160328500Y-70901700D02*
X160328500Y-72500700D01*
X160328500Y-74242700D02*
X160328500Y-75001700D01*
X160328500Y-76742700D02*
X160328500Y-77501700D01*
X160328500Y-79241700D02*
X160328500Y-80841700D01*
X172568500Y-70901700D02*
X172568500Y-80841700D01*
G04 #@! TO.C,RV2*
X172695500Y-88097500D02*
X172695500Y-98037500D01*
X160455500Y-96437500D02*
X160455500Y-98037500D01*
X160455500Y-93938500D02*
X160455500Y-94697500D01*
X160455500Y-91438500D02*
X160455500Y-92197500D01*
X160455500Y-88097500D02*
X160455500Y-89696500D01*
X168830500Y-98037500D02*
X172695500Y-98037500D01*
X160455500Y-98037500D02*
X164320500Y-98037500D01*
X168830500Y-88097500D02*
X172695500Y-88097500D01*
X160455500Y-88097500D02*
X164320500Y-88097500D01*
G04 #@! TO.C,RV3*
X160455500Y-105941000D02*
X164320500Y-105941000D01*
X168830500Y-105941000D02*
X172695500Y-105941000D01*
X160455500Y-115881000D02*
X164320500Y-115881000D01*
X168830500Y-115881000D02*
X172695500Y-115881000D01*
X160455500Y-105941000D02*
X160455500Y-107540000D01*
X160455500Y-109282000D02*
X160455500Y-110041000D01*
X160455500Y-111782000D02*
X160455500Y-112541000D01*
X160455500Y-114281000D02*
X160455500Y-115881000D01*
X172695500Y-105941000D02*
X172695500Y-115881000D01*
D12*
G04 #@! TO.C,U1*
X142374200Y-99841900D02*
X142374200Y-100066900D01*
X149624200Y-99841900D02*
X149624200Y-100166900D01*
X149624200Y-107091900D02*
X149624200Y-106766900D01*
X142374200Y-107091900D02*
X142374200Y-106766900D01*
X142374200Y-99841900D02*
X142699200Y-99841900D01*
X142374200Y-107091900D02*
X142699200Y-107091900D01*
X149624200Y-107091900D02*
X149299200Y-107091900D01*
X149624200Y-99841900D02*
X149299200Y-99841900D01*
X142374200Y-100066900D02*
X140949200Y-100066900D01*
D11*
G04 #@! TO.C,Y1*
X132425600Y-100094200D02*
X132425600Y-116069200D01*
X132425600Y-116069200D02*
X137525600Y-116069200D01*
X137525600Y-116069200D02*
X137525600Y-100094200D01*
G04 #@! TO.C,U2*
X149207500Y-79011100D02*
X147707500Y-79011100D01*
X147707500Y-79011100D02*
X147707500Y-79281100D01*
X147707500Y-79281100D02*
X144877500Y-79281100D01*
X149207500Y-85911100D02*
X147707500Y-85911100D01*
X147707500Y-85911100D02*
X147707500Y-85641100D01*
X147707500Y-85641100D02*
X146607500Y-85641100D01*
D10*
G04 #@! TO.C,J3*
X142334000Y-121046000D02*
X141826000Y-121046000D01*
X141826000Y-121046000D02*
X141826000Y-121554000D01*
X142334000Y-121554000D02*
X141826000Y-121554000D01*
X142334000Y-121046000D02*
X142334000Y-121554000D01*
X144874000Y-121046000D02*
X144366000Y-121046000D01*
X144366000Y-121046000D02*
X144366000Y-121554000D01*
X144874000Y-121554000D02*
X144366000Y-121554000D01*
X144874000Y-121046000D02*
X144874000Y-121554000D01*
X147414000Y-121046000D02*
X146906000Y-121046000D01*
X146906000Y-121046000D02*
X146906000Y-121554000D01*
X147414000Y-121554000D02*
X146906000Y-121554000D01*
X147414000Y-121046000D02*
X147414000Y-121554000D01*
X149954000Y-121046000D02*
X149446000Y-121046000D01*
X149446000Y-121046000D02*
X149446000Y-121554000D01*
X149954000Y-121554000D02*
X149446000Y-121554000D01*
X149954000Y-121046000D02*
X149954000Y-121554000D01*
G04 #@! TO.C,J4*
X136286000Y-121554000D02*
X136794000Y-121554000D01*
X136794000Y-121554000D02*
X136794000Y-121046000D01*
X136286000Y-121046000D02*
X136794000Y-121046000D01*
X136286000Y-121554000D02*
X136286000Y-121046000D01*
X133746000Y-121554000D02*
X134254000Y-121554000D01*
X134254000Y-121554000D02*
X134254000Y-121046000D01*
X133746000Y-121046000D02*
X134254000Y-121046000D01*
X133746000Y-121554000D02*
X133746000Y-121046000D01*
D13*
G04 #@! TO.C,Q4*
X134060400Y-94922400D02*
X132739600Y-94922400D01*
X132739600Y-94922400D02*
X132739600Y-92077600D01*
X132739600Y-92077600D02*
X134060400Y-92077600D01*
X134060400Y-92077600D02*
X134060400Y-94922400D01*
G04 #@! TO.C,Q5*
X139710400Y-92227600D02*
X139710400Y-95072400D01*
X138389600Y-92227600D02*
X139710400Y-92227600D01*
X138389600Y-95072400D02*
X138389600Y-92227600D01*
X139710400Y-95072400D02*
X138389600Y-95072400D01*
D14*
G04 #@! TO.C,R3*
X141201400Y-94862800D02*
X141201400Y-93237200D01*
X144198600Y-94862800D02*
X141201400Y-94862800D01*
X144198600Y-93237200D02*
X144198600Y-94862800D01*
X141201400Y-93237200D02*
X144198600Y-93237200D01*
G04 #@! TO.C,R4*
X137737200Y-98398600D02*
X137737200Y-95401400D01*
X137737200Y-95401400D02*
X139362800Y-95401400D01*
X139362800Y-95401400D02*
X139362800Y-98398600D01*
X139362800Y-98398600D02*
X137737200Y-98398600D01*
G04 #@! TO.C,R5*
X135437200Y-92100560D02*
X137062800Y-92100560D01*
X135437200Y-95097760D02*
X135437200Y-92100560D01*
X137062800Y-95097760D02*
X135437200Y-95097760D01*
X137062800Y-92100560D02*
X137062800Y-95097760D01*
G04 #@! TO.C,R6*
X133112800Y-87301400D02*
X133112800Y-90298600D01*
X133112800Y-90298600D02*
X131487200Y-90298600D01*
X131487200Y-90298600D02*
X131487200Y-87301400D01*
X131487200Y-87301400D02*
X133112800Y-87301400D01*
G04 #@! TO.C,C1*
D12*
X152766733Y-101245942D02*
X152719114Y-101293561D01*
X152576257Y-101341180D01*
X152481019Y-101341180D01*
X152338161Y-101293561D01*
X152242923Y-101198323D01*
X152195304Y-101103085D01*
X152147685Y-100912609D01*
X152147685Y-100769752D01*
X152195304Y-100579276D01*
X152242923Y-100484038D01*
X152338161Y-100388800D01*
X152481019Y-100341180D01*
X152576257Y-100341180D01*
X152719114Y-100388800D01*
X152766733Y-100436419D01*
X153719114Y-101341180D02*
X153147685Y-101341180D01*
X153433400Y-101341180D02*
X153433400Y-100341180D01*
X153338161Y-100484038D01*
X153242923Y-100579276D01*
X153147685Y-100626895D01*
G04 #@! TO.C,C2*
X144079933Y-69292742D02*
X144032314Y-69340361D01*
X143889457Y-69387980D01*
X143794219Y-69387980D01*
X143651361Y-69340361D01*
X143556123Y-69245123D01*
X143508504Y-69149885D01*
X143460885Y-68959409D01*
X143460885Y-68816552D01*
X143508504Y-68626076D01*
X143556123Y-68530838D01*
X143651361Y-68435600D01*
X143794219Y-68387980D01*
X143889457Y-68387980D01*
X144032314Y-68435600D01*
X144079933Y-68483219D01*
X144460885Y-68483219D02*
X144508504Y-68435600D01*
X144603742Y-68387980D01*
X144841838Y-68387980D01*
X144937076Y-68435600D01*
X144984695Y-68483219D01*
X145032314Y-68578457D01*
X145032314Y-68673695D01*
X144984695Y-68816552D01*
X144413266Y-69387980D01*
X145032314Y-69387980D01*
G04 #@! TO.C,C3*
X138733233Y-92248242D02*
X138685614Y-92295861D01*
X138542757Y-92343480D01*
X138447519Y-92343480D01*
X138304661Y-92295861D01*
X138209423Y-92200623D01*
X138161804Y-92105385D01*
X138114185Y-91914909D01*
X138114185Y-91772052D01*
X138161804Y-91581576D01*
X138209423Y-91486338D01*
X138304661Y-91391100D01*
X138447519Y-91343480D01*
X138542757Y-91343480D01*
X138685614Y-91391100D01*
X138733233Y-91438719D01*
X139066566Y-91343480D02*
X139685614Y-91343480D01*
X139352280Y-91724433D01*
X139495138Y-91724433D01*
X139590376Y-91772052D01*
X139637995Y-91819671D01*
X139685614Y-91914909D01*
X139685614Y-92153004D01*
X139637995Y-92248242D01*
X139590376Y-92295861D01*
X139495138Y-92343480D01*
X139209423Y-92343480D01*
X139114185Y-92295861D01*
X139066566Y-92248242D01*
G04 #@! TO.C,C4*
X150036233Y-87860142D02*
X149988614Y-87907761D01*
X149845757Y-87955380D01*
X149750519Y-87955380D01*
X149607661Y-87907761D01*
X149512423Y-87812523D01*
X149464804Y-87717285D01*
X149417185Y-87526809D01*
X149417185Y-87383952D01*
X149464804Y-87193476D01*
X149512423Y-87098238D01*
X149607661Y-87003000D01*
X149750519Y-86955380D01*
X149845757Y-86955380D01*
X149988614Y-87003000D01*
X150036233Y-87050619D01*
X150893376Y-87288714D02*
X150893376Y-87955380D01*
X150655280Y-86907761D02*
X150417185Y-87622047D01*
X151036233Y-87622047D01*
G04 #@! TO.C,C5*
X149337733Y-96851742D02*
X149290114Y-96899361D01*
X149147257Y-96946980D01*
X149052019Y-96946980D01*
X148909161Y-96899361D01*
X148813923Y-96804123D01*
X148766304Y-96708885D01*
X148718685Y-96518409D01*
X148718685Y-96375552D01*
X148766304Y-96185076D01*
X148813923Y-96089838D01*
X148909161Y-95994600D01*
X149052019Y-95946980D01*
X149147257Y-95946980D01*
X149290114Y-95994600D01*
X149337733Y-96042219D01*
X150242495Y-95946980D02*
X149766304Y-95946980D01*
X149718685Y-96423171D01*
X149766304Y-96375552D01*
X149861542Y-96327933D01*
X150099638Y-96327933D01*
X150194876Y-96375552D01*
X150242495Y-96423171D01*
X150290114Y-96518409D01*
X150290114Y-96756504D01*
X150242495Y-96851742D01*
X150194876Y-96899361D01*
X150099638Y-96946980D01*
X149861542Y-96946980D01*
X149766304Y-96899361D01*
X149718685Y-96851742D01*
G04 #@! TO.C,C6*
X142416233Y-109996242D02*
X142368614Y-110043861D01*
X142225757Y-110091480D01*
X142130519Y-110091480D01*
X141987661Y-110043861D01*
X141892423Y-109948623D01*
X141844804Y-109853385D01*
X141797185Y-109662909D01*
X141797185Y-109520052D01*
X141844804Y-109329576D01*
X141892423Y-109234338D01*
X141987661Y-109139100D01*
X142130519Y-109091480D01*
X142225757Y-109091480D01*
X142368614Y-109139100D01*
X142416233Y-109186719D01*
X143273376Y-109091480D02*
X143082900Y-109091480D01*
X142987661Y-109139100D01*
X142940042Y-109186719D01*
X142844804Y-109329576D01*
X142797185Y-109520052D01*
X142797185Y-109901004D01*
X142844804Y-109996242D01*
X142892423Y-110043861D01*
X142987661Y-110091480D01*
X143178138Y-110091480D01*
X143273376Y-110043861D01*
X143320995Y-109996242D01*
X143368614Y-109901004D01*
X143368614Y-109662909D01*
X143320995Y-109567671D01*
X143273376Y-109520052D01*
X143178138Y-109472433D01*
X142987661Y-109472433D01*
X142892423Y-109520052D01*
X142844804Y-109567671D01*
X142797185Y-109662909D01*
G04 #@! TO.C,C7*
X139317433Y-96839042D02*
X139269814Y-96886661D01*
X139126957Y-96934280D01*
X139031719Y-96934280D01*
X138888861Y-96886661D01*
X138793623Y-96791423D01*
X138746004Y-96696185D01*
X138698385Y-96505709D01*
X138698385Y-96362852D01*
X138746004Y-96172376D01*
X138793623Y-96077138D01*
X138888861Y-95981900D01*
X139031719Y-95934280D01*
X139126957Y-95934280D01*
X139269814Y-95981900D01*
X139317433Y-96029519D01*
X139650766Y-95934280D02*
X140317433Y-95934280D01*
X139888861Y-96934280D01*
G04 #@! TO.C,C8*
X154625042Y-74610366D02*
X154672661Y-74657985D01*
X154720280Y-74800842D01*
X154720280Y-74896080D01*
X154672661Y-75038938D01*
X154577423Y-75134176D01*
X154482185Y-75181795D01*
X154291709Y-75229414D01*
X154148852Y-75229414D01*
X153958376Y-75181795D01*
X153863138Y-75134176D01*
X153767900Y-75038938D01*
X153720280Y-74896080D01*
X153720280Y-74800842D01*
X153767900Y-74657985D01*
X153815519Y-74610366D01*
X154148852Y-74038938D02*
X154101233Y-74134176D01*
X154053614Y-74181795D01*
X153958376Y-74229414D01*
X153910757Y-74229414D01*
X153815519Y-74181795D01*
X153767900Y-74134176D01*
X153720280Y-74038938D01*
X153720280Y-73848461D01*
X153767900Y-73753223D01*
X153815519Y-73705604D01*
X153910757Y-73657985D01*
X153958376Y-73657985D01*
X154053614Y-73705604D01*
X154101233Y-73753223D01*
X154148852Y-73848461D01*
X154148852Y-74038938D01*
X154196471Y-74134176D01*
X154244090Y-74181795D01*
X154339328Y-74229414D01*
X154529804Y-74229414D01*
X154625042Y-74181795D01*
X154672661Y-74134176D01*
X154720280Y-74038938D01*
X154720280Y-73848461D01*
X154672661Y-73753223D01*
X154625042Y-73705604D01*
X154529804Y-73657985D01*
X154339328Y-73657985D01*
X154244090Y-73705604D01*
X154196471Y-73753223D01*
X154148852Y-73848461D01*
G04 #@! TO.C,C9*
X154828242Y-91742666D02*
X154875861Y-91790285D01*
X154923480Y-91933142D01*
X154923480Y-92028380D01*
X154875861Y-92171238D01*
X154780623Y-92266476D01*
X154685385Y-92314095D01*
X154494909Y-92361714D01*
X154352052Y-92361714D01*
X154161576Y-92314095D01*
X154066338Y-92266476D01*
X153971100Y-92171238D01*
X153923480Y-92028380D01*
X153923480Y-91933142D01*
X153971100Y-91790285D01*
X154018719Y-91742666D01*
X154923480Y-91266476D02*
X154923480Y-91076000D01*
X154875861Y-90980761D01*
X154828242Y-90933142D01*
X154685385Y-90837904D01*
X154494909Y-90790285D01*
X154113957Y-90790285D01*
X154018719Y-90837904D01*
X153971100Y-90885523D01*
X153923480Y-90980761D01*
X153923480Y-91171238D01*
X153971100Y-91266476D01*
X154018719Y-91314095D01*
X154113957Y-91361714D01*
X154352052Y-91361714D01*
X154447290Y-91314095D01*
X154494909Y-91266476D01*
X154542528Y-91171238D01*
X154542528Y-90980761D01*
X154494909Y-90885523D01*
X154447290Y-90837904D01*
X154352052Y-90790285D01*
G04 #@! TO.C,C10*
X154625042Y-110285657D02*
X154672661Y-110333276D01*
X154720280Y-110476133D01*
X154720280Y-110571371D01*
X154672661Y-110714228D01*
X154577423Y-110809466D01*
X154482185Y-110857085D01*
X154291709Y-110904704D01*
X154148852Y-110904704D01*
X153958376Y-110857085D01*
X153863138Y-110809466D01*
X153767900Y-110714228D01*
X153720280Y-110571371D01*
X153720280Y-110476133D01*
X153767900Y-110333276D01*
X153815519Y-110285657D01*
X154720280Y-109333276D02*
X154720280Y-109904704D01*
X154720280Y-109618990D02*
X153720280Y-109618990D01*
X153863138Y-109714228D01*
X153958376Y-109809466D01*
X154005995Y-109904704D01*
X153720280Y-108714228D02*
X153720280Y-108618990D01*
X153767900Y-108523752D01*
X153815519Y-108476133D01*
X153910757Y-108428514D01*
X154101233Y-108380895D01*
X154339328Y-108380895D01*
X154529804Y-108428514D01*
X154625042Y-108476133D01*
X154672661Y-108523752D01*
X154720280Y-108618990D01*
X154720280Y-108714228D01*
X154672661Y-108809466D01*
X154625042Y-108857085D01*
X154529804Y-108904704D01*
X154339328Y-108952323D01*
X154101233Y-108952323D01*
X153910757Y-108904704D01*
X153815519Y-108857085D01*
X153767900Y-108809466D01*
X153720280Y-108714228D01*
G04 #@! TO.C,J1*
X133143666Y-68984880D02*
X133143666Y-69699166D01*
X133096047Y-69842023D01*
X133000809Y-69937261D01*
X132857952Y-69984880D01*
X132762714Y-69984880D01*
X134143666Y-69984880D02*
X133572238Y-69984880D01*
X133857952Y-69984880D02*
X133857952Y-68984880D01*
X133762714Y-69127738D01*
X133667476Y-69222976D01*
X133572238Y-69270595D01*
G04 #@! TO.C,Q1*
X146157961Y-120207019D02*
X146062723Y-120159400D01*
X145967485Y-120064161D01*
X145824628Y-119921304D01*
X145729390Y-119873685D01*
X145634152Y-119873685D01*
X145681771Y-120111780D02*
X145586533Y-120064161D01*
X145491295Y-119968923D01*
X145443676Y-119778447D01*
X145443676Y-119445114D01*
X145491295Y-119254638D01*
X145586533Y-119159400D01*
X145681771Y-119111780D01*
X145872247Y-119111780D01*
X145967485Y-119159400D01*
X146062723Y-119254638D01*
X146110342Y-119445114D01*
X146110342Y-119778447D01*
X146062723Y-119968923D01*
X145967485Y-120064161D01*
X145872247Y-120111780D01*
X145681771Y-120111780D01*
X147062723Y-120111780D02*
X146491295Y-120111780D01*
X146777009Y-120111780D02*
X146777009Y-119111780D01*
X146681771Y-119254638D01*
X146586533Y-119349876D01*
X146491295Y-119397495D01*
G04 #@! TO.C,Q2*
X150069561Y-120207019D02*
X149974323Y-120159400D01*
X149879085Y-120064161D01*
X149736228Y-119921304D01*
X149640990Y-119873685D01*
X149545752Y-119873685D01*
X149593371Y-120111780D02*
X149498133Y-120064161D01*
X149402895Y-119968923D01*
X149355276Y-119778447D01*
X149355276Y-119445114D01*
X149402895Y-119254638D01*
X149498133Y-119159400D01*
X149593371Y-119111780D01*
X149783847Y-119111780D01*
X149879085Y-119159400D01*
X149974323Y-119254638D01*
X150021942Y-119445114D01*
X150021942Y-119778447D01*
X149974323Y-119968923D01*
X149879085Y-120064161D01*
X149783847Y-120111780D01*
X149593371Y-120111780D01*
X150402895Y-119207019D02*
X150450514Y-119159400D01*
X150545752Y-119111780D01*
X150783847Y-119111780D01*
X150879085Y-119159400D01*
X150926704Y-119207019D01*
X150974323Y-119302257D01*
X150974323Y-119397495D01*
X150926704Y-119540352D01*
X150355276Y-120111780D01*
X150974323Y-120111780D01*
G04 #@! TO.C,Q3*
X141865361Y-120257819D02*
X141770123Y-120210200D01*
X141674885Y-120114961D01*
X141532028Y-119972104D01*
X141436790Y-119924485D01*
X141341552Y-119924485D01*
X141389171Y-120162580D02*
X141293933Y-120114961D01*
X141198695Y-120019723D01*
X141151076Y-119829247D01*
X141151076Y-119495914D01*
X141198695Y-119305438D01*
X141293933Y-119210200D01*
X141389171Y-119162580D01*
X141579647Y-119162580D01*
X141674885Y-119210200D01*
X141770123Y-119305438D01*
X141817742Y-119495914D01*
X141817742Y-119829247D01*
X141770123Y-120019723D01*
X141674885Y-120114961D01*
X141579647Y-120162580D01*
X141389171Y-120162580D01*
X142151076Y-119162580D02*
X142770123Y-119162580D01*
X142436790Y-119543533D01*
X142579647Y-119543533D01*
X142674885Y-119591152D01*
X142722504Y-119638771D01*
X142770123Y-119734009D01*
X142770123Y-119972104D01*
X142722504Y-120067342D01*
X142674885Y-120114961D01*
X142579647Y-120162580D01*
X142293933Y-120162580D01*
X142198695Y-120114961D01*
X142151076Y-120067342D01*
G04 #@! TO.C,R1*
X149388533Y-94635580D02*
X149055200Y-94159390D01*
X148817104Y-94635580D02*
X148817104Y-93635580D01*
X149198057Y-93635580D01*
X149293295Y-93683200D01*
X149340914Y-93730819D01*
X149388533Y-93826057D01*
X149388533Y-93968914D01*
X149340914Y-94064152D01*
X149293295Y-94111771D01*
X149198057Y-94159390D01*
X148817104Y-94159390D01*
X150340914Y-94635580D02*
X149769485Y-94635580D01*
X150055200Y-94635580D02*
X150055200Y-93635580D01*
X149959961Y-93778438D01*
X149864723Y-93873676D01*
X149769485Y-93921295D01*
G04 #@! TO.C,R2*
X138796733Y-103906580D02*
X138463400Y-103430390D01*
X138225304Y-103906580D02*
X138225304Y-102906580D01*
X138606257Y-102906580D01*
X138701495Y-102954200D01*
X138749114Y-103001819D01*
X138796733Y-103097057D01*
X138796733Y-103239914D01*
X138749114Y-103335152D01*
X138701495Y-103382771D01*
X138606257Y-103430390D01*
X138225304Y-103430390D01*
X139177685Y-103001819D02*
X139225304Y-102954200D01*
X139320542Y-102906580D01*
X139558638Y-102906580D01*
X139653876Y-102954200D01*
X139701495Y-103001819D01*
X139749114Y-103097057D01*
X139749114Y-103192295D01*
X139701495Y-103335152D01*
X139130066Y-103906580D01*
X139749114Y-103906580D01*
G04 #@! TO.C,RV1*
X164903261Y-68674080D02*
X164569928Y-68197890D01*
X164331833Y-68674080D02*
X164331833Y-67674080D01*
X164712785Y-67674080D01*
X164808023Y-67721700D01*
X164855642Y-67769319D01*
X164903261Y-67864557D01*
X164903261Y-68007414D01*
X164855642Y-68102652D01*
X164808023Y-68150271D01*
X164712785Y-68197890D01*
X164331833Y-68197890D01*
X165188976Y-67674080D02*
X165522309Y-68674080D01*
X165855642Y-67674080D01*
X166712785Y-68674080D02*
X166141357Y-68674080D01*
X166427071Y-68674080D02*
X166427071Y-67674080D01*
X166331833Y-67816938D01*
X166236595Y-67912176D01*
X166141357Y-67959795D01*
G04 #@! TO.C,RV2*
X165030261Y-85869880D02*
X164696928Y-85393690D01*
X164458833Y-85869880D02*
X164458833Y-84869880D01*
X164839785Y-84869880D01*
X164935023Y-84917500D01*
X164982642Y-84965119D01*
X165030261Y-85060357D01*
X165030261Y-85203214D01*
X164982642Y-85298452D01*
X164935023Y-85346071D01*
X164839785Y-85393690D01*
X164458833Y-85393690D01*
X165315976Y-84869880D02*
X165649309Y-85869880D01*
X165982642Y-84869880D01*
X166268357Y-84965119D02*
X166315976Y-84917500D01*
X166411214Y-84869880D01*
X166649309Y-84869880D01*
X166744547Y-84917500D01*
X166792166Y-84965119D01*
X166839785Y-85060357D01*
X166839785Y-85155595D01*
X166792166Y-85298452D01*
X166220738Y-85869880D01*
X166839785Y-85869880D01*
G04 #@! TO.C,RV3*
X165030261Y-103713380D02*
X164696928Y-103237190D01*
X164458833Y-103713380D02*
X164458833Y-102713380D01*
X164839785Y-102713380D01*
X164935023Y-102761000D01*
X164982642Y-102808619D01*
X165030261Y-102903857D01*
X165030261Y-103046714D01*
X164982642Y-103141952D01*
X164935023Y-103189571D01*
X164839785Y-103237190D01*
X164458833Y-103237190D01*
X165315976Y-102713380D02*
X165649309Y-103713380D01*
X165982642Y-102713380D01*
X166220738Y-102713380D02*
X166839785Y-102713380D01*
X166506452Y-103094333D01*
X166649309Y-103094333D01*
X166744547Y-103141952D01*
X166792166Y-103189571D01*
X166839785Y-103284809D01*
X166839785Y-103522904D01*
X166792166Y-103618142D01*
X166744547Y-103665761D01*
X166649309Y-103713380D01*
X166363595Y-103713380D01*
X166268357Y-103665761D01*
X166220738Y-103618142D01*
G04 #@! TO.C,U1*
X151218995Y-97293180D02*
X151218995Y-98102704D01*
X151266614Y-98197942D01*
X151314233Y-98245561D01*
X151409471Y-98293180D01*
X151599947Y-98293180D01*
X151695185Y-98245561D01*
X151742804Y-98197942D01*
X151790423Y-98102704D01*
X151790423Y-97293180D01*
X152790423Y-98293180D02*
X152218995Y-98293180D01*
X152504709Y-98293180D02*
X152504709Y-97293180D01*
X152409471Y-97436038D01*
X152314233Y-97531276D01*
X152218995Y-97578895D01*
G04 #@! TO.C,Y1*
X134562909Y-117286090D02*
X134562909Y-117762280D01*
X134229576Y-116762280D02*
X134562909Y-117286090D01*
X134896242Y-116762280D01*
X135753385Y-117762280D02*
X135181957Y-117762280D01*
X135467671Y-117762280D02*
X135467671Y-116762280D01*
X135372433Y-116905138D01*
X135277195Y-117000376D01*
X135181957Y-117047995D01*
G04 #@! TO.C,U2*
X150926895Y-77811380D02*
X150926895Y-78620904D01*
X150974514Y-78716142D01*
X151022133Y-78763761D01*
X151117371Y-78811380D01*
X151307847Y-78811380D01*
X151403085Y-78763761D01*
X151450704Y-78716142D01*
X151498323Y-78620904D01*
X151498323Y-77811380D01*
X151926895Y-77906619D02*
X151974514Y-77859000D01*
X152069752Y-77811380D01*
X152307847Y-77811380D01*
X152403085Y-77859000D01*
X152450704Y-77906619D01*
X152498323Y-78001857D01*
X152498323Y-78097095D01*
X152450704Y-78239952D01*
X151879276Y-78811380D01*
X152498323Y-78811380D01*
G04 #@! TD*
M02*
